<?xml version="1.0" encoding="UTF-8" standalone="no"?>
<svg
   xmlns:dc="http://purl.org/dc/elements/1.1/"
   xmlns:cc="http://creativecommons.org/ns#"
   xmlns:rdf="http://www.w3.org/1999/02/22-rdf-syntax-ns#"
   xmlns:svg="http://www.w3.org/2000/svg"
   xmlns="http://www.w3.org/2000/svg"
   xmlns:xlink="http://www.w3.org/1999/xlink"
   id="svg2"
   viewBox=" 0 0 863.504647 395.787727"
   height="111.7mm"
   width="243.7mm"
   version="1.1">
  <metadata
     id="metadata80">
    <rdf:RDF>
      <cc:Work
         rdf:about="">
        <dc:format>image/svg+xml</dc:format>
        <dc:type
           rdf:resource="http://purl.org/dc/dcmitype/StillImage" />
        <dc:title></dc:title>
      </cc:Work>
    </rdf:RDF>
  </metadata>
  <defs
     id="defs78" />
  <!-- Front-->
  <g
     id="g4"
     transform="translate(22.5000185, 22.5000185) ">
    <polygon
       id="polygon6"
       points="10.62993, 0 26.574825, 0 26.574825, 10.62993 34.370107, 10.62993 34.370107, 18.070881 29.9409695, 18.070881 29.9409695, 26.929156 34.370107, 26.929156 34.370107, 35.787431 45.354368, 35.787431 45.354368, 26.929156 49.7835055, 26.929156 49.7835055, 18.070881 45.354368, 18.070881 45.354368, 10.62993 53.14965, 10.62993 53.14965, 0 74.40951, 0 74.40951, 10.62993 95.66937, 10.62993 95.66937, 0 116.92922999999999, 0 116.92922999999999, 10.62993 138.18909, 10.62993 138.18909, 0 159.44895, 0 159.44895, 10.62993 180.70881, 10.62993 180.70881, 0 201.96867, 0 201.96867, 10.62993 223.22853, 10.62993 223.22853, 0 244.48839, 0 244.48839, 10.62993 252.283672, 10.62993 252.283672, 18.070881 247.8545345, 18.070881 247.8545345, 26.929156 252.283672, 26.929156 252.283672, 35.787431 263.26793299999997, 35.787431 263.26793299999997, 26.929156 267.6970705, 26.929156 267.6970705, 18.070881 263.26793299999997, 18.070881 263.26793299999997, 10.62993 271.063215, 10.62993 271.063215, 0 287.00811, 0 287.00811, 26.574825 297.63804, 26.574825 297.63804, 33.307114 284.527793, 33.307114 284.527793, 46.417361 297.63804, 46.417361 297.63804, 53.14965 287.00811, 53.14965 287.00811, 74.40951 297.63804, 74.40951 297.63804, 81.14179899999999 284.527793, 81.14179899999999 284.527793, 94.252046 297.63804, 94.252046 297.63804, 100.984335 287.00811, 100.984335 287.00811, 127.55915999999999 271.063215, 127.55915999999999 271.063215, 116.92922999999999 263.26793299999997, 116.92922999999999 263.26793299999997, 109.48827899999999 267.6970705, 109.48827899999999 267.6970705, 100.63000399999999 263.26793299999997, 100.63000399999999 263.26793299999997, 91.771729 252.283672, 91.771729 252.283672, 100.63000399999999 247.8545345, 100.63000399999999 247.8545345, 109.48827899999999 252.283672, 109.48827899999999 252.283672, 116.92922999999999 244.48839, 116.92922999999999 244.48839, 127.55915999999999 223.22853, 127.55915999999999 223.22853, 116.92922999999999 201.96867, 116.92922999999999 201.96867, 127.55915999999999 180.70881, 127.55915999999999 180.70881, 116.92922999999999 159.44895, 116.92922999999999 159.44895, 127.55915999999999 138.18909, 127.55915999999999 138.18909, 116.92922999999999 116.92922999999999, 116.92922999999999 116.92922999999999, 127.55915999999999 95.66937, 127.55915999999999 95.66937, 116.92922999999999 74.40951, 116.92922999999999 74.40951, 127.55915999999999 53.14965, 127.55915999999999 53.14965, 116.92922999999999 45.354368, 116.92922999999999 45.354368, 109.48827899999999 49.7835055, 109.48827899999999 49.7835055, 100.63000399999999 45.354368, 100.63000399999999 45.354368, 91.771729 34.370107, 91.771729 34.370107, 100.63000399999999 29.9409695, 100.63000399999999 29.9409695, 109.48827899999999 34.370107, 109.48827899999999 34.370107, 116.92922999999999 26.574825, 116.92922999999999 26.574825, 127.55915999999999 10.62993, 127.55916 10.62993, 100.984335 0, 100.984335 0, 94.252046 13.110247000000001, 94.252046 13.110247000000001, 81.14179899999999 0, 81.14179899999999 0, 74.40951 10.62993, 74.40951 10.62993, 53.14965 0, 53.14965 0, 46.417361 13.110247000000001, 46.417361 13.110247000000001, 33.307114 0, 33.307114 0, 26.574825 10.62993, 26.574825 "
       style="stroke:#000000; fill:none; stroke-width:0.90000074" />
    <circle
       r="9"
       id="circle8"
       style="fill:none;stroke:#000000;stroke-width:0.72927731"
       cy="37.996918"
       cx="101.38239" />
    <use
       id="use3580"
       xlink:href="#circle8"
       y="0"
       x="0" />
    <use
       id="use3582"
       transform="translate(0,24.34804)"
       xlink:href="#circle8"
       y="0"
       x="0" />
    <use
       id="use3584"
       transform="translate(0,48.69608)"
       xlink:href="#circle8"
       y="0"
       x="0" />
    <use
       id="use3586"
       transform="translate(24.34804,0)"
       xlink:href="#circle8"
       y="0"
       x="0" />
    <use
       id="use3588"
       transform="translate(24.34804,24.34804)"
       xlink:href="#circle8"
       y="0"
       x="0" />
    <use
       id="use3590"
       transform="translate(24.34804,48.69608)"
       xlink:href="#circle8"
       y="0"
       x="0" />
    <use
       id="use3592"
       transform="translate(48.69608,0)"
       xlink:href="#circle8"
       y="0"
       x="0" />
    <use
       id="use3594"
       transform="translate(48.69608,24.34804)"
       xlink:href="#circle8"
       y="0"
       x="0" />
    <use
       id="use3596"
       transform="translate(48.69608,48.69608)"
       xlink:href="#circle8"
       y="0"
       x="0" />
    <use
       id="use3598"
       transform="translate(73.044121,0)"
       xlink:href="#circle8"
       y="0"
       x="0" />
    <use
       id="use3600"
       transform="translate(73.044121,24.34804)"
       xlink:href="#circle8"
       y="0"
       x="0" />
    <use
       id="use3602"
       transform="translate(73.044121,48.69608)"
       xlink:href="#circle8"
       y="0"
       x="0" />
    <use
       id="use3604"
       transform="translate(97.392161,0)"
       xlink:href="#circle8"
       y="0"
       x="0" />
    <use
       id="use3606"
       transform="translate(97.392161,24.34804)"
       xlink:href="#circle8"
       y="0"
       x="0" />
    <use
       id="use3608"
       transform="translate(97.392161,48.69608)"
       xlink:href="#circle8"
       y="0"
       x="0" />
  </g>
  <!-- Back-->
  <g
     id="g10"
     transform="translate(320.1380585, 22.5000185) ">
    <polygon
       id="polygon12"
       points="10.62993, 0 26.574825, 0 26.574825, 10.62993 34.370107, 10.62993 34.370107, 18.070881 29.9409695, 18.070881 29.9409695, 26.929156 34.370107, 26.929156 34.370107, 35.787431 45.354368, 35.787431 45.354368, 26.929156 49.7835055, 26.929156 49.7835055, 18.070881 45.354368, 18.070881 45.354368, 10.62993 53.14965, 10.62993 53.14965, 0 74.40951, 0 74.40951, 10.62993 95.66937, 10.62993 95.66937, 0 116.92922999999999, 0 116.92922999999999, 10.62993 138.18909, 10.62993 138.18909, 0 159.44895, 0 159.44895, 10.62993 180.70881, 10.62993 180.70881, 0 201.96867, 0 201.96867, 10.62993 223.22853, 10.62993 223.22853, 0 244.48839, 0 244.48839, 10.62993 252.283672, 10.62993 252.283672, 18.070881 247.8545345, 18.070881 247.8545345, 26.929156 252.283672, 26.929156 252.283672, 35.787431 263.26793299999997, 35.787431 263.26793299999997, 26.929156 267.6970705, 26.929156 267.6970705, 18.070881 263.26793299999997, 18.070881 263.26793299999997, 10.62993 271.063215, 10.62993 271.063215, 0 287.00811, 0 287.00811, 26.574825 297.63804, 26.574825 297.63804, 33.307114 284.527793, 33.307114 284.527793, 46.417361 297.63804, 46.417361 297.63804, 53.14965 287.00811, 53.14965 287.00811, 74.40951 297.63804, 74.40951 297.63804, 81.14179899999999 284.527793, 81.14179899999999 284.527793, 94.252046 297.63804, 94.252046 297.63804, 100.984335 287.00811, 100.984335 287.00811, 127.55915999999999 271.063215, 127.55915999999999 271.063215, 116.92922999999999 263.26793299999997, 116.92922999999999 263.26793299999997, 109.48827899999999 267.6970705, 109.48827899999999 267.6970705, 100.63000399999999 263.26793299999997, 100.63000399999999 263.26793299999997, 91.771729 252.283672, 91.771729 252.283672, 100.63000399999999 247.8545345, 100.63000399999999 247.8545345, 109.48827899999999 252.283672, 109.48827899999999 252.283672, 116.92922999999999 244.48839, 116.92922999999999 244.48839, 127.55915999999999 223.22853, 127.55915999999999 223.22853, 116.92922999999999 201.96867, 116.92922999999999 201.96867, 127.55915999999999 180.70881, 127.55915999999999 180.70881, 116.92922999999999 159.44895, 116.92922999999999 159.44895, 127.55915999999999 138.18909, 127.55915999999999 138.18909, 116.92922999999999 116.92922999999999, 116.92922999999999 116.92922999999999, 127.55915999999999 95.66937, 127.55915999999999 95.66937, 116.92922999999999 74.40951, 116.92922999999999 74.40951, 127.55915999999999 53.14965, 127.55915999999999 53.14965, 116.92922999999999 45.354368, 116.92922999999999 45.354368, 109.48827899999999 49.7835055, 109.48827899999999 49.7835055, 100.63000399999999 45.354368, 100.63000399999999 45.354368, 91.771729 34.370107, 91.771729 34.370107, 100.63000399999999 29.9409695, 100.63000399999999 29.9409695, 109.48827899999999 34.370107, 109.48827899999999 34.370107, 116.92922999999999 26.574825, 116.92922999999999 26.574825, 127.55915999999999 10.62993, 127.55916 10.62993, 100.984335 0, 100.984335 0, 94.252046 13.110247000000001, 94.252046 13.110247000000001, 81.14179899999999 0, 81.14179899999999 0, 74.40951 10.62993, 74.40951 10.62993, 53.14965 0, 53.14965 0, 46.417361 13.110247000000001, 46.417361 13.110247000000001, 33.307114 0, 33.307114 0, 26.574825 10.62993, 26.574825 "
       style="stroke:#000000; fill:none; stroke-width:0.90000074" />
  </g>
  <!-- Left-->
  <g
     id="g16"
     transform="translate(617.7760985, 22.5000185) ">
    <rect
       id="rect24-9-3-7"
       style="fill:none;stroke:#000000;stroke-width:0.90000075"
       ry="10.000026"
       rx="10.000026"
       height="21.259911"
       width="106.29957"
       y="21.135292"
       x="59.161758" />
    <rect
       id="rect24-9-3"
       style="fill:none;stroke:#000000;stroke-width:0.90000075"
       ry="10.000017"
       rx="10.000017"
       height="21.259893"
       width="106.29948"
       y="51.637878"
       x="58.710762" />
    <rect
       id="rect24-9"
       style="fill:none;stroke:#000000;stroke-width:0.90000075"
       ry="10.000009"
       rx="10.000009"
       height="21.259876"
       width="106.29939"
       y="81.587006"
       x="58.844406" />
    <polygon
       id="polygon18"
       points="0, 10.62993 29.2323075, 10.62993 29.2323075, 0 37.29333775, 0 37.29333775, 13.110247000000001 50.40358475, 13.110247000000001 50.40358475, 0 58.464615, 0 58.464615, 10.62993 79.724475, 10.62993 79.724475, 0 100.984335, 0 100.984335, 10.62993 122.24419499999999, 10.62993 122.24419499999999, 0 143.504055, 0 143.504055, 10.62993 164.763915, 10.62993 164.763915, 0 172.82494525, 0 172.82494525, 13.110247000000001 185.93519225000003, 13.110247000000001 185.93519225000003, 0 193.9962225, 0 193.9962225, 10.62993 223.22853, 10.62993 223.22853, 26.574825 212.5986, 26.574825 212.5986, 34.370107 205.157649, 34.370107 205.157649, 29.9409695 196.299374, 29.9409695 196.299374, 34.370107 187.441099, 34.370107 187.441099, 45.354368 196.299374, 45.354368 196.299374, 49.7835055 205.157649, 49.7835055 205.157649, 45.354368 212.5986, 45.354368 212.5986, 53.14965 223.22853, 53.14965 223.22853, 74.40951 212.5986, 74.40951 212.5986, 82.204792 205.157649, 82.204792 205.157649, 77.7756545 196.299374, 77.7756545 196.299374, 82.204792 187.441099, 82.204792 187.441099, 93.189053 196.299374, 93.189053 196.299374, 97.6181905 205.157649, 97.6181905 205.157649, 93.189053 212.5986, 93.189053 212.5986, 100.984335 223.22853, 100.984335 223.22853, 116.92922999999999 193.9962225, 116.92922999999999 193.9962225, 127.55915999999999 185.93519225000003, 127.55915999999999 185.93519225000003, 114.44891299999999 172.82494525, 114.44891299999999 172.82494525, 127.55915999999999 164.763915, 127.55915999999999 164.763915, 116.92922999999999 143.504055, 116.92922999999999 143.504055, 127.55915999999999 122.24419499999999, 127.55915999999999 122.24419499999999, 116.92922999999999 100.984335, 116.92922999999999 100.984335, 127.55915999999999 79.724475, 127.55915999999999 79.724475, 116.92922999999999 58.464615, 116.92922999999999 58.464615, 127.55915999999999 50.40358475, 127.55915999999999 50.40358475, 114.44891299999999 37.29333775, 114.44891299999999 37.29333775, 127.55915999999999 29.2323075, 127.55915999999999 29.2323075, 116.92922999999999 0, 116.92923 0, 100.984335 10.62993, 100.984335 10.62993, 93.189053 18.070881, 93.189053 18.070881, 97.6181905 26.929156, 97.6181905 26.929156, 93.189053 35.787431, 93.189053 35.787431, 82.204792 26.929156, 82.204792 26.929156, 77.7756545 18.070881, 77.7756545 18.070881, 82.204792 10.62993, 82.204792 10.62993, 74.40951 0, 74.40951 0, 53.14965 10.62993, 53.14965 10.62993, 45.354368 18.070881, 45.354368 18.070881, 49.7835055 26.929156, 49.7835055 26.929156, 45.354368 35.787431, 45.354368 35.787431, 34.370107 26.929156, 34.370107 26.929156, 29.9409695 18.070881, 29.9409695 18.070881, 34.370107 10.62993, 34.370107 10.62993, 26.574825 0, 26.574825 "
       style="stroke:#000000; fill:none; stroke-width:0.90000074" />
  </g>
  <!-- Right-->
  <g
     id="g20"
     transform="translate(617.7760985, 150.0591785) ">
    <polygon
       id="polygon22"
       points="0, 10.62993 29.2323075, 10.62993 29.2323075, 0 37.29333775, 0 37.29333775, 13.110247000000001 50.40358475, 13.110247000000001 50.40358475, 0 58.464615, 0 58.464615, 10.62993 79.724475, 10.62993 79.724475, 0 100.984335, 0 100.984335, 10.62993 122.24419499999999, 10.62993 122.24419499999999, 0 143.504055, 0 143.504055, 10.62993 164.763915, 10.62993 164.763915, 0 172.82494525, 0 172.82494525, 13.110247000000001 185.93519225000003, 13.110247000000001 185.93519225000003, 0 193.9962225, 0 193.9962225, 10.62993 223.22853, 10.62993 223.22853, 26.574825 212.5986, 26.574825 212.5986, 34.370107 205.157649, 34.370107 205.157649, 29.9409695 196.299374, 29.9409695 196.299374, 34.370107 187.441099, 34.370107 187.441099, 45.354368 196.299374, 45.354368 196.299374, 49.7835055 205.157649, 49.7835055 205.157649, 45.354368 212.5986, 45.354368 212.5986, 53.14965 223.22853, 53.14965 223.22853, 74.40951 212.5986, 74.40951 212.5986, 82.204792 205.157649, 82.204792 205.157649, 77.7756545 196.299374, 77.7756545 196.299374, 82.204792 187.441099, 82.204792 187.441099, 93.189053 196.299374, 93.189053 196.299374, 97.6181905 205.157649, 97.6181905 205.157649, 93.189053 212.5986, 93.189053 212.5986, 100.984335 223.22853, 100.984335 223.22853, 116.92922999999999 193.9962225, 116.92922999999999 193.9962225, 127.55915999999999 185.93519225000003, 127.55915999999999 185.93519225000003, 114.44891299999999 172.82494525, 114.44891299999999 172.82494525, 127.55915999999999 164.763915, 127.55915999999999 164.763915, 116.92922999999999 143.504055, 116.92922999999999 143.504055, 127.55915999999999 122.24419499999999, 127.55915999999999 122.24419499999999, 116.92922999999999 100.984335, 116.92922999999999 100.984335, 127.55915999999999 79.724475, 127.55915999999999 79.724475, 116.92922999999999 58.464615, 116.92922999999999 58.464615, 127.55915999999999 50.40358475, 127.55915999999999 50.40358475, 114.44891299999999 37.29333775, 114.44891299999999 37.29333775, 127.55915999999999 29.2323075, 127.55915999999999 29.2323075, 116.92922999999999 0, 116.92923 0, 100.984335 10.62993, 100.984335 10.62993, 93.189053 18.070881, 93.189053 18.070881, 97.6181905 26.929156, 97.6181905 26.929156, 93.189053 35.787431, 93.189053 35.787431, 82.204792 26.929156, 82.204792 26.929156, 77.7756545 18.070881, 77.7756545 18.070881, 82.204792 10.62993, 82.204792 10.62993, 74.40951 0, 74.40951 0, 53.14965 10.62993, 53.14965 10.62993, 45.354368 18.070881, 45.354368 18.070881, 49.7835055 26.929156, 49.7835055 26.929156, 45.354368 35.787431, 45.354368 35.787431, 34.370107 26.929156, 34.370107 26.929156, 29.9409695 18.070881, 29.9409695 18.070881, 34.370107 10.62993, 34.370107 10.62993, 26.574825 0, 26.574825 "
       style="stroke:#000000; fill:none; stroke-width:0.90000074" />
    <rect
       id="rect24"
       style="fill:none;stroke:#000000;stroke-width:0.90000075"
       ry="10"
       rx="10"
       height="21.259859"
       width="106.2993"
       y="82.059143"
       x="57.175949" />
    <rect
       id="rect26"
       style="fill:none;stroke:#000000;stroke-width:0.90000075"
       ry="10"
       rx="10"
       height="21.259859"
       width="106.2993"
       y="21.567648"
       x="58.508869" />
    <rect
       id="rect28"
       style="fill:none;stroke:#000000;stroke-width:0.90000075"
       ry="10"
       rx="10"
       height="21.259859"
       width="106.2993"
       y="51.597256"
       x="57.630695" />
  </g>
  <!-- Top-->
  <g
     id="g30"
     transform="translate(22.5000185, 150.0591785) ">
    <polygon
       id="polygon32"
       points="0, 10.62993 26.574825, 10.62993 26.574825, 0 33.307114, 0 33.307114, 13.110247000000001 46.417361, 13.110247000000001 46.417361, 0 53.14965, 0 53.14965, 10.62993 74.40951, 10.62993 74.40951, 0 95.66937, 0 95.66937, 10.62993 116.92922999999999, 10.62993 116.92922999999999, 0 138.18909, 0 138.18909, 10.62993 159.44895, 10.62993 159.44895, 0 180.70881, 0 180.70881, 10.62993 201.96867, 10.62993 201.96867, 0 223.22853, 0 223.22853, 10.62993 244.48839, 10.62993 244.48839, 0 251.220679, 0 251.220679, 13.110247000000001 264.330926, 13.110247000000001 264.330926, 0 271.063215, 0 271.063215, 10.62993 297.63804, 10.62993 297.63804, 29.2323075 287.00811, 29.2323075 287.00811, 38.35633075 279.567159, 38.35633075 279.567159, 33.92719325 270.708884, 33.92719325 270.708884, 38.35633075 261.85060899999996, 38.35633075 261.85060899999996, 49.34059175 270.708884, 49.34059175 270.708884, 53.76972925 279.567159, 53.76972925 279.567159, 49.34059175 287.00811, 49.34059175 287.00811, 58.464615 297.63804, 58.464615 297.63804, 79.724475 287.00811, 79.724475 287.00811, 100.984335 297.63804, 100.984335 297.63804, 122.24419499999999 287.00811, 122.24419499999999 287.00811, 143.504055 297.63804, 143.504055 297.63804, 164.763915 287.00811, 164.763915 287.00811, 173.88793825000002 279.567159, 173.88793825000002 279.567159, 169.45880075000002 270.708884, 169.45880075000002 270.708884, 173.88793825000002 261.85060899999996, 173.88793825000002 261.85060899999996, 184.87219925000002 270.708884, 184.87219925000002 270.708884, 189.30133675000002 279.567159, 189.30133675000002 279.567159, 184.87219925000002 287.00811, 184.87219925000002 287.00811, 193.9962225 297.63804, 193.9962225 297.63804, 212.5986 271.063215, 212.5986 271.063215, 223.22853 264.330926, 223.22853 264.330926, 210.11828300000002 251.220679, 210.11828300000002 251.220679, 223.22853 244.48839, 223.22853 244.48839, 212.5986 223.22853, 212.5986 223.22853, 223.22853 201.96867, 223.22853 201.96867, 212.5986 180.70881, 212.5986 180.70881, 223.22853 159.44895, 223.22853 159.44895, 212.5986 138.18909, 212.5986 138.18909, 223.22853 116.92922999999999, 223.22853 116.92922999999999, 212.5986 95.66937, 212.5986 95.66937, 223.22853 74.40951, 223.22853 74.40951, 212.5986 53.14965, 212.5986 53.14965, 223.22853 46.417361, 223.22853 46.417361, 210.11828300000002 33.307114, 210.11828300000002 33.307114, 223.22853 26.574825, 223.22853 26.574825, 212.5986 0, 212.5986 0, 193.9962225 10.62993, 193.9962225 10.62993, 184.87219925000002 18.070881, 184.87219925000002 18.070881, 189.30133675000002 26.929156, 189.30133675000002 26.929156, 184.87219925000002 35.787431, 184.87219925000002 35.787431, 173.88793825000002 26.929156, 173.88793825000002 26.929156, 169.45880075000002 18.070881, 169.45880075000002 18.070881, 173.88793825000002 10.62993, 173.88793825000002 10.62993, 164.763915 0, 164.763915 0, 143.504055 10.62993, 143.504055 10.62993, 122.24419499999999 0, 122.24419499999999 0, 100.984335 10.62993, 100.984335 10.62993, 79.724475 0, 79.724475 0, 58.464615 10.62993, 58.464615 10.62993, 49.34059175 18.070881, 49.34059175 18.070881, 53.76972925 26.929156, 53.76972925 26.929156, 49.34059175 35.787431, 49.34059175 35.787431, 38.35633075 26.929156, 38.35633075 26.929156, 33.92719325 18.070881, 33.92719325 18.070881, 38.35633075 10.62993, 38.35633075 10.62993, 29.2323075 0, 29.2323075 "
       style="stroke:#000000; fill:none; stroke-width:0.90000074" />
    <circle
       id="circle34"
       style="stroke:#000000;stroke-width:0.90000074;fill:none"
       r="44.291375"
       cy="110.4095396"
       cx="68.9528126" />
    <circle
       id="circle40"
       style="stroke:#000000;stroke-width:0.90000074;fill:none"
       r="5.314965"
       cy="114.42775867840793"
       cx="128.11375273564286" />
    <g
       transform="matrix(0,-0.00837522,0.01441296,0,-52.812475,244.67815)"
       id="g4480">
      <g
         transform="matrix(1.032045,0,0,1.1610673,-7795.3692,-2319.3972)"
         id="g4482">
        <path
           transform="matrix(1,0,0,-1,14923.686,19456)"
           d="m 686,1114 c 144,0 255.833,-49.167 335.5,-147.5 C 1101.167,868.167 1141,729 1141,549 1141,369 1100.833,229.167 1020.5,129.5 940.167,29.833 828.667,-20 686,-20 614.667,-20 549.5,-6.833 490.5,19.5 431.5,45.833 382,86.333 342,141 l -12,0 -35,-141 -119,0 0,1556 166,0 0,-378 c 0,-84.667 -2.66699,-160.667 -8,-228 l 8,0 c 77.333,109.333 192,164 344,164 z M 662,975 c -113.333,0 -194.999,-32.499 -244.999,-97.499 -50,-65 -75,-174.5 -75,-328.5 0,-154 25.667,-264.167 77,-330.5 51.333,-66.333 133.666,-99.5 246.999,-99.5 102,0 178,37.167 228,111.5 50,74.333 75,181.166 75,320.499 0,142.667 -25,249 -75,319 -50,70 -127.333,105 -232,105 z"
           id="path4484"
           style="fill:#000000;stroke-width:1" />
        <path
           transform="matrix(1,0,0,-1,16178.686,19456)"
           d="m 676,1116 c 48.667,0 92.333,-4 131,-12 L 784,950 C 738.667,960 698.667,965 664,965 575.333,965 499.5,929 436.5,857 373.5,785 342,695.333 342,588 l 0,-588 -166,0 0,1096 137,0 19,-203 8,0 c 40.667,71.333 89.667,126.333 147,165 57.333,38.667 120.333,58 189,58 z"
           id="path4486"
           style="fill:#000000;stroke-width:0" />
        <path
           transform="matrix(1,0,0,-1,17014.686,19456)"
           d="m 639,-20 c -162,0 -289.833,49.334 -383.5,148.001 -93.667,98.667 -140.5,235.667 -140.5,411 0,176.667 43.5,317 130.5,421 87,104 203.833,156 350.5,156 137.333,0 246,-45.167 326,-135.5 80,-90.333 120,-209.5 120,-357.5 l 0,-105 -755,0 C 290.33301,389.334 322.833,291.667 384.5,225 446.167,158.333 533,125 645,125 c 118,0 234.667,24.667 350,74 L 995,51 C 936.333,25.667 880.833,7.5 828.5,-3.5 776.167,-14.5 713,-20 639,-20 Z m -45,997.001 c -88,0 -158.167,-28.6689 -210.5,-86.002 C 331.167,833.6659 300.334,754.333 291.001,653 l 573,0 c 0,104.667 -23.333,184.834 -70,240.501 -46.667,55.667 -113.334,83.5 -200.001,83.5 z"
           id="path4488"
           style="fill:#000000;stroke-width:0" />
        <path
           transform="matrix(1,0,0,-1,18163.686,19456)"
           d="m 850,0 -33.001,156 -8,0 C 754.332,87.333 699.832,40.833 645.499,16.5 591.166,-7.833 523.333,-20 442,-20 333.333,-20 248.166,8 186.499,64 c -61.667,56 -92.5,135.667 -92.5,239 0,221.333 177,337.333 531,348 l 186,6 0,68 c 0,86 -18.5,149.5 -55.5,190.5 -37,41 -96.167,61.5 -177.5,61.5 C 486.666,977 383.333,949 268,893 l -51,127 c 54,29.333 113.167,52.333 177.5,69 64.333,16.667 128.833,25 193.5,25 130.667,0 227.5,-29 290.5,-87 63,-58 94.5,-151 94.5,-279 L 973,0 850,0 Z M 474.999,117 c 103.333,0 184.501,28.333 243.501,85 59,56.667 88.5,136 88.5,238 l 0,99 -166,-7 C 509,527.33301 413.833,506.833 355.5,470.5 297.167,434.167 268,377.667 268,301 c 0,-60 18.167,-105.667 54.5,-137 36.333,-31.333 87.166,-47 152.499,-47 z"
           id="path4490"
           style="fill:#000000;stroke-width:0" />
        <path
           transform="matrix(1,0,0,-1,19136.686,19456)"
           d="m 922,147 -8.99902,0 c -76.667,-111.333 -191.334,-167 -344.001,-167 -143.333,0 -254.833,49 -334.5,147 -79.667,98 -119.5,237.333 -119.5,418 0,180.667 40,321 120,421 80,100 191.333,150 334,150 148.667,0 262.667,-54 342,-162 l 13,0 -7,79 -4,77 0,446 L 1079,1556 1079,0 943.99998,0 Z M 590.001,119 c 113.333,0 195.501,30.834 246.501,92.501 51,61.667 76.5,161.167 76.5,298.5 l 0,35 c 0,155.333 -25.833,266.166 -77.5,332.499 -51.667,66.333 -134.167,99.5 -247.5,99.5 -97.333,0 -171.833,-37.833 -223.5,-113.5 -51.667,-75.667 -77.5,-182.5 -77.5,-320.5 0,-140 25.667,-245.667 77,-317 51.333,-71.333 126.666,-107 225.999,-107 z"
           id="path4492"
           style="fill:#000000;stroke-width:0" />
        <path
           transform="matrix(1,0,0,-1,20391.686,19456)"
           d="m 686,1114 c 144,0 255.833,-49.167 335.5,-147.5 C 1101.167,868.167 1141,729 1141,549 1141,369 1100.833,229.167 1020.5,129.5 940.167,29.833 828.667,-20 686,-20 614.667,-20 549.5,-6.833 490.5,19.5 431.5,45.833 382,86.333 342,141 l -12,0 -35,-141 -119,0 0,1556 166,0 0,-378 c 0,-84.667 -2.66699,-160.667 -8,-228 l 8,0 c 77.333,109.333 192,164 344,164 z M 662,975 c -113.333,0 -194.999,-32.499 -244.999,-97.499 -50,-65 -75,-174.5 -75,-328.5 0,-154 25.667,-264.167 77,-330.5 51.333,-66.333 133.666,-99.5 246.999,-99.5 102,0 178,37.167 228,111.5 50,74.333 75,181.166 75,320.499 0,142.667 -25,249 -75,319 -50,70 -127.333,105 -232,105 z"
           id="path4494"
           style="fill:#000000;stroke-width:0" />
        <path
           transform="matrix(1,0,0,-1,21646.686,19456)"
           d="m 1122,549 c 0,-178.667 -44.999,-318.168 -134.999,-418.501 -90,-100.333 -214.333,-150.5 -373,-150.5 -98,0 -185,23 -261,69 -76,46 -134.667,112 -176,198 -41.333,86 -62,186.667 -62,302 0,178.667 44.667,317.834 134,417.501 89.333,99.667 213.333,149.5 372,149.5 153.333,0 275.166,-51 365.499,-153 C 1076.833,861 1122,723 1122,549 Z m -834.999,-10e-4 c 0,-140 28,-246.667 84,-320 56,-73.333 138.333,-110 247,-110 108.667,0 191.167,36.5 247.5,109.5 56.333,73 84.5,179.833 84.5,320.5 0,139.333 -28.167,245.166 -84.5,317.499 -56.333,72.333 -139.5,108.5 -249.5,108.5 -108.667,0 -190.667,-35.667 -246,-107 -55.333,-71.333 -83,-177.666 -83,-318.999 z"
           id="path4496"
           style="fill:#000000;stroke-width:0" />
        <path
           transform="matrix(1,0,0,-1,22883.686,19456)"
           d="m 850,0 -33.001,156 -8,0 C 754.332,87.333 699.832,40.833 645.499,16.5 591.166,-7.833 523.333,-20 442,-20 333.333,-20 248.166,8 186.499,64 c -61.667,56 -92.5,135.667 -92.5,239 0,221.333 177,337.333 531,348 l 186,6 0,68 c 0,86 -18.5,149.5 -55.5,190.5 -37,41 -96.167,61.5 -177.5,61.5 C 486.666,977 383.333,949 268,893 l -51,127 c 54,29.333 113.167,52.333 177.5,69 64.333,16.667 128.833,25 193.5,25 130.667,0 227.5,-29 290.5,-87 63,-58 94.5,-151 94.5,-279 L 973,0 850,0 Z M 474.999,117 c 103.333,0 184.501,28.333 243.501,85 59,56.667 88.5,136 88.5,238 l 0,99 -166,-7 C 509,527.33301 413.833,506.833 355.5,470.5 297.167,434.167 268,377.667 268,301 c 0,-60 18.167,-105.667 54.5,-137 36.333,-31.333 87.166,-47 152.499,-47 z"
           id="path4498"
           style="fill:#000000;stroke-width:0" />
        <path
           transform="matrix(1,0,0,-1,23856.686,19456)"
           d="m 676,1116 c 48.667,0 92.333,-4 131,-12 L 784,950 C 738.667,960 698.667,965 664,965 575.333,965 499.5,929 436.5,857 373.5,785 342,695.333 342,588 l 0,-588 -166,0 0,1096 137,0 19,-203 8,0 c 40.667,71.333 89.667,126.333 147,165 57.333,38.667 120.333,58 189,58 z"
           id="path4500"
           style="fill:#000000;stroke-width:0" />
        <path
           transform="matrix(1,0,0,-1,24692.686,19456)"
           d="m 922,147 -8.99902,0 c -76.667,-111.333 -191.334,-167 -344.001,-167 -143.333,0 -254.833,49 -334.5,147 -79.667,98 -119.5,237.333 -119.5,418 0,180.667 40,321 120,421 80,100 191.333,150 334,150 148.667,0 262.667,-54 342,-162 l 13,0 -7,79 -4,77 0,446 L 1079,1556 1079,0 943.99998,0 Z M 590.001,119 c 113.333,0 195.501,30.834 246.501,92.501 51,61.667 76.5,161.167 76.5,298.5 l 0,35 c 0,155.333 -25.833,266.166 -77.5,332.499 -51.667,66.333 -134.167,99.5 -247.5,99.5 -97.333,0 -171.833,-37.833 -223.5,-113.5 -51.667,-75.667 -77.5,-182.5 -77.5,-320.5 0,-140 25.667,-245.667 77,-317 51.333,-71.333 126.666,-107 225.999,-107 z"
           id="path4502"
           style="fill:#000000;stroke-width:0" />
        <path
           transform="matrix(1,0,0,-1,25947.686,19456)"
           d="m 152,106 c 0,44.667 10.166,78.499 30.499,101.499 20.333,23 49.5,34.5 87.5,34.5 38.667,0 68.834,-11.5 90.501,-34.5 21.667,-23 32.5,-56.833 32.5,-101.5 C 393,62.666 382,29.333 360,6 338,-17.333 308,-29 270,-29 236,-29 207.833,-18.5 185.5,2.5 163.167,23.5 152,58 152,106 Z"
           id="path4504"
           style="fill:#000000;stroke-width:0" />
        <path
           transform="matrix(1,0,0,-1,26492.686,19456)"
           d="m 1573,0 0,713 c 0,87.333 -18.667,152.833 -56,196.5 -37.333,43.667 -95.333,65.5 -174,65.5 -103.333,0 -179.666,-29.667 -228.999,-89 -49.333,-59.333 -74,-150.666 -74,-273.999 l 0,-612 -165.99995,0 0,713 c 0,87.333 -18.667,152.833 -56,196.5 -37.333,43.667 -95.666,65.5 -174.999,65.5 -104,0 -180.167,-31.167 -228.5,-93.5 -48.333,-62.333 -72.5,-164.5 -72.5,-306.5 l 0,-575 -166,0 0,1096 135,0 27,-150 8,0 c 31.333,53.333 75.5,95 132.5,125 57,30 120.833,45 191.5,45 171.333,0 283.333,-62 335.99995,-186 l 8,0 c 32.667,57.333 80,102.666 142,135.999 62,33.333 132.667,50 212,50 124,0 216.833,-31.833 278.5,-95.5 C 1708.167,956.833 1739,855 1739,715 l 0,-715 -166,0 z"
           id="path4506"
           style="fill:#000000;stroke-width:0" />
        <path
           transform="matrix(1,0,0,-1,28397.686,19456)"
           d="m 639,-20 c -162,0 -289.833,49.334 -383.5,148.001 -93.667,98.667 -140.5,235.667 -140.5,411 0,176.667 43.5,317 130.5,421 87,104 203.833,156 350.5,156 137.333,0 246,-45.167 326,-135.5 80,-90.333 120,-209.5 120,-357.5 l 0,-105 -755,0 C 290.33301,389.334 322.833,291.667 384.5,225 446.167,158.333 533,125 645,125 c 118,0 234.667,24.667 350,74 L 995,51 C 936.333,25.667 880.833,7.5 828.5,-3.5 776.167,-14.5 713,-20 639,-20 Z m -45,997.001 c -88,0 -158.167,-28.6689 -210.5,-86.002 C 331.167,833.6659 300.334,754.333 291.001,653 l 573,0 c 0,104.667 -23.333,184.834 -70,240.501 -46.667,55.667 -113.334,83.5 -200.001,83.5 z"
           id="path4508"
           style="fill:#000000;stroke-width:0" />
      </g>
    </g>
  </g>
  <!-- Bottom-->
  <g
     id="g72"
     transform="translate(320.1380585, 150.0591785) ">
    <g
       id="g42"
       transform="matrix(0,-0.00837522,0.01441296,0,-52.812475,244.67815)">
      <g
         id="g44"
         transform="matrix(1.032045,0,0,1.1610673,-7795.3692,-2319.3972)">
        <path
           style="fill:#000000;stroke-width:1"
           id="path46"
           d="m 686,1114 c 144,0 255.833,-49.167 335.5,-147.5 C 1101.167,868.167 1141,729 1141,549 1141,369 1100.833,229.167 1020.5,129.5 940.167,29.833 828.667,-20 686,-20 614.667,-20 549.5,-6.833 490.5,19.5 431.5,45.833 382,86.333 342,141 l -12,0 -35,-141 -119,0 0,1556 166,0 0,-378 c 0,-84.667 -2.66699,-160.667 -8,-228 l 8,0 c 77.333,109.333 192,164 344,164 z M 662,975 c -113.333,0 -194.999,-32.499 -244.999,-97.499 -50,-65 -75,-174.5 -75,-328.5 0,-154 25.667,-264.167 77,-330.5 51.333,-66.333 133.666,-99.5 246.999,-99.5 102,0 178,37.167 228,111.5 50,74.333 75,181.166 75,320.499 0,142.667 -25,249 -75,319 -50,70 -127.333,105 -232,105 z"
           transform="matrix(1,0,0,-1,14923.686,19456)" />
        <path
           style="fill:#000000;stroke-width:0"
           id="path48"
           d="m 676,1116 c 48.667,0 92.333,-4 131,-12 L 784,950 C 738.667,960 698.667,965 664,965 575.333,965 499.5,929 436.5,857 373.5,785 342,695.333 342,588 l 0,-588 -166,0 0,1096 137,0 19,-203 8,0 c 40.667,71.333 89.667,126.333 147,165 57.333,38.667 120.333,58 189,58 z"
           transform="matrix(1,0,0,-1,16178.686,19456)" />
        <path
           style="fill:#000000;stroke-width:0"
           id="path50"
           d="m 639,-20 c -162,0 -289.833,49.334 -383.5,148.001 -93.667,98.667 -140.5,235.667 -140.5,411 0,176.667 43.5,317 130.5,421 87,104 203.833,156 350.5,156 137.333,0 246,-45.167 326,-135.5 80,-90.333 120,-209.5 120,-357.5 l 0,-105 -755,0 C 290.33301,389.334 322.833,291.667 384.5,225 446.167,158.333 533,125 645,125 c 118,0 234.667,24.667 350,74 L 995,51 C 936.333,25.667 880.833,7.5 828.5,-3.5 776.167,-14.5 713,-20 639,-20 Z m -45,997.001 c -88,0 -158.167,-28.6689 -210.5,-86.002 C 331.167,833.6659 300.334,754.333 291.001,653 l 573,0 c 0,104.667 -23.333,184.834 -70,240.501 -46.667,55.667 -113.334,83.5 -200.001,83.5 z"
           transform="matrix(1,0,0,-1,17014.686,19456)" />
        <path
           style="fill:#000000;stroke-width:0"
           id="path52"
           d="m 850,0 -33.001,156 -8,0 C 754.332,87.333 699.832,40.833 645.499,16.5 591.166,-7.833 523.333,-20 442,-20 333.333,-20 248.166,8 186.499,64 c -61.667,56 -92.5,135.667 -92.5,239 0,221.333 177,337.333 531,348 l 186,6 0,68 c 0,86 -18.5,149.5 -55.5,190.5 -37,41 -96.167,61.5 -177.5,61.5 C 486.666,977 383.333,949 268,893 l -51,127 c 54,29.333 113.167,52.333 177.5,69 64.333,16.667 128.833,25 193.5,25 130.667,0 227.5,-29 290.5,-87 63,-58 94.5,-151 94.5,-279 L 973,0 850,0 Z M 474.999,117 c 103.333,0 184.501,28.333 243.501,85 59,56.667 88.5,136 88.5,238 l 0,99 -166,-7 C 509,527.33301 413.833,506.833 355.5,470.5 297.167,434.167 268,377.667 268,301 c 0,-60 18.167,-105.667 54.5,-137 36.333,-31.333 87.166,-47 152.499,-47 z"
           transform="matrix(1,0,0,-1,18163.686,19456)" />
        <path
           style="fill:#000000;stroke-width:0"
           id="path54"
           d="m 922,147 -8.99902,0 c -76.667,-111.333 -191.334,-167 -344.001,-167 -143.333,0 -254.833,49 -334.5,147 -79.667,98 -119.5,237.333 -119.5,418 0,180.667 40,321 120,421 80,100 191.333,150 334,150 148.667,0 262.667,-54 342,-162 l 13,0 -7,79 -4,77 0,446 L 1079,1556 1079,0 943.99998,0 Z M 590.001,119 c 113.333,0 195.501,30.834 246.501,92.501 51,61.667 76.5,161.167 76.5,298.5 l 0,35 c 0,155.333 -25.833,266.166 -77.5,332.499 -51.667,66.333 -134.167,99.5 -247.5,99.5 -97.333,0 -171.833,-37.833 -223.5,-113.5 -51.667,-75.667 -77.5,-182.5 -77.5,-320.5 0,-140 25.667,-245.667 77,-317 51.333,-71.333 126.666,-107 225.999,-107 z"
           transform="matrix(1,0,0,-1,19136.686,19456)" />
        <path
           style="fill:#000000;stroke-width:0"
           id="path56"
           d="m 686,1114 c 144,0 255.833,-49.167 335.5,-147.5 C 1101.167,868.167 1141,729 1141,549 1141,369 1100.833,229.167 1020.5,129.5 940.167,29.833 828.667,-20 686,-20 614.667,-20 549.5,-6.833 490.5,19.5 431.5,45.833 382,86.333 342,141 l -12,0 -35,-141 -119,0 0,1556 166,0 0,-378 c 0,-84.667 -2.66699,-160.667 -8,-228 l 8,0 c 77.333,109.333 192,164 344,164 z M 662,975 c -113.333,0 -194.999,-32.499 -244.999,-97.499 -50,-65 -75,-174.5 -75,-328.5 0,-154 25.667,-264.167 77,-330.5 51.333,-66.333 133.666,-99.5 246.999,-99.5 102,0 178,37.167 228,111.5 50,74.333 75,181.166 75,320.499 0,142.667 -25,249 -75,319 -50,70 -127.333,105 -232,105 z"
           transform="matrix(1,0,0,-1,20391.686,19456)" />
        <path
           style="fill:#000000;stroke-width:0"
           id="path58"
           d="m 1122,549 c 0,-178.667 -44.999,-318.168 -134.999,-418.501 -90,-100.333 -214.333,-150.5 -373,-150.5 -98,0 -185,23 -261,69 -76,46 -134.667,112 -176,198 -41.333,86 -62,186.667 -62,302 0,178.667 44.667,317.834 134,417.501 89.333,99.667 213.333,149.5 372,149.5 153.333,0 275.166,-51 365.499,-153 C 1076.833,861 1122,723 1122,549 Z m -834.999,-10e-4 c 0,-140 28,-246.667 84,-320 56,-73.333 138.333,-110 247,-110 108.667,0 191.167,36.5 247.5,109.5 56.333,73 84.5,179.833 84.5,320.5 0,139.333 -28.167,245.166 -84.5,317.499 -56.333,72.333 -139.5,108.5 -249.5,108.5 -108.667,0 -190.667,-35.667 -246,-107 -55.333,-71.333 -83,-177.666 -83,-318.999 z"
           transform="matrix(1,0,0,-1,21646.686,19456)" />
        <path
           style="fill:#000000;stroke-width:0"
           id="path60"
           d="m 850,0 -33.001,156 -8,0 C 754.332,87.333 699.832,40.833 645.499,16.5 591.166,-7.833 523.333,-20 442,-20 333.333,-20 248.166,8 186.499,64 c -61.667,56 -92.5,135.667 -92.5,239 0,221.333 177,337.333 531,348 l 186,6 0,68 c 0,86 -18.5,149.5 -55.5,190.5 -37,41 -96.167,61.5 -177.5,61.5 C 486.666,977 383.333,949 268,893 l -51,127 c 54,29.333 113.167,52.333 177.5,69 64.333,16.667 128.833,25 193.5,25 130.667,0 227.5,-29 290.5,-87 63,-58 94.5,-151 94.5,-279 L 973,0 850,0 Z M 474.999,117 c 103.333,0 184.501,28.333 243.501,85 59,56.667 88.5,136 88.5,238 l 0,99 -166,-7 C 509,527.33301 413.833,506.833 355.5,470.5 297.167,434.167 268,377.667 268,301 c 0,-60 18.167,-105.667 54.5,-137 36.333,-31.333 87.166,-47 152.499,-47 z"
           transform="matrix(1,0,0,-1,22883.686,19456)" />
        <path
           style="fill:#000000;stroke-width:0"
           id="path62"
           d="m 676,1116 c 48.667,0 92.333,-4 131,-12 L 784,950 C 738.667,960 698.667,965 664,965 575.333,965 499.5,929 436.5,857 373.5,785 342,695.333 342,588 l 0,-588 -166,0 0,1096 137,0 19,-203 8,0 c 40.667,71.333 89.667,126.333 147,165 57.333,38.667 120.333,58 189,58 z"
           transform="matrix(1,0,0,-1,23856.686,19456)" />
        <path
           style="fill:#000000;stroke-width:0"
           id="path64"
           d="m 922,147 -8.99902,0 c -76.667,-111.333 -191.334,-167 -344.001,-167 -143.333,0 -254.833,49 -334.5,147 -79.667,98 -119.5,237.333 -119.5,418 0,180.667 40,321 120,421 80,100 191.333,150 334,150 148.667,0 262.667,-54 342,-162 l 13,0 -7,79 -4,77 0,446 L 1079,1556 1079,0 943.99998,0 Z M 590.001,119 c 113.333,0 195.501,30.834 246.501,92.501 51,61.667 76.5,161.167 76.5,298.5 l 0,35 c 0,155.333 -25.833,266.166 -77.5,332.499 -51.667,66.333 -134.167,99.5 -247.5,99.5 -97.333,0 -171.833,-37.833 -223.5,-113.5 -51.667,-75.667 -77.5,-182.5 -77.5,-320.5 0,-140 25.667,-245.667 77,-317 51.333,-71.333 126.666,-107 225.999,-107 z"
           transform="matrix(1,0,0,-1,24692.686,19456)" />
        <path
           style="fill:#000000;stroke-width:0"
           id="path66"
           d="m 152,106 c 0,44.667 10.166,78.499 30.499,101.499 20.333,23 49.5,34.5 87.5,34.5 38.667,0 68.834,-11.5 90.501,-34.5 21.667,-23 32.5,-56.833 32.5,-101.5 C 393,62.666 382,29.333 360,6 338,-17.333 308,-29 270,-29 236,-29 207.833,-18.5 185.5,2.5 163.167,23.5 152,58 152,106 Z"
           transform="matrix(1,0,0,-1,25947.686,19456)" />
        <path
           style="fill:#000000;stroke-width:0"
           id="path68"
           d="m 1573,0 0,713 c 0,87.333 -18.667,152.833 -56,196.5 -37.333,43.667 -95.333,65.5 -174,65.5 -103.333,0 -179.666,-29.667 -228.999,-89 -49.333,-59.333 -74,-150.666 -74,-273.999 l 0,-612 -165.99995,0 0,713 c 0,87.333 -18.667,152.833 -56,196.5 -37.333,43.667 -95.666,65.5 -174.999,65.5 -104,0 -180.167,-31.167 -228.5,-93.5 -48.333,-62.333 -72.5,-164.5 -72.5,-306.5 l 0,-575 -166,0 0,1096 135,0 27,-150 8,0 c 31.333,53.333 75.5,95 132.5,125 57,30 120.833,45 191.5,45 171.333,0 283.333,-62 335.99995,-186 l 8,0 c 32.667,57.333 80,102.666 142,135.999 62,33.333 132.667,50 212,50 124,0 216.833,-31.833 278.5,-95.5 C 1708.167,956.833 1739,855 1739,715 l 0,-715 -166,0 z"
           transform="matrix(1,0,0,-1,26492.686,19456)" />
        <path
           style="fill:#000000;stroke-width:0"
           id="path70"
           d="m 639,-20 c -162,0 -289.833,49.334 -383.5,148.001 -93.667,98.667 -140.5,235.667 -140.5,411 0,176.667 43.5,317 130.5,421 87,104 203.833,156 350.5,156 137.333,0 246,-45.167 326,-135.5 80,-90.333 120,-209.5 120,-357.5 l 0,-105 -755,0 C 290.33301,389.334 322.833,291.667 384.5,225 446.167,158.333 533,125 645,125 c 118,0 234.667,24.667 350,74 L 995,51 C 936.333,25.667 880.833,7.5 828.5,-3.5 776.167,-14.5 713,-20 639,-20 Z m -45,997.001 c -88,0 -158.167,-28.6689 -210.5,-86.002 C 331.167,833.6659 300.334,754.333 291.001,653 l 573,0 c 0,104.667 -23.333,184.834 -70,240.501 -46.667,55.667 -113.334,83.5 -200.001,83.5 z"
           transform="matrix(1,0,0,-1,28397.686,19456)" />
      </g>
    </g>
    <polygon
       id="polygon74"
       points="0, 10.62993 26.574825, 10.62993 26.574825, 0 33.307114, 0 33.307114, 13.110247000000001 46.417361, 13.110247000000001 46.417361, 0 53.14965, 0 53.14965, 10.62993 74.40951, 10.62993 74.40951, 0 95.66937, 0 95.66937, 10.62993 116.92922999999999, 10.62993 116.92922999999999, 0 138.18909, 0 138.18909, 10.62993 159.44895, 10.62993 159.44895, 0 180.70881, 0 180.70881, 10.62993 201.96867, 10.62993 201.96867, 0 223.22853, 0 223.22853, 10.62993 244.48839, 10.62993 244.48839, 0 251.220679, 0 251.220679, 13.110247000000001 264.330926, 13.110247000000001 264.330926, 0 271.063215, 0 271.063215, 10.62993 297.63804, 10.62993 297.63804, 29.2323075 287.00811, 29.2323075 287.00811, 38.35633075 279.567159, 38.35633075 279.567159, 33.92719325 270.708884, 33.92719325 270.708884, 38.35633075 261.85060899999996, 38.35633075 261.85060899999996, 49.34059175 270.708884, 49.34059175 270.708884, 53.76972925 279.567159, 53.76972925 279.567159, 49.34059175 287.00811, 49.34059175 287.00811, 58.464615 297.63804, 58.464615 297.63804, 79.724475 287.00811, 79.724475 287.00811, 100.984335 297.63804, 100.984335 297.63804, 122.24419499999999 287.00811, 122.24419499999999 287.00811, 143.504055 297.63804, 143.504055 297.63804, 164.763915 287.00811, 164.763915 287.00811, 173.88793825000002 279.567159, 173.88793825000002 279.567159, 169.45880075000002 270.708884, 169.45880075000002 270.708884, 173.88793825000002 261.85060899999996, 173.88793825000002 261.85060899999996, 184.87219925000002 270.708884, 184.87219925000002 270.708884, 189.30133675000002 279.567159, 189.30133675000002 279.567159, 184.87219925000002 287.00811, 184.87219925000002 287.00811, 193.9962225 297.63804, 193.9962225 297.63804, 212.5986 271.063215, 212.5986 271.063215, 223.22853 264.330926, 223.22853 264.330926, 210.11828300000002 251.220679, 210.11828300000002 251.220679, 223.22853 244.48839, 223.22853 244.48839, 212.5986 223.22853, 212.5986 223.22853, 223.22853 201.96867, 223.22853 201.96867, 212.5986 180.70881, 212.5986 180.70881, 223.22853 159.44895, 223.22853 159.44895, 212.5986 138.18909, 212.5986 138.18909, 223.22853 116.92922999999999, 223.22853 116.92922999999999, 212.5986 95.66937, 212.5986 95.66937, 223.22853 74.40951, 223.22853 74.40951, 212.5986 53.14965, 212.5986 53.14965, 223.22853 46.417361, 223.22853 46.417361, 210.11828300000002 33.307114, 210.11828300000002 33.307114, 223.22853 26.574825, 223.22853 26.574825, 212.5986 0, 212.5986 0, 193.9962225 10.62993, 193.9962225 10.62993, 184.87219925000002 18.070881, 184.87219925000002 18.070881, 189.30133675000002 26.929156, 189.30133675000002 26.929156, 184.87219925000002 35.787431, 184.87219925000002 35.787431, 173.88793825000002 26.929156, 173.88793825000002 26.929156, 169.45880075000002 18.070881, 169.45880075000002 18.070881, 173.88793825000002 10.62993, 173.88793825000002 10.62993, 164.763915 0, 164.763915 0, 143.504055 10.62993, 143.504055 10.62993, 122.24419499999999 0, 122.24419499999999 0, 100.984335 10.62993, 100.984335 10.62993, 79.724475 0, 79.724475 0, 58.464615 10.62993, 58.464615 10.62993, 49.34059175 18.070881, 49.34059175 18.070881, 53.76972925 26.929156, 53.76972925 26.929156, 49.34059175 35.787431, 49.34059175 35.787431, 38.35633075 26.929156, 38.35633075 26.929156, 33.92719325 18.070881, 33.92719325 18.070881, 38.35633075 10.62993, 38.35633075 10.62993, 29.2323075 0, 29.2323075 "
       style="stroke:#000000; fill:none; stroke-width:0.90000074" />
  </g>
  <circle
     r="9.0000076"
     id="circle8-3"
     style="fill:none;stroke:#000000;stroke-width:0.72927731"
     cy="64.441444"
     cx="420.8295" />
  <use
     id="use3625"
     xlink:href="#circle8-3"
     y="0"
     x="0" />
  <use
     id="use3627"
     transform="translate(0,24.348041)"
     xlink:href="#circle8-3"
     y="0"
     x="0" />
  <use
     id="use3629"
     transform="translate(0,48.696081)"
     xlink:href="#circle8-3"
     y="0"
     x="0" />
  <use
     id="use3631"
     transform="translate(24.348041,0)"
     xlink:href="#circle8-3"
     y="0"
     x="0" />
  <use
     id="use3633"
     transform="translate(24.348041,24.348041)"
     xlink:href="#circle8-3"
     y="0"
     x="0" />
  <use
     id="use3635"
     transform="translate(24.348041,48.696081)"
     xlink:href="#circle8-3"
     y="0"
     x="0" />
  <use
     id="use3637"
     transform="translate(48.696081,0)"
     xlink:href="#circle8-3"
     y="0"
     x="0" />
  <use
     id="use3639"
     transform="translate(48.696081,24.348041)"
     xlink:href="#circle8-3"
     y="0"
     x="0" />
  <use
     id="use3641"
     transform="translate(48.696081,48.696081)"
     xlink:href="#circle8-3"
     y="0"
     x="0" />
  <use
     id="use3643"
     transform="translate(73.044122,0)"
     xlink:href="#circle8-3"
     y="0"
     x="0" />
  <use
     id="use3645"
     transform="translate(73.044122,24.348041)"
     xlink:href="#circle8-3"
     y="0"
     x="0" />
  <use
     id="use3647"
     transform="translate(73.044122,48.696081)"
     xlink:href="#circle8-3"
     y="0"
     x="0" />
  <use
     id="use3649"
     transform="translate(97.392162,0)"
     xlink:href="#circle8-3"
     y="0"
     x="0" />
  <use
     id="use3651"
     transform="translate(97.392162,24.348041)"
     xlink:href="#circle8-3"
     y="0"
     x="0" />
  <use
     id="use3653"
     transform="translate(97.392162,48.696081)"
     xlink:href="#circle8-3"
     y="0"
     x="0" />
</svg>
