  0
SECTION
  2
HEADER
  9
$ACADVER
  1
AC1014
  9
$HANDSEED
  5
FFFF
  9
$MEASUREMENT
 70
     1
  0
ENDSEC
  0
SECTION
  2
TABLES
  0
TABLE
  2
VPORT
  5
8
330
0
100
AcDbSymbolTable
 70
     4
  0
VPORT
  5
2E
330
8
100
AcDbSymbolTableRecord
100
AcDbViewportTableRecord
  2
*ACTIVE
 70
     0
 10
0.0
 20
0.0
 11
1.0
 21
1.0
 12
210.0
 22
148.5
 13
0.0
 23
0.0
 14
10.0
 24
10.0
 15
10.0
 25
10.0
 16
0.0
 26
0.0
 36
1.0
 17
0.0
 27
0.0
 37
0.0
 40
341.0
 41
1.24
 42
50.0
 43
0.0
 44
0.0
 50
0.0
 51
0.0
 71
     0
 72
   100
 73
     1
 74
     3
 75
     0
 76
     0
 77
     0
 78
     0
  0
ENDTAB
  0
TABLE
  2
LTYPE
  5
5
330
0
100
AcDbSymbolTable
 70
     1
  0
LTYPE
  5
14
330
5
100
AcDbSymbolTableRecord
100
AcDbLinetypeTableRecord
  2
BYBLOCK
 70
     0
  3

 72
    65
 73
     0
 40
0.0
  0
LTYPE
  5
15
330
5
100
AcDbSymbolTableRecord
100
AcDbLinetypeTableRecord
  2
BYLAYER
 70
     0
  3

 72
    65
 73
     0
 40
0.0
  0
LTYPE
  5
16
330
5
100
AcDbSymbolTableRecord
100
AcDbLinetypeTableRecord
  2
CONTINUOUS
 70
     0
  3
Solid line
 72
    65
 73
     0
 40
0.0
  0
ENDTAB
  0
TABLE
  2
LAYER
  5
2
100
AcDbSymbolTable
 70
1
  0
LAYER
  5
50
100
AcDbSymbolTableRecord
100
AcDbLayerTableRecord
  2
0
 70
0
  6
CONTINUOUS
  0
ENDTAB
  0
TABLE
  2
STYLE
  5
3
330
0
100
AcDbSymbolTable
 70
     1
  0
STYLE
  5
11
330
3
100
AcDbSymbolTableRecord
100
AcDbTextStyleTableRecord
  2
STANDARD
 70
     0
 40
0.0
 41
1.0
 50
0.0
 71
     0
 42
2.5
  3
txt
  4

  0
ENDTAB
  0
TABLE
  2
VIEW
  5
6
330
0
100
AcDbSymbolTable
 70
     0
  0
ENDTAB
  0
TABLE
  2
UCS
  5
7
330
0
100
AcDbSymbolTable
 70
     0
  0
ENDTAB
  0
TABLE
  2
APPID
  5
9
330
0
100
AcDbSymbolTable
 70
     2
  0
APPID
  5
12
330
9
100
AcDbSymbolTableRecord
100
AcDbRegAppTableRecord
  2
ACAD
 70
     0
  0
ENDTAB
  0
TABLE
  2
DIMSTYLE
  5
A
330
0
100
AcDbSymbolTable
 70
     1
  0
DIMSTYLE
105
27
330
A
100
AcDbSymbolTableRecord
100
AcDbDimStyleTableRecord
  2
ISO-25
 70
     0
  3

  4

  5

  6

  7

 40
1.0
 41
2.5
 42
0.625
 43
3.75
 44
1.25
 45
0.0
 46
0.0
 47
0.0
 48
0.0
140
2.5
141
2.5
142
0.0
143
0.03937007874016
144
1.0
145
0.0
146
1.0
147
0.625
 71
     0
 72
     0
 73
     0
 74
     0
 75
     0
 76
     0
 77
     1
 78
     8
170
     0
171
     3
172
     1
173
     0
174
     0
175
     0
176
     0
177
     0
178
     0
270
     2
271
     2
272
     2
273
     2
274
     3
340
11
275
     0
280
     0
281
     0
282
     0
283
     0
284
     8
285
     0
286
     0
287
     3
288
     0
  0
ENDTAB
  0
TABLE
  2
BLOCK_RECORD
  5
1
330
0
100
AcDbSymbolTable
 70
     1
  0
BLOCK_RECORD
  5
1F
330
1
100
AcDbSymbolTableRecord
100
AcDbBlockTableRecord
  2
*MODEL_SPACE
  0
BLOCK_RECORD
  5
1B
330
1
100
AcDbSymbolTableRecord
100
AcDbBlockTableRecord
  2
*PAPER_SPACE
  0
ENDTAB
  0
ENDSEC
  0
SECTION
  2
BLOCKS
  0
BLOCK
  5
20
330
1F
100
AcDbEntity
  8
0
100
AcDbBlockBegin
  2
*MODEL_SPACE
 70
     0
 10
0.0
 20
0.0
 30
0.0
  3
*MODEL_SPACE
  1

  0
ENDBLK
  5
21
330
1F
100
AcDbEntity
  8
0
100
AcDbBlockEnd
  0
BLOCK
  5
1C
330
1B
100
AcDbEntity
 67
     1
  8
0
100
AcDbBlockBegin
  2
*PAPER_SPACE
  1

  0
ENDBLK
  5
1D
330
1B
100
AcDbEntity
 67
     1
  8
0
100
AcDbBlockEnd
  0
ENDSEC
  0
SECTION
  2
ENTITIES
  0
LWPOLYLINE
  5
100
100
AcDbEntity
  8
0
 62
7
100
AcDbPolyline
 90
5
 70
1
 10
541.550285
 20
281.721673
 30
0.0
 10
626.589941
 20
281.721673
 30
0.0
 10
626.589941
 20
264.713744
 30
0.0
 10
541.550285
 20
264.713744
 30
0.0
 10
541.550285
 20
281.721673
 30
0.0
  0
LWPOLYLINE
  5
101
100
AcDbEntity
  8
0
 62
7
100
AcDbPolyline
 90
5
 70
1
 10
541.189488
 20
257.319604
 30
0.0
 10
626.229072
 20
257.319604
 30
0.0
 10
626.229072
 20
240.311690
 30
0.0
 10
541.189488
 20
240.311690
 30
0.0
 10
541.189488
 20
257.319604
 30
0.0
  0
LWPOLYLINE
  5
102
100
AcDbEntity
  8
0
 62
7
100
AcDbPolyline
 90
5
 70
1
 10
541.296404
 20
233.360302
 30
0.0
 10
626.335916
 20
233.360302
 30
0.0
 10
626.335916
 20
216.352401
 30
0.0
 10
541.296404
 20
216.352401
 30
0.0
 10
541.296404
 20
233.360302
 30
0.0
  0
LWPOLYLINE
  5
103
100
AcDbEntity
  8
0
 62
7
100
AcDbPolyline
 90
5
 70
1
 10
539.961638
 20
130.935264
 30
0.0
 10
625.001078
 20
130.935264
 30
0.0
 10
625.001078
 20
113.927377
 30
0.0
 10
539.961638
 20
113.927377
 30
0.0
 10
539.961638
 20
130.935264
 30
0.0
  0
LWPOLYLINE
  5
104
100
AcDbEntity
  8
0
 62
7
100
AcDbPolyline
 90
5
 70
1
 10
541.027974
 20
179.328460
 30
0.0
 10
626.067414
 20
179.328460
 30
0.0
 10
626.067414
 20
162.320573
 30
0.0
 10
541.027974
 20
162.320573
 30
0.0
 10
541.027974
 20
179.328460
 30
0.0
  0
SPLINE
  5
105
100
AcDbEntity
  8
0
 62
7
100
AcDbSpline
 70
8
 71
3
 72
8
 73
4
 74
0
 40
0
 40
0
 40
0
 40
0
 40
1
 40
1
 40
1
 40
1
 10
194.560666
 20
56.548867
 30
0.0
 10
194.560666
 20
57.544611
 30
0.0
 10
195.218891
 20
58.317923
 30
0.0
 10
196.535327
 20
58.868811
 30
0.0
  0
SPLINE
  5
106
100
AcDbEntity
  8
0
 62
7
100
AcDbSpline
 70
8
 71
3
 72
8
 73
4
 74
0
 40
0
 40
0
 40
0
 40
0
 40
1
 40
1
 40
1
 40
1
 10
196.535327
 20
58.868811
 30
0.0
 10
197.851764
 20
59.419699
 30
0.0
 10
199.714867
 20
59.695139
 30
0.0
 10
202.124623
 20
59.695139
 30
0.0
  0
SPLINE
  5
107
100
AcDbEntity
  8
0
 62
7
100
AcDbSpline
 70
8
 71
3
 72
8
 73
4
 74
0
 40
0
 40
0
 40
0
 40
0
 40
1
 40
1
 40
1
 40
1
 10
202.124623
 20
59.695139
 30
0.0
 10
204.534379
 20
59.695139
 30
0.0
 10
206.406397
 20
59.417389
 30
0.0
 10
207.740693
 20
58.861896
 30
0.0
  0
SPLINE
  5
108
100
AcDbEntity
  8
0
 62
7
100
AcDbSpline
 70
8
 71
3
 72
8
 73
4
 74
0
 40
0
 40
0
 40
0
 40
0
 40
1
 40
1
 40
1
 40
1
 10
207.740693
 20
58.861896
 30
0.0
 10
209.074988
 20
58.306402
 30
0.0
 10
209.742129
 20
57.535393
 30
0.0
 10
209.742129
 20
56.548867
 30
0.0
  0
SPLINE
  5
109
100
AcDbEntity
  8
0
 62
7
100
AcDbSpline
 70
8
 71
3
 72
8
 73
4
 74
0
 40
0
 40
0
 40
0
 40
0
 40
1
 40
1
 40
1
 40
1
 10
209.742129
 20
56.548867
 30
0.0
 10
209.742129
 20
56.055608
 30
0.0
 10
209.565855
 20
55.604986
 30
0.0
 10
209.213321
 20
55.197008
 30
0.0
  0
SPLINE
  5
10a
100
AcDbEntity
  8
0
 62
7
100
AcDbSpline
 70
8
 71
3
 72
8
 73
4
 74
0
 40
0
 40
0
 40
0
 40
0
 40
1
 40
1
 40
1
 40
1
 10
209.213321
 20
55.197008
 30
0.0
 10
208.860787
 20
54.789030
 30
0.0
 10
208.318592
 20
54.446743
 30
0.0
 10
207.586736
 20
54.170148
 30
0.0
  0
LWPOLYLINE
  5
10b
100
AcDbEntity
  8
0
 62
7
100
AcDbPolyline
 90
5
 70
1
 10
540.325435
 20
155.304774
 30
0.0
 10
625.364875
 20
155.304774
 30
0.0
 10
625.364875
 20
138.296886
 30
0.0
 10
540.325435
 20
138.296886
 30
0.0
 10
540.325435
 20
155.304774
 30
0.0
  0
SPLINE
  5
10c
100
AcDbEntity
  8
0
 62
7
100
AcDbSpline
 70
8
 71
3
 72
8
 73
4
 74
0
 40
0
 40
0
 40
0
 40
0
 40
1
 40
1
 40
1
 40
1
 10
193.703864
 20
54.170148
 30
0.0
 10
194.837346
 20
54.170148
 30
0.0
 10
195.854799
 20
54.151706
 30
0.0
 10
196.756222
 20
54.114829
 30
0.0
  0
LWPOLYLINE
  5
10d
100
AcDbEntity
  8
0
 62
7
100
AcDbPolyline
 90
7
 70
1
 10
207.586736
 20
54.170148
 30
0.0
 10
207.586736
 20
54.087169
 30
0.0
 10
209.474378
 20
53.845148
 30
0.0
 10
209.474378
 20
53.022277
 30
0.0
 10
188.643377
 20
53.022277
 30
0.0
 10
188.643377
 20
54.170148
 30
0.0
 10
193.703864
 20
54.170148
 30
0.0
  0
SPLINE
  5
10e
100
AcDbEntity
  8
0
 62
7
100
AcDbSpline
 70
8
 71
3
 72
8
 73
4
 74
0
 40
0
 40
0
 40
0
 40
0
 40
1
 40
1
 40
1
 40
1
 10
196.756222
 20
54.170148
 30
0.0
 10
195.292523
 20
54.704896
 30
0.0
 10
194.560666
 20
55.497805
 30
0.0
 10
194.560666
 20
56.548867
 30
0.0
  0
LWPOLYLINE
  5
10f
100
AcDbEntity
  8
0
 62
7
100
AcDbPolyline
 90
2
 70
1
 10
196.756222
 20
54.114829
 30
0.0
 10
196.756222
 20
54.170148
 30
0.0
  0
SPLINE
  5
110
100
AcDbEntity
  8
0
 62
7
100
AcDbSpline
 70
8
 71
3
 72
8
 73
4
 74
0
 40
0
 40
0
 40
0
 40
0
 40
1
 40
1
 40
1
 40
1
 10
196.421533
 20
56.382910
 30
0.0
 10
196.421533
 20
55.599226
 30
0.0
 10
196.856615
 20
55.034515
 30
0.0
 10
197.726804
 20
54.688771
 30
0.0
  0
SPLINE
  5
111
100
AcDbEntity
  8
0
 62
7
100
AcDbSpline
 70
8
 71
3
 72
8
 73
4
 74
0
 40
0
 40
0
 40
0
 40
0
 40
1
 40
1
 40
1
 40
1
 10
197.726804
 20
54.688771
 30
0.0
 10
198.596994
 20
54.343027
 30
0.0
 10
200.062929
 20
54.170154
 30
0.0
 10
202.124609
 20
54.170154
 30
0.0
  0
SPLINE
  5
112
100
AcDbEntity
  8
0
 62
7
100
AcDbSpline
 70
8
 71
3
 72
8
 73
4
 74
0
 40
0
 40
0
 40
0
 40
0
 40
1
 40
1
 40
1
 40
1
 10
202.124609
 20
54.170154
 30
0.0
 10
204.186289
 20
54.170154
 30
0.0
 10
205.661154
 20
54.347639
 30
0.0
 10
206.549189
 20
54.702600
 30
0.0
  0
SPLINE
  5
113
100
AcDbEntity
  8
0
 62
7
100
AcDbSpline
 70
8
 71
3
 72
8
 73
4
 74
0
 40
0
 40
0
 40
0
 40
0
 40
1
 40
1
 40
1
 40
1
 10
206.549189
 20
54.702600
 30
0.0
 10
207.437224
 20
55.057562
 30
0.0
 10
207.881248
 20
55.626885
 30
0.0
 10
207.881248
 20
56.410570
 30
0.0
  0
SPLINE
  5
114
100
AcDbEntity
  8
0
 62
7
100
AcDbSpline
 70
8
 71
3
 72
8
 73
4
 74
0
 40
0
 40
0
 40
0
 40
0
 40
1
 40
1
 40
1
 40
1
 10
207.881248
 20
56.410570
 30
0.0
 10
207.881248
 20
57.115888
 30
0.0
 10
207.383674
 20
57.641419
 30
0.0
 10
206.388538
 20
57.987163
 30
0.0
  0
SPLINE
  5
115
100
AcDbEntity
  8
0
 62
7
100
AcDbSpline
 70
8
 71
3
 72
8
 73
4
 74
0
 40
0
 40
0
 40
0
 40
0
 40
1
 40
1
 40
1
 40
1
 10
206.388538
 20
57.987163
 30
0.0
 10
205.393403
 20
58.332907
 30
0.0
 10
203.963173
 20
58.505779
 30
0.0
 10
202.097847
 20
58.505779
 30
0.0
  0
SPLINE
  5
116
100
AcDbEntity
  8
0
 62
7
100
AcDbSpline
 70
8
 71
3
 72
8
 73
4
 74
0
 40
0
 40
0
 40
0
 40
0
 40
1
 40
1
 40
1
 40
1
 10
202.097847
 20
58.505779
 30
0.0
 10
200.187888
 20
58.505779
 30
0.0
 10
198.764352
 20
58.332907
 30
0.0
 10
197.827224
 20
57.987163
 30
0.0
  0
SPLINE
  5
117
100
AcDbEntity
  8
0
 62
7
100
AcDbSpline
 70
8
 71
3
 72
8
 73
4
 74
0
 40
0
 40
0
 40
0
 40
0
 40
1
 40
1
 40
1
 40
1
 10
197.827224
 20
57.987163
 30
0.0
 10
196.890097
 20
57.641419
 30
0.0
 10
196.421533
 20
57.106670
 30
0.0
 10
196.421533
 20
56.382910
 30
0.0
  0
LWPOLYLINE
  5
118
100
AcDbEntity
  8
0
 62
7
100
AcDbPolyline
 90
2
 70
1
 10
194.560666
 20
56.548867
 30
0.0
 10
194.560666
 20
56.548867
 30
0.0
  0
SPLINE
  5
119
100
AcDbEntity
  8
0
 62
7
100
AcDbSpline
 70
8
 71
3
 72
8
 73
4
 74
0
 40
0
 40
0
 40
0
 40
0
 40
1
 40
1
 40
1
 40
1
 10
194.533891
 20
65.157897
 30
0.0
 10
194.533891
 20
65.494424
 30
0.0
 10
194.587441
 20
65.796369
 30
0.0
 10
194.694542
 20
66.063747
 30
0.0
  0
LWPOLYLINE
  5
11a
100
AcDbEntity
  8
0
 62
7
100
AcDbPolyline
 90
2
 70
1
 10
196.421533
 20
56.382910
 30
0.0
 10
196.421533
 20
56.382910
 30
0.0
  0
SPLINE
  5
11b
100
AcDbEntity
  8
0
 62
7
100
AcDbSpline
 70
8
 71
3
 72
8
 73
4
 74
0
 40
0
 40
0
 40
0
 40
0
 40
1
 40
1
 40
1
 40
1
 10
196.756222
 20
65.904704
 30
0.0
 10
196.622346
 20
65.591232
 30
0.0
 10
196.555409
 20
65.314637
 30
0.0
 10
196.555409
 20
65.074918
 30
0.0
  0
SPLINE
  5
11c
100
AcDbEntity
  8
0
 62
7
100
AcDbSpline
 70
8
 71
3
 72
8
 73
4
 74
0
 40
0
 40
0
 40
0
 40
0
 40
1
 40
1
 40
1
 40
1
 10
196.555409
 20
65.074918
 30
0.0
 10
196.555409
 20
64.461796
 30
0.0
 10
197.037360
 20
63.937420
 30
0.0
 10
198.001262
 20
63.501782
 30
0.0
  0
SPLINE
  5
11d
100
AcDbEntity
  8
0
 62
7
100
AcDbSpline
 70
8
 71
3
 72
8
 73
4
 74
0
 40
0
 40
0
 40
0
 40
0
 40
1
 40
1
 40
1
 40
1
 10
198.001262
 20
63.501782
 30
0.0
 10
198.965165
 20
63.066145
 30
0.0
 10
200.165585
 20
62.848326
 30
0.0
 10
201.602509
 20
62.848326
 30
0.0
  0
LWPOLYLINE
  5
11e
100
AcDbEntity
  8
0
 62
7
100
AcDbPolyline
 90
2
 70
1
 10
194.694542
 20
66.063747
 30
0.0
 10
196.756222
 20
65.904704
 30
0.0
  0
SPLINE
  5
11f
100
AcDbEntity
  8
0
 62
7
100
AcDbSpline
 70
8
 71
3
 72
8
 73
4
 74
0
 40
0
 40
0
 40
0
 40
0
 40
1
 40
1
 40
1
 40
1
 10
197.519311
 20
62.834496
 30
0.0
 10
196.564338
 20
63.115704
 30
0.0
 10
195.828024
 20
63.454533
 30
0.0
 10
195.310368
 20
63.850984
 30
0.0
  0
SPLINE
  5
120
100
AcDbEntity
  8
0
 62
7
100
AcDbSpline
 70
8
 71
3
 72
8
 73
4
 74
0
 40
0
 40
0
 40
0
 40
0
 40
1
 40
1
 40
1
 40
1
 10
195.310368
 20
63.850984
 30
0.0
 10
194.792712
 20
64.247435
 30
0.0
 10
194.533891
 20
64.683073
 30
0.0
 10
194.533891
 20
65.157897
 30
0.0
  0
LWPOLYLINE
  5
121
100
AcDbEntity
  8
0
 62
7
100
AcDbPolyline
 90
7
 70
1
 10
201.602509
 20
62.848326
 30
0.0
 10
209.474378
 20
62.848326
 30
0.0
 10
209.474378
 20
61.700455
 30
0.0
 10
194.801642
 20
61.700455
 30
0.0
 10
194.801642
 20
62.647794
 30
0.0
 10
197.519311
 20
62.779177
 30
0.0
 10
197.519311
 20
62.834496
 30
0.0
  0
SPLINE
  5
122
100
AcDbEntity
  8
0
 62
7
100
AcDbSpline
 70
8
 71
3
 72
8
 73
4
 74
0
 40
0
 40
0
 40
0
 40
0
 40
1
 40
1
 40
1
 40
1
 10
209.742129
 20
70.682889
 30
0.0
 10
209.742129
 20
69.562677
 30
0.0
 10
209.081668
 20
68.678727
 30
0.0
 10
207.760761
 20
68.031031
 30
0.0
  0
SPLINE
  5
123
100
AcDbEntity
  8
0
 62
7
100
AcDbSpline
 70
8
 71
3
 72
8
 73
4
 74
0
 40
0
 40
0
 40
0
 40
0
 40
1
 40
1
 40
1
 40
1
 10
207.760761
 20
68.031031
 30
0.0
 10
206.439853
 20
67.383334
 30
0.0
 10
204.605761
 20
67.059490
 30
0.0
 10
202.258484
 20
67.059490
 30
0.0
  0
SPLINE
  5
124
100
AcDbEntity
  8
0
 62
7
100
AcDbSpline
 70
8
 71
3
 72
8
 73
4
 74
0
 40
0
 40
0
 40
0
 40
0
 40
1
 40
1
 40
1
 40
1
 10
202.258484
 20
67.059490
 30
0.0
 10
199.893349
 20
67.059490
 30
0.0
 10
198.014636
 20
67.360287
 30
0.0
 10
196.622333
 20
67.961882
 30
0.0
  0
SPLINE
  5
125
100
AcDbEntity
  8
0
 62
7
100
AcDbSpline
 70
8
 71
3
 72
8
 73
4
 74
0
 40
0
 40
0
 40
0
 40
0
 40
1
 40
1
 40
1
 40
1
 10
196.622333
 20
67.961882
 30
0.0
 10
195.230030
 20
68.563477
 30
0.0
 10
194.533878
 20
69.371363
 30
0.0
 10
194.533878
 20
70.385549
 30
0.0
  0
SPLINE
  5
126
100
AcDbEntity
  8
0
 62
7
100
AcDbSpline
 70
8
 71
3
 72
8
 73
4
 74
0
 40
0
 40
0
 40
0
 40
0
 40
1
 40
1
 40
1
 40
1
 10
194.533878
 20
70.385549
 30
0.0
 10
194.533878
 20
71.335190
 30
0.0
 10
195.138553
 20
72.086610
 30
0.0
 10
196.347889
 20
72.639800
 30
0.0
  0
SPLINE
  5
127
100
AcDbEntity
  8
0
 62
7
100
AcDbSpline
 70
8
 71
3
 72
8
 73
4
 74
0
 40
0
 40
0
 40
0
 40
0
 40
1
 40
1
 40
1
 40
1
 10
196.347889
 20
72.639800
 30
0.0
 10
197.557225
 20
73.192991
 30
0.0
 10
199.152577
 20
73.469586
 30
0.0
 10
201.133932
 20
73.469586
 30
0.0
  0
LWPOLYLINE
  5
128
100
AcDbEntity
  8
0
 62
7
100
AcDbPolyline
 90
2
 70
1
 10
194.533891
 20
65.157897
 30
0.0
 10
194.533891
 20
65.157897
 30
0.0
  0
SPLINE
  5
129
100
AcDbEntity
  8
0
 62
7
100
AcDbSpline
 70
8
 71
3
 72
8
 73
4
 74
0
 40
0
 40
0
 40
0
 40
0
 40
1
 40
1
 40
1
 40
1
 10
202.539623
 20
68.248850
 30
0.0
 10
204.262156
 20
68.271897
 30
0.0
 10
205.569677
 20
68.496631
 30
0.0
 10
206.462183
 20
68.923051
 30
0.0
  0
SPLINE
  5
12a
100
AcDbEntity
  8
0
 62
7
100
AcDbSpline
 70
8
 71
3
 72
8
 73
4
 74
0
 40
0
 40
0
 40
0
 40
0
 40
1
 40
1
 40
1
 40
1
 10
206.462183
 20
68.923051
 30
0.0
 10
207.354690
 20
69.349471
 30
0.0
 10
207.800937
 20
69.949911
 30
0.0
 10
207.800937
 20
70.724378
 30
0.0
  0
SPLINE
  5
12b
100
AcDbEntity
  8
0
 62
7
100
AcDbSpline
 70
8
 71
3
 72
8
 73
4
 74
0
 40
0
 40
0
 40
0
 40
0
 40
1
 40
1
 40
1
 40
1
 10
207.800937
 20
70.724378
 30
0.0
 10
207.800937
 20
71.540334
 30
0.0
 10
207.470706
 20
72.347073
 30
0.0
 10
206.810259
 20
73.144587
 30
0.0
  0
LWPOLYLINE
  5
12c
100
AcDbEntity
  8
0
 62
7
100
AcDbPolyline
 90
3
 70
1
 10
201.133932
 20
73.469586
 30
0.0
 10
202.539623
 20
73.469586
 30
0.0
 10
202.539623
 20
68.248850
 30
0.0
  0
SPLINE
  5
12d
100
AcDbEntity
  8
0
 62
7
100
AcDbSpline
 70
8
 71
3
 72
8
 73
4
 74
0
 40
0
 40
0
 40
0
 40
0
 40
1
 40
1
 40
1
 40
1
 10
208.791614
 20
73.144587
 30
0.0
 10
209.130760
 20
72.738911
 30
0.0
 10
209.373972
 20
72.355135
 30
0.0
 10
209.521235
 20
71.993259
 30
0.0
  0
SPLINE
  5
12e
100
AcDbEntity
  8
0
 62
7
100
AcDbSpline
 70
8
 71
3
 72
8
 73
4
 74
0
 40
0
 40
0
 40
0
 40
0
 40
1
 40
1
 40
1
 40
1
 10
209.521235
 20
71.993259
 30
0.0
 10
209.668498
 20
71.631382
 30
0.0
 10
209.742129
 20
71.194590
 30
0.0
 10
209.742129
 20
70.682889
 30
0.0
  0
LWPOLYLINE
  5
12f
100
AcDbEntity
  8
0
 62
7
100
AcDbPolyline
 90
2
 70
1
 10
206.810259
 20
73.144587
 30
0.0
 10
208.791614
 20
73.144587
 30
0.0
  0
SPLINE
  5
130
100
AcDbEntity
  8
0
 62
7
100
AcDbSpline
 70
8
 71
3
 72
8
 73
4
 74
0
 40
0
 40
0
 40
0
 40
0
 40
1
 40
1
 40
1
 40
1
 10
196.394745
 20
70.371719
 30
0.0
 10
196.394745
 20
69.763209
 30
0.0
 10
196.778551
 20
69.278012
 30
0.0
 10
197.546100
 20
68.916136
 30
0.0
  0
SPLINE
  5
131
100
AcDbEntity
  8
0
 62
7
100
AcDbSpline
 70
8
 71
3
 72
8
 73
4
 74
0
 40
0
 40
0
 40
0
 40
0
 40
1
 40
1
 40
1
 40
1
 10
197.546100
 20
68.916136
 30
0.0
 10
198.313648
 20
68.554259
 30
0.0
 10
199.375720
 20
68.341053
 30
0.0
 10
200.732319
 20
68.276516
 30
0.0
  0
LWPOLYLINE
  5
132
100
AcDbEntity
  8
0
 62
7
100
AcDbPolyline
 90
2
 70
1
 10
209.742129
 20
70.682889
 30
0.0
 10
209.742129
 20
70.682889
 30
0.0
  0
SPLINE
  5
133
100
AcDbEntity
  8
0
 62
7
100
AcDbSpline
 70
8
 71
3
 72
8
 73
4
 74
0
 40
0
 40
0
 40
0
 40
0
 40
1
 40
1
 40
1
 40
1
 10
200.732319
 20
72.238744
 30
0.0
 10
199.331086
 20
72.238744
 30
0.0
 10
198.257848
 20
72.077399
 30
0.0
 10
197.512604
 20
71.754702
 30
0.0
  0
SPLINE
  5
134
100
AcDbEntity
  8
0
 62
7
100
AcDbSpline
 70
8
 71
3
 72
8
 73
4
 74
0
 40
0
 40
0
 40
0
 40
0
 40
1
 40
1
 40
1
 40
1
 10
197.512604
 20
71.754702
 30
0.0
 10
196.767360
 20
71.432005
 30
0.0
 10
196.394745
 20
70.971011
 30
0.0
 10
196.394745
 20
70.371719
 30
0.0
  0
LWPOLYLINE
  5
135
100
AcDbEntity
  8
0
 62
7
100
AcDbPolyline
 90
2
 70
1
 10
200.732319
 20
68.276516
 30
0.0
 10
200.732319
 20
72.238744
 30
0.0
  0
LWPOLYLINE
  5
136
100
AcDbEntity
  8
0
 62
7
100
AcDbPolyline
 90
2
 70
1
 10
196.394745
 20
70.371719
 30
0.0
 10
196.394745
 20
70.371719
 30
0.0
  0
SPLINE
  5
137
100
AcDbEntity
  8
0
 62
7
100
AcDbSpline
 70
8
 71
3
 72
8
 73
4
 74
0
 40
0
 40
0
 40
0
 40
0
 40
1
 40
1
 40
1
 40
1
 10
207.385923
 20
79.803612
 30
0.0
 10
208.305205
 20
79.425597
 30
0.0
 10
208.927725
 20
79.048735
 30
0.0
 10
209.253484
 20
78.673029
 30
0.0
  0
SPLINE
  5
138
100
AcDbEntity
  8
0
 62
7
100
AcDbSpline
 70
8
 71
3
 72
8
 73
4
 74
0
 40
0
 40
0
 40
0
 40
0
 40
1
 40
1
 40
1
 40
1
 10
209.253484
 20
78.673029
 30
0.0
 10
209.579243
 20
78.297323
 30
0.0
 10
209.742129
 20
77.828265
 30
0.0
 10
209.742129
 20
77.265857
 30
0.0
  0
SPLINE
  5
139
100
AcDbEntity
  8
0
 62
7
100
AcDbSpline
 70
8
 71
3
 72
8
 73
4
 74
0
 40
0
 40
0
 40
0
 40
0
 40
1
 40
1
 40
1
 40
1
 10
209.742129
 20
77.265857
 30
0.0
 10
209.742129
 20
76.514438
 30
0.0
 10
209.367278
 20
75.925518
 30
0.0
 10
208.617576
 20
75.499098
 30
0.0
  0
SPLINE
  5
13a
100
AcDbEntity
  8
0
 62
7
100
AcDbSpline
 70
8
 71
3
 72
8
 73
4
 74
0
 40
0
 40
0
 40
0
 40
0
 40
1
 40
1
 40
1
 40
1
 10
208.617576
 20
75.499098
 30
0.0
 10
207.867874
 20
75.072678
 30
0.0
 10
206.801330
 20
74.859471
 30
0.0
 10
205.417956
 20
74.859471
 30
0.0
  0
SPLINE
  5
13b
100
AcDbEntity
  8
0
 62
7
100
AcDbSpline
 70
8
 71
3
 72
8
 73
4
 74
0
 40
0
 40
0
 40
0
 40
0
 40
1
 40
1
 40
1
 40
1
 10
205.417956
 20
74.859471
 30
0.0
 10
202.454853
 20
74.859471
 30
0.0
 10
200.901899
 20
76.083405
 30
0.0
 10
200.759094
 20
78.531274
 30
0.0
  0
LWPOLYLINE
  5
13c
100
AcDbEntity
  8
0
 62
7
100
AcDbPolyline
 90
3
 70
1
 10
209.474378
 20
80.087130
 30
0.0
 10
207.385923
 20
79.858932
 30
0.0
 10
207.385923
 20
79.803612
 30
0.0
  0
SPLINE
  5
13d
100
AcDbEntity
  8
0
 62
7
100
AcDbSpline
 70
8
 71
3
 72
8
 73
4
 74
0
 40
0
 40
0
 40
0
 40
0
 40
1
 40
1
 40
1
 40
1
 10
199.768417
 20
79.817442
 30
0.0
 10
198.617089
 20
79.817442
 30
0.0
 10
197.766980
 20
79.689517
 30
0.0
 10
197.218092
 20
79.433666
 30
0.0
  0
SPLINE
  5
13e
100
AcDbEntity
  8
0
 62
7
100
AcDbSpline
 70
8
 71
3
 72
8
 73
4
 74
0
 40
0
 40
0
 40
0
 40
0
 40
1
 40
1
 40
1
 40
1
 10
197.218092
 20
79.433666
 30
0.0
 10
196.669203
 20
79.177816
 30
0.0
 10
196.394758
 20
78.768683
 30
0.0
 10
196.394758
 20
78.206274
 30
0.0
  0
SPLINE
  5
13f
100
AcDbEntity
  8
0
 62
7
100
AcDbSpline
 70
8
 71
3
 72
8
 73
4
 74
0
 40
0
 40
0
 40
0
 40
0
 40
1
 40
1
 40
1
 40
1
 10
196.394758
 20
78.206274
 30
0.0
 10
196.394758
 20
77.574717
 30
0.0
 10
196.769609
 20
76.860182
 30
0.0
 10
197.519311
 20
76.062668
 30
0.0
  0
LWPOLYLINE
  5
140
100
AcDbEntity
  8
0
 62
7
100
AcDbPolyline
 90
3
 70
1
 10
200.759094
 20
78.531274
 30
0.0
 10
200.678769
 20
79.817442
 30
0.0
 10
199.768417
 20
79.817442
 30
0.0
  0
SPLINE
  5
141
100
AcDbEntity
  8
0
 62
7
100
AcDbSpline
 70
8
 71
3
 72
8
 73
4
 74
0
 40
0
 40
0
 40
0
 40
0
 40
1
 40
1
 40
1
 40
1
 10
195.819094
 20
75.710009
 30
0.0
 10
195.426398
 20
76.083412
 30
0.0
 10
195.118485
 20
76.492545
 30
0.0
 10
194.895355
 20
76.937400
 30
0.0
  0
SPLINE
  5
142
100
AcDbEntity
  8
0
 62
7
100
AcDbSpline
 70
8
 71
3
 72
8
 73
4
 74
0
 40
0
 40
0
 40
0
 40
0
 40
1
 40
1
 40
1
 40
1
 10
194.895355
 20
76.937400
 30
0.0
 10
194.672225
 20
77.382255
 30
0.0
 10
194.560666
 20
77.828265
 30
0.0
 10
194.560666
 20
78.275430
 30
0.0
  0
SPLINE
  5
143
100
AcDbEntity
  8
0
 62
7
100
AcDbSpline
 70
8
 71
3
 72
8
 73
4
 74
0
 40
0
 40
0
 40
0
 40
0
 40
1
 40
1
 40
1
 40
1
 10
194.560666
 20
78.275430
 30
0.0
 10
194.560666
 20
79.178977
 30
0.0
 10
194.948905
 20
79.848566
 30
0.0
 10
195.725382
 20
80.284204
 30
0.0
  0
SPLINE
  5
144
100
AcDbEntity
  8
0
 62
7
100
AcDbSpline
 70
8
 71
3
 72
8
 73
4
 74
0
 40
0
 40
0
 40
0
 40
0
 40
1
 40
1
 40
1
 40
1
 10
195.725382
 20
80.284204
 30
0.0
 10
196.501859
 20
80.719841
 30
0.0
 10
197.746899
 20
80.937660
 30
0.0
 10
199.460503
 20
80.937660
 30
0.0
  0
LWPOLYLINE
  5
145
100
AcDbEntity
  8
0
 62
7
100
AcDbPolyline
 90
2
 70
1
 10
197.519311
 20
76.062668
 30
0.0
 10
195.819094
 20
75.710009
 30
0.0
  0
SPLINE
  5
146
100
AcDbEntity
  8
0
 62
7
100
AcDbSpline
 70
8
 71
3
 72
8
 73
4
 74
0
 40
0
 40
0
 40
0
 40
0
 40
1
 40
1
 40
1
 40
1
 10
207.908037
 20
77.494041
 30
0.0
 10
207.908037
 20
78.208577
 30
0.0
 10
207.528728
 20
78.769844
 30
0.0
 10
206.770097
 20
79.177822
 30
0.0
  0
SPLINE
  5
147
100
AcDbEntity
  8
0
 62
7
100
AcDbSpline
 70
8
 71
3
 72
8
 73
4
 74
0
 40
0
 40
0
 40
0
 40
0
 40
1
 40
1
 40
1
 40
1
 10
206.770097
 20
79.177822
 30
0.0
 10
206.011465
 20
79.585801
 30
0.0
 10
204.949392
 20
79.789790
 30
0.0
 10
203.583864
 20
79.789790
 30
0.0
  0
LWPOLYLINE
  5
148
100
AcDbEntity
  8
0
 62
7
100
AcDbPolyline
 90
4
 70
1
 10
199.460503
 20
80.937660
 30
0.0
 10
209.474378
 20
80.937660
 30
0.0
 10
209.474378
 20
80.087130
 30
0.0
 10
209.474378
 20
80.087130
 30
0.0
  0
SPLINE
  5
149
100
AcDbEntity
  8
0
 62
7
100
AcDbSpline
 70
8
 71
3
 72
8
 73
4
 74
0
 40
0
 40
0
 40
0
 40
0
 40
1
 40
1
 40
1
 40
1
 10
202.352211
 20
78.641919
 30
0.0
 10
202.414690
 20
77.729154
 30
0.0
 10
202.689135
 20
77.071086
 30
0.0
 10
203.175544
 20
76.667720
 30
0.0
  0
SPLINE
  5
14a
100
AcDbEntity
  8
0
 62
7
100
AcDbSpline
 70
8
 71
3
 72
8
 73
4
 74
0
 40
0
 40
0
 40
0
 40
0
 40
1
 40
1
 40
1
 40
1
 10
203.175544
 20
76.667720
 30
0.0
 10
203.661953
 20
76.264354
 30
0.0
 10
204.418349
 20
76.062668
 30
0.0
 10
205.444731
 20
76.062668
 30
0.0
  0
SPLINE
  5
14b
100
AcDbEntity
  8
0
 62
7
100
AcDbSpline
 70
8
 71
3
 72
8
 73
4
 74
0
 40
0
 40
0
 40
0
 40
0
 40
1
 40
1
 40
1
 40
1
 10
205.444731
 20
76.062668
 30
0.0
 10
206.247983
 20
76.062668
 30
0.0
 10
206.859351
 20
76.188290
 30
0.0
 10
207.278823
 20
76.439529
 30
0.0
  0
SPLINE
  5
14c
100
AcDbEntity
  8
0
 62
7
100
AcDbSpline
 70
8
 71
3
 72
8
 73
4
 74
0
 40
0
 40
0
 40
0
 40
0
 40
1
 40
1
 40
1
 40
1
 10
207.278823
 20
76.439529
 30
0.0
 10
207.698294
 20
76.690767
 30
0.0
 10
207.908037
 20
77.042271
 30
0.0
 10
207.908037
 20
77.494041
 30
0.0
  0
LWPOLYLINE
  5
14d
100
AcDbEntity
  8
0
 62
7
100
AcDbPolyline
 90
3
 70
1
 10
203.583864
 20
79.789790
 30
0.0
 10
202.258498
 20
79.789790
 30
0.0
 10
202.352211
 20
78.641919
 30
0.0
  0
LWPOLYLINE
  5
14e
100
AcDbEntity
  8
0
 62
7
100
AcDbPolyline
 90
2
 70
1
 10
207.908037
 20
77.494041
 30
0.0
 10
207.908037
 20
77.494041
 30
0.0
  0
SPLINE
  5
14f
100
AcDbEntity
  8
0
 62
7
100
AcDbSpline
 70
8
 71
3
 72
8
 73
4
 74
0
 40
0
 40
0
 40
0
 40
0
 40
1
 40
1
 40
1
 40
1
 10
207.506411
 20
87.250955
 30
0.0
 10
208.996885
 20
86.720812
 30
0.0
 10
209.742129
 20
85.927903
 30
0.0
 10
209.742129
 20
84.872229
 30
0.0
  0
SPLINE
  5
150
100
AcDbEntity
  8
0
 62
7
100
AcDbSpline
 70
8
 71
3
 72
8
 73
4
 74
0
 40
0
 40
0
 40
0
 40
0
 40
1
 40
1
 40
1
 40
1
 10
209.742129
 20
84.872229
 30
0.0
 10
209.742129
 20
83.881098
 30
0.0
 10
209.086140
 20
83.110088
 30
0.0
 10
207.774162
 20
82.559200
 30
0.0
  0
SPLINE
  5
151
100
AcDbEntity
  8
0
 62
7
100
AcDbSpline
 70
8
 71
3
 72
8
 73
4
 74
0
 40
0
 40
0
 40
0
 40
0
 40
1
 40
1
 40
1
 40
1
 10
207.774162
 20
82.559200
 30
0.0
 10
206.462183
 20
82.008312
 30
0.0
 10
204.596858
 20
81.732872
 30
0.0
 10
202.178173
 20
81.732872
 30
0.0
  0
SPLINE
  5
152
100
AcDbEntity
  8
0
 62
7
100
AcDbSpline
 70
8
 71
3
 72
8
 73
4
 74
0
 40
0
 40
0
 40
0
 40
0
 40
1
 40
1
 40
1
 40
1
 10
202.178173
 20
81.732872
 30
0.0
 10
199.759487
 20
81.732872
 30
0.0
 10
197.880775
 20
82.009467
 30
0.0
 10
196.542021
 20
82.562658
 30
0.0
  0
SPLINE
  5
153
100
AcDbEntity
  8
0
 62
7
100
AcDbSpline
 70
8
 71
3
 72
8
 73
4
 74
0
 40
0
 40
0
 40
0
 40
0
 40
1
 40
1
 40
1
 40
1
 10
196.542021
 20
82.562658
 30
0.0
 10
195.203268
 20
83.115848
 30
0.0
 10
194.533891
 20
83.885703
 30
0.0
 10
194.533891
 20
84.872229
 30
0.0
  0
SPLINE
  5
154
100
AcDbEntity
  8
0
 62
7
100
AcDbSpline
 70
8
 71
3
 72
8
 73
4
 74
0
 40
0
 40
0
 40
0
 40
0
 40
1
 40
1
 40
1
 40
1
 10
194.533891
 20
84.872229
 30
0.0
 10
194.533891
 20
85.900244
 30
0.0
 10
195.256818
 20
86.688540
 30
0.0
 10
196.702672
 20
87.237119
 30
0.0
  0
LWPOLYLINE
  5
155
100
AcDbEntity
  8
0
 62
7
100
AcDbPolyline
 90
2
 70
1
 10
207.506411
 20
87.313182
 30
0.0
 10
207.506411
 20
87.250955
 30
0.0
  0
SPLINE
  5
156
100
AcDbEntity
  8
0
 62
7
100
AcDbSpline
 70
8
 71
3
 72
8
 73
4
 74
0
 40
0
 40
0
 40
0
 40
0
 40
1
 40
1
 40
1
 40
1
 10
207.881262
 20
85.017448
 30
0.0
 10
207.881262
 20
85.801133
 30
0.0
 10
207.468471
 20
86.369315
 30
0.0
 10
206.642902
 20
86.721974
 30
0.0
  0
SPLINE
  5
157
100
AcDbEntity
  8
0
 62
7
100
AcDbSpline
 70
8
 71
3
 72
8
 73
4
 74
0
 40
0
 40
0
 40
0
 40
0
 40
1
 40
1
 40
1
 40
1
 10
206.642902
 20
86.721974
 30
0.0
 10
205.817333
 20
87.074633
 30
0.0
 10
204.485273
 20
87.250962
 30
0.0
 10
202.646723
 20
87.250962
 30
0.0
  0
LWPOLYLINE
  5
158
100
AcDbEntity
  8
0
 62
7
100
AcDbPolyline
 90
9
 70
1
 10
196.702672
 20
87.237119
 30
0.0
 10
196.702672
 20
87.327012
 30
0.0
 10
195.645056
 20
87.278608
 30
0.0
 10
194.614216
 20
87.250948
 30
0.0
 10
188.643377
 20
87.250948
 30
0.0
 10
188.643377
 20
88.398819
 30
0.0
 10
209.474378
 20
88.398819
 30
0.0
 10
209.474378
 20
87.465310
 30
0.0
 10
207.506411
 20
87.313182
 30
0.0
  0
SPLINE
  5
159
100
AcDbEntity
  8
0
 62
7
100
AcDbSpline
 70
8
 71
3
 72
8
 73
4
 74
0
 40
0
 40
0
 40
0
 40
0
 40
1
 40
1
 40
1
 40
1
 10
202.178159
 20
87.250962
 30
0.0
 10
200.098634
 20
87.250962
 30
0.0
 10
198.614853
 20
87.072330
 30
0.0
 10
197.726818
 20
86.715059
 30
0.0
  0
SPLINE
  5
15a
100
AcDbEntity
  8
0
 62
7
100
AcDbSpline
 70
8
 71
3
 72
8
 73
4
 74
0
 40
0
 40
0
 40
0
 40
0
 40
1
 40
1
 40
1
 40
1
 10
197.726818
 20
86.715059
 30
0.0
 10
196.838783
 20
86.357788
 30
0.0
 10
196.394758
 20
85.787310
 30
0.0
 10
196.394758
 20
85.003625
 30
0.0
  0
SPLINE
  5
15b
100
AcDbEntity
  8
0
 62
7
100
AcDbSpline
 70
8
 71
3
 72
8
 73
4
 74
0
 40
0
 40
0
 40
0
 40
0
 40
1
 40
1
 40
1
 40
1
 10
196.394758
 20
85.003625
 30
0.0
 10
196.394758
 20
84.330579
 30
0.0
 10
196.901249
 20
83.815420
 30
0.0
 10
197.914243
 20
83.458149
 30
0.0
  0
SPLINE
  5
15c
100
AcDbEntity
  8
0
 62
7
100
AcDbSpline
 70
8
 71
3
 72
8
 73
4
 74
0
 40
0
 40
0
 40
0
 40
0
 40
1
 40
1
 40
1
 40
1
 10
197.914243
 20
83.458149
 30
0.0
 10
198.927238
 20
83.100878
 30
0.0
 10
200.357468
 20
82.922245
 30
0.0
 10
202.204948
 20
82.922245
 30
0.0
  0
SPLINE
  5
15d
100
AcDbEntity
  8
0
 62
7
100
AcDbSpline
 70
8
 71
3
 72
8
 73
4
 74
0
 40
0
 40
0
 40
0
 40
0
 40
1
 40
1
 40
1
 40
1
 10
202.204948
 20
82.922245
 30
0.0
 10
204.079202
 20
82.922245
 30
0.0
 10
205.493823
 20
83.099730
 30
0.0
 10
206.448796
 20
83.454692
 30
0.0
  0
SPLINE
  5
15e
100
AcDbEntity
  8
0
 62
7
100
AcDbSpline
 70
8
 71
3
 72
8
 73
4
 74
0
 40
0
 40
0
 40
0
 40
0
 40
1
 40
1
 40
1
 40
1
 10
206.448796
 20
83.454692
 30
0.0
 10
207.403769
 20
83.809653
 30
0.0
 10
207.881262
 20
84.330572
 30
0.0
 10
207.881262
 20
85.017448
 30
0.0
  0
LWPOLYLINE
  5
15f
100
AcDbEntity
  8
0
 62
7
100
AcDbPolyline
 90
2
 70
1
 10
202.646723
 20
87.250962
 30
0.0
 10
202.178159
 20
87.250962
 30
0.0
  0
SPLINE
  5
160
100
AcDbEntity
  8
0
 62
7
100
AcDbSpline
 70
8
 71
3
 72
8
 73
4
 74
0
 40
0
 40
0
 40
0
 40
0
 40
1
 40
1
 40
1
 40
1
 10
194.560666
 20
94.359448
 30
0.0
 10
194.560666
 20
95.355192
 30
0.0
 10
195.218891
 20
96.128504
 30
0.0
 10
196.535327
 20
96.679392
 30
0.0
  0
SPLINE
  5
161
100
AcDbEntity
  8
0
 62
7
100
AcDbSpline
 70
8
 71
3
 72
8
 73
4
 74
0
 40
0
 40
0
 40
0
 40
0
 40
1
 40
1
 40
1
 40
1
 10
196.535327
 20
96.679392
 30
0.0
 10
197.851764
 20
97.230280
 30
0.0
 10
199.714867
 20
97.505720
 30
0.0
 10
202.124623
 20
97.505720
 30
0.0
  0
SPLINE
  5
162
100
AcDbEntity
  8
0
 62
7
100
AcDbSpline
 70
8
 71
3
 72
8
 73
4
 74
0
 40
0
 40
0
 40
0
 40
0
 40
1
 40
1
 40
1
 40
1
 10
202.124623
 20
97.505720
 30
0.0
 10
204.534379
 20
97.505720
 30
0.0
 10
206.406397
 20
97.227970
 30
0.0
 10
207.740693
 20
96.672477
 30
0.0
  0
SPLINE
  5
163
100
AcDbEntity
  8
0
 62
7
100
AcDbSpline
 70
8
 71
3
 72
8
 73
4
 74
0
 40
0
 40
0
 40
0
 40
0
 40
1
 40
1
 40
1
 40
1
 10
207.740693
 20
96.672477
 30
0.0
 10
209.074988
 20
96.116983
 30
0.0
 10
209.742129
 20
95.345974
 30
0.0
 10
209.742129
 20
94.359448
 30
0.0
  0
SPLINE
  5
164
100
AcDbEntity
  8
0
 62
7
100
AcDbSpline
 70
8
 71
3
 72
8
 73
4
 74
0
 40
0
 40
0
 40
0
 40
0
 40
1
 40
1
 40
1
 40
1
 10
209.742129
 20
94.359448
 30
0.0
 10
209.742129
 20
93.866189
 30
0.0
 10
209.565855
 20
93.415567
 30
0.0
 10
209.213321
 20
93.007589
 30
0.0
  0
SPLINE
  5
165
100
AcDbEntity
  8
0
 62
7
100
AcDbSpline
 70
8
 71
3
 72
8
 73
4
 74
0
 40
0
 40
0
 40
0
 40
0
 40
1
 40
1
 40
1
 40
1
 10
209.213321
 20
93.007589
 30
0.0
 10
208.860787
 20
92.599611
 30
0.0
 10
208.318592
 20
92.257324
 30
0.0
 10
207.586736
 20
91.980729
 30
0.0
  0
LWPOLYLINE
  5
166
100
AcDbEntity
  8
0
 62
7
100
AcDbPolyline
 90
2
 70
1
 10
207.881262
 20
85.017448
 30
0.0
 10
207.881262
 20
85.017448
 30
0.0
  0
SPLINE
  5
167
100
AcDbEntity
  8
0
 62
7
100
AcDbSpline
 70
8
 71
3
 72
8
 73
4
 74
0
 40
0
 40
0
 40
0
 40
0
 40
1
 40
1
 40
1
 40
1
 10
193.703864
 20
91.980729
 30
0.0
 10
194.837346
 20
91.980729
 30
0.0
 10
195.854799
 20
91.962287
 30
0.0
 10
196.756222
 20
91.925410
 30
0.0
  0
LWPOLYLINE
  5
168
100
AcDbEntity
  8
0
 62
7
100
AcDbPolyline
 90
7
 70
1
 10
207.586736
 20
91.980729
 30
0.0
 10
207.586736
 20
91.897750
 30
0.0
 10
209.474378
 20
91.655729
 30
0.0
 10
209.474378
 20
90.832858
 30
0.0
 10
188.643377
 20
90.832858
 30
0.0
 10
188.643377
 20
91.980729
 30
0.0
 10
193.703864
 20
91.980729
 30
0.0
  0
SPLINE
  5
169
100
AcDbEntity
  8
0
 62
7
100
AcDbSpline
 70
8
 71
3
 72
8
 73
4
 74
0
 40
0
 40
0
 40
0
 40
0
 40
1
 40
1
 40
1
 40
1
 10
196.756222
 20
91.980729
 30
0.0
 10
195.292523
 20
92.515477
 30
0.0
 10
194.560666
 20
93.308386
 30
0.0
 10
194.560666
 20
94.359448
 30
0.0
  0
LWPOLYLINE
  5
16a
100
AcDbEntity
  8
0
 62
7
100
AcDbPolyline
 90
2
 70
1
 10
196.756222
 20
91.925410
 30
0.0
 10
196.756222
 20
91.980729
 30
0.0
  0
SPLINE
  5
16b
100
AcDbEntity
  8
0
 62
7
100
AcDbSpline
 70
8
 71
3
 72
8
 73
4
 74
0
 40
0
 40
0
 40
0
 40
0
 40
1
 40
1
 40
1
 40
1
 10
196.421533
 20
94.193491
 30
0.0
 10
196.421533
 20
93.409807
 30
0.0
 10
196.856615
 20
92.845096
 30
0.0
 10
197.726804
 20
92.499352
 30
0.0
  0
SPLINE
  5
16c
100
AcDbEntity
  8
0
 62
7
100
AcDbSpline
 70
8
 71
3
 72
8
 73
4
 74
0
 40
0
 40
0
 40
0
 40
0
 40
1
 40
1
 40
1
 40
1
 10
197.726804
 20
92.499352
 30
0.0
 10
198.596994
 20
92.153608
 30
0.0
 10
200.062929
 20
91.980735
 30
0.0
 10
202.124609
 20
91.980735
 30
0.0
  0
SPLINE
  5
16d
100
AcDbEntity
  8
0
 62
7
100
AcDbSpline
 70
8
 71
3
 72
8
 73
4
 74
0
 40
0
 40
0
 40
0
 40
0
 40
1
 40
1
 40
1
 40
1
 10
202.124609
 20
91.980735
 30
0.0
 10
204.186289
 20
91.980735
 30
0.0
 10
205.661154
 20
92.158220
 30
0.0
 10
206.549189
 20
92.513182
 30
0.0
  0
SPLINE
  5
16e
100
AcDbEntity
  8
0
 62
7
100
AcDbSpline
 70
8
 71
3
 72
8
 73
4
 74
0
 40
0
 40
0
 40
0
 40
0
 40
1
 40
1
 40
1
 40
1
 10
206.549189
 20
92.513182
 30
0.0
 10
207.437224
 20
92.868143
 30
0.0
 10
207.881248
 20
93.437466
 30
0.0
 10
207.881248
 20
94.221151
 30
0.0
  0
SPLINE
  5
16f
100
AcDbEntity
  8
0
 62
7
100
AcDbSpline
 70
8
 71
3
 72
8
 73
4
 74
0
 40
0
 40
0
 40
0
 40
0
 40
1
 40
1
 40
1
 40
1
 10
207.881248
 20
94.221151
 30
0.0
 10
207.881248
 20
94.926469
 30
0.0
 10
207.383674
 20
95.452000
 30
0.0
 10
206.388538
 20
95.797744
 30
0.0
  0
SPLINE
  5
170
100
AcDbEntity
  8
0
 62
7
100
AcDbSpline
 70
8
 71
3
 72
8
 73
4
 74
0
 40
0
 40
0
 40
0
 40
0
 40
1
 40
1
 40
1
 40
1
 10
206.388538
 20
95.797744
 30
0.0
 10
205.393403
 20
96.143488
 30
0.0
 10
203.963173
 20
96.316360
 30
0.0
 10
202.097847
 20
96.316360
 30
0.0
  0
SPLINE
  5
171
100
AcDbEntity
  8
0
 62
7
100
AcDbSpline
 70
8
 71
3
 72
8
 73
4
 74
0
 40
0
 40
0
 40
0
 40
0
 40
1
 40
1
 40
1
 40
1
 10
202.097847
 20
96.316360
 30
0.0
 10
200.187888
 20
96.316360
 30
0.0
 10
198.764352
 20
96.143488
 30
0.0
 10
197.827224
 20
95.797744
 30
0.0
  0
SPLINE
  5
172
100
AcDbEntity
  8
0
 62
7
100
AcDbSpline
 70
8
 71
3
 72
8
 73
4
 74
0
 40
0
 40
0
 40
0
 40
0
 40
1
 40
1
 40
1
 40
1
 10
197.827224
 20
95.797744
 30
0.0
 10
196.890097
 20
95.452000
 30
0.0
 10
196.421533
 20
94.917251
 30
0.0
 10
196.421533
 20
94.193491
 30
0.0
  0
LWPOLYLINE
  5
173
100
AcDbEntity
  8
0
 62
7
100
AcDbPolyline
 90
2
 70
1
 10
194.560666
 20
94.359448
 30
0.0
 10
194.560666
 20
94.359448
 30
0.0
  0
SPLINE
  5
174
100
AcDbEntity
  8
0
 62
7
100
AcDbSpline
 70
8
 71
3
 72
8
 73
4
 74
0
 40
0
 40
0
 40
0
 40
0
 40
1
 40
1
 40
1
 40
1
 10
202.124623
 20
106.052516
 30
0.0
 10
204.516533
 20
106.052516
 30
0.0
 10
206.384107
 20
105.741353
 30
0.0
 10
207.727319
 20
105.119013
 30
0.0
  0
SPLINE
  5
175
100
AcDbEntity
  8
0
 62
7
100
AcDbSpline
 70
8
 71
3
 72
8
 73
4
 74
0
 40
0
 40
0
 40
0
 40
0
 40
1
 40
1
 40
1
 40
1
 10
207.727319
 20
105.119013
 30
0.0
 10
209.070530
 20
104.496674
 30
0.0
 10
209.742142
 20
103.636926
 30
0.0
 10
209.742142
 20
102.539762
 30
0.0
  0
SPLINE
  5
176
100
AcDbEntity
  8
0
 62
7
100
AcDbSpline
 70
8
 71
3
 72
8
 73
4
 74
0
 40
0
 40
0
 40
0
 40
0
 40
1
 40
1
 40
1
 40
1
 10
209.742142
 20
102.539762
 30
0.0
 10
209.742142
 20
101.862104
 30
0.0
 10
209.434229
 20
101.260509
 30
0.0
 10
208.818403
 20
100.734978
 30
0.0
  0
SPLINE
  5
177
100
AcDbEntity
  8
0
 62
7
100
AcDbSpline
 70
8
 71
3
 72
8
 73
4
 74
0
 40
0
 40
0
 40
0
 40
0
 40
1
 40
1
 40
1
 40
1
 10
208.818403
 20
100.734978
 30
0.0
 10
208.202576
 20
100.209446
 30
0.0
 10
207.318999
 20
99.803771
 30
0.0
 10
206.167671
 20
99.517958
 30
0.0
  0
SPLINE
  5
178
100
AcDbEntity
  8
0
 62
7
100
AcDbSpline
 70
8
 71
3
 72
8
 73
4
 74
0
 40
0
 40
0
 40
0
 40
0
 40
1
 40
1
 40
1
 40
1
 10
206.167671
 20
99.517958
 30
0.0
 10
205.016343
 20
99.232145
 30
0.0
 10
203.668660
 20
99.089235
 30
0.0
 10
202.124636
 20
99.089235
 30
0.0
  0
SPLINE
  5
179
100
AcDbEntity
  8
0
 62
7
100
AcDbSpline
 70
8
 71
3
 72
8
 73
4
 74
0
 40
0
 40
0
 40
0
 40
0
 40
1
 40
1
 40
1
 40
1
 10
202.124636
 20
99.089235
 30
0.0
 10
199.732726
 20
99.089235
 30
0.0
 10
197.869623
 20
99.398102
 30
0.0
 10
196.535327
 20
100.015830
 30
0.0
  0
SPLINE
  5
17a
100
AcDbEntity
  8
0
 62
7
100
AcDbSpline
 70
8
 71
3
 72
8
 73
4
 74
0
 40
0
 40
0
 40
0
 40
0
 40
1
 40
1
 40
1
 40
1
 10
196.535327
 20
100.015830
 30
0.0
 10
195.201032
 20
100.633557
 30
0.0
 10
194.533891
 20
101.491002
 30
0.0
 10
194.533891
 20
102.588166
 30
0.0
  0
SPLINE
  5
17b
100
AcDbEntity
  8
0
 62
7
100
AcDbSpline
 70
8
 71
3
 72
8
 73
4
 74
0
 40
0
 40
0
 40
0
 40
0
 40
1
 40
1
 40
1
 40
1
 10
194.533891
 20
102.588166
 30
0.0
 10
194.533891
 20
103.648446
 30
0.0
 10
195.216655
 20
104.490907
 30
0.0
 10
196.582184
 20
105.115549
 30
0.0
  0
SPLINE
  5
17c
100
AcDbEntity
  8
0
 62
7
100
AcDbSpline
 70
8
 71
3
 72
8
 73
4
 74
0
 40
0
 40
0
 40
0
 40
0
 40
1
 40
1
 40
1
 40
1
 10
196.582184
 20
105.115549
 30
0.0
 10
197.947712
 20
105.740191
 30
0.0
 10
199.795192
 20
106.052516
 30
0.0
 10
202.124623
 20
106.052516
 30
0.0
  0
LWPOLYLINE
  5
17d
100
AcDbEntity
  8
0
 62
7
100
AcDbPolyline
 90
2
 70
1
 10
196.421533
 20
94.193491
 30
0.0
 10
196.421533
 20
94.193491
 30
0.0
  0
SPLINE
  5
17e
100
AcDbEntity
  8
0
 62
7
100
AcDbSpline
 70
8
 71
3
 72
8
 73
4
 74
0
 40
0
 40
0
 40
0
 40
0
 40
1
 40
1
 40
1
 40
1
 10
202.124636
 20
100.278595
 30
0.0
 10
203.998891
 20
100.278595
 30
0.0
 10
205.426899
 20
100.472212
 30
0.0
 10
206.408647
 20
100.859445
 30
0.0
  0
SPLINE
  5
17f
100
AcDbEntity
  8
0
 62
7
100
AcDbSpline
 70
8
 71
3
 72
8
 73
4
 74
0
 40
0
 40
0
 40
0
 40
0
 40
1
 40
1
 40
1
 40
1
 10
206.408647
 20
100.859445
 30
0.0
 10
207.390395
 20
101.246679
 30
0.0
 10
207.881275
 20
101.816002
 30
0.0
 10
207.881275
 20
102.567422
 30
0.0
  0
SPLINE
  5
180
100
AcDbEntity
  8
0
 62
7
100
AcDbSpline
 70
8
 71
3
 72
8
 73
4
 74
0
 40
0
 40
0
 40
0
 40
0
 40
1
 40
1
 40
1
 40
1
 10
207.881275
 20
102.567422
 30
0.0
 10
207.881275
 20
103.318841
 30
0.0
 10
207.392630
 20
103.889319
 30
0.0
 10
206.415340
 20
104.278855
 30
0.0
  0
SPLINE
  5
181
100
AcDbEntity
  8
0
 62
7
100
AcDbSpline
 70
8
 71
3
 72
8
 73
4
 74
0
 40
0
 40
0
 40
0
 40
0
 40
1
 40
1
 40
1
 40
1
 10
206.415340
 20
104.278855
 30
0.0
 10
205.438050
 20
104.668391
 30
0.0
 10
204.007820
 20
104.863163
 30
0.0
 10
202.124636
 20
104.863163
 30
0.0
  0
SPLINE
  5
182
100
AcDbEntity
  8
0
 62
7
100
AcDbSpline
 70
8
 71
3
 72
8
 73
4
 74
0
 40
0
 40
0
 40
0
 40
0
 40
1
 40
1
 40
1
 40
1
 10
202.124636
 20
104.863163
 30
0.0
 10
200.259311
 20
104.863163
 30
0.0
 10
198.842468
 20
104.668391
 30
0.0
 10
197.874108
 20
104.278855
 30
0.0
  0
SPLINE
  5
183
100
AcDbEntity
  8
0
 62
7
100
AcDbSpline
 70
8
 71
3
 72
8
 73
4
 74
0
 40
0
 40
0
 40
0
 40
0
 40
1
 40
1
 40
1
 40
1
 10
197.874108
 20
104.278855
 30
0.0
 10
196.905747
 20
103.889319
 30
0.0
 10
196.421560
 20
103.314229
 30
0.0
 10
196.421560
 20
102.553592
 30
0.0
  0
SPLINE
  5
184
100
AcDbEntity
  8
0
 62
7
100
AcDbSpline
 70
8
 71
3
 72
8
 73
4
 74
0
 40
0
 40
0
 40
0
 40
0
 40
1
 40
1
 40
1
 40
1
 10
196.421560
 20
102.553592
 30
0.0
 10
196.421560
 20
101.802172
 30
0.0
 10
196.899053
 20
101.235152
 30
0.0
 10
197.854026
 20
100.852531
 30
0.0
  0
SPLINE
  5
185
100
AcDbEntity
  8
0
 62
7
100
AcDbSpline
 70
8
 71
3
 72
8
 73
4
 74
0
 40
0
 40
0
 40
0
 40
0
 40
1
 40
1
 40
1
 40
1
 10
197.854026
 20
100.852531
 30
0.0
 10
198.808999
 20
100.469909
 30
0.0
 10
200.232536
 20
100.278595
 30
0.0
 10
202.124636
 20
100.278595
 30
0.0
  0
LWPOLYLINE
  5
186
100
AcDbEntity
  8
0
 62
7
100
AcDbPolyline
 90
2
 70
1
 10
202.124623
 20
106.052516
 30
0.0
 10
202.124623
 20
106.052516
 30
0.0
  0
LWPOLYLINE
  5
187
100
AcDbEntity
  8
0
 62
7
100
AcDbPolyline
 90
2
 70
1
 10
202.124636
 20
100.278595
 30
0.0
 10
202.124636
 20
100.278595
 30
0.0
  0
SPLINE
  5
188
100
AcDbEntity
  8
0
 62
7
100
AcDbSpline
 70
8
 71
3
 72
8
 73
4
 74
0
 40
0
 40
0
 40
0
 40
0
 40
1
 40
1
 40
1
 40
1
 10
207.385923
 20
112.441861
 30
0.0
 10
208.305205
 20
112.063845
 30
0.0
 10
208.927725
 20
111.686984
 30
0.0
 10
209.253484
 20
111.311277
 30
0.0
  0
SPLINE
  5
189
100
AcDbEntity
  8
0
 62
7
100
AcDbSpline
 70
8
 71
3
 72
8
 73
4
 74
0
 40
0
 40
0
 40
0
 40
0
 40
1
 40
1
 40
1
 40
1
 10
209.253484
 20
111.311277
 30
0.0
 10
209.579243
 20
110.935571
 30
0.0
 10
209.742129
 20
110.466514
 30
0.0
 10
209.742129
 20
109.904106
 30
0.0
  0
SPLINE
  5
18a
100
AcDbEntity
  8
0
 62
7
100
AcDbSpline
 70
8
 71
3
 72
8
 73
4
 74
0
 40
0
 40
0
 40
0
 40
0
 40
1
 40
1
 40
1
 40
1
 10
209.742129
 20
109.904106
 30
0.0
 10
209.742129
 20
109.152686
 30
0.0
 10
209.367278
 20
108.563766
 30
0.0
 10
208.617576
 20
108.137346
 30
0.0
  0
SPLINE
  5
18b
100
AcDbEntity
  8
0
 62
7
100
AcDbSpline
 70
8
 71
3
 72
8
 73
4
 74
0
 40
0
 40
0
 40
0
 40
0
 40
1
 40
1
 40
1
 40
1
 10
208.617576
 20
108.137346
 30
0.0
 10
207.867874
 20
107.710926
 30
0.0
 10
206.801330
 20
107.497719
 30
0.0
 10
205.417956
 20
107.497719
 30
0.0
  0
SPLINE
  5
18c
100
AcDbEntity
  8
0
 62
7
100
AcDbSpline
 70
8
 71
3
 72
8
 73
4
 74
0
 40
0
 40
0
 40
0
 40
0
 40
1
 40
1
 40
1
 40
1
 10
205.417956
 20
107.497719
 30
0.0
 10
202.454853
 20
107.497719
 30
0.0
 10
200.901899
 20
108.721654
 30
0.0
 10
200.759094
 20
111.169522
 30
0.0
  0
LWPOLYLINE
  5
18d
100
AcDbEntity
  8
0
 62
7
100
AcDbPolyline
 90
3
 70
1
 10
209.474378
 20
112.725378
 30
0.0
 10
207.385923
 20
112.497180
 30
0.0
 10
207.385923
 20
112.441861
 30
0.0
  0
SPLINE
  5
18e
100
AcDbEntity
  8
0
 62
7
100
AcDbSpline
 70
8
 71
3
 72
8
 73
4
 74
0
 40
0
 40
0
 40
0
 40
0
 40
1
 40
1
 40
1
 40
1
 10
199.768417
 20
112.455691
 30
0.0
 10
198.617089
 20
112.455691
 30
0.0
 10
197.766980
 20
112.327765
 30
0.0
 10
197.218092
 20
112.071915
 30
0.0
  0
SPLINE
  5
18f
100
AcDbEntity
  8
0
 62
7
100
AcDbSpline
 70
8
 71
3
 72
8
 73
4
 74
0
 40
0
 40
0
 40
0
 40
0
 40
1
 40
1
 40
1
 40
1
 10
197.218092
 20
112.071915
 30
0.0
 10
196.669203
 20
111.816064
 30
0.0
 10
196.394758
 20
111.406931
 30
0.0
 10
196.394758
 20
110.844523
 30
0.0
  0
SPLINE
  5
190
100
AcDbEntity
  8
0
 62
7
100
AcDbSpline
 70
8
 71
3
 72
8
 73
4
 74
0
 40
0
 40
0
 40
0
 40
0
 40
1
 40
1
 40
1
 40
1
 10
196.394758
 20
110.844523
 30
0.0
 10
196.394758
 20
110.212966
 30
0.0
 10
196.769609
 20
109.498430
 30
0.0
 10
197.519311
 20
108.700916
 30
0.0
  0
LWPOLYLINE
  5
191
100
AcDbEntity
  8
0
 62
7
100
AcDbPolyline
 90
3
 70
1
 10
200.759094
 20
111.169522
 30
0.0
 10
200.678769
 20
112.455691
 30
0.0
 10
199.768417
 20
112.455691
 30
0.0
  0
SPLINE
  5
192
100
AcDbEntity
  8
0
 62
7
100
AcDbSpline
 70
8
 71
3
 72
8
 73
4
 74
0
 40
0
 40
0
 40
0
 40
0
 40
1
 40
1
 40
1
 40
1
 10
195.819094
 20
108.348257
 30
0.0
 10
195.426398
 20
108.721661
 30
0.0
 10
195.118485
 20
109.130794
 30
0.0
 10
194.895355
 20
109.575649
 30
0.0
  0
SPLINE
  5
193
100
AcDbEntity
  8
0
 62
7
100
AcDbSpline
 70
8
 71
3
 72
8
 73
4
 74
0
 40
0
 40
0
 40
0
 40
0
 40
1
 40
1
 40
1
 40
1
 10
194.895355
 20
109.575649
 30
0.0
 10
194.672225
 20
110.020504
 30
0.0
 10
194.560666
 20
110.466514
 30
0.0
 10
194.560666
 20
110.913679
 30
0.0
  0
SPLINE
  5
194
100
AcDbEntity
  8
0
 62
7
100
AcDbSpline
 70
8
 71
3
 72
8
 73
4
 74
0
 40
0
 40
0
 40
0
 40
0
 40
1
 40
1
 40
1
 40
1
 10
194.560666
 20
110.913679
 30
0.0
 10
194.560666
 20
111.817226
 30
0.0
 10
194.948905
 20
112.486815
 30
0.0
 10
195.725382
 20
112.922452
 30
0.0
  0
SPLINE
  5
195
100
AcDbEntity
  8
0
 62
7
100
AcDbSpline
 70
8
 71
3
 72
8
 73
4
 74
0
 40
0
 40
0
 40
0
 40
0
 40
1
 40
1
 40
1
 40
1
 10
195.725382
 20
112.922452
 30
0.0
 10
196.501859
 20
113.358090
 30
0.0
 10
197.746899
 20
113.575909
 30
0.0
 10
199.460503
 20
113.575909
 30
0.0
  0
LWPOLYLINE
  5
196
100
AcDbEntity
  8
0
 62
7
100
AcDbPolyline
 90
2
 70
1
 10
197.519311
 20
108.700916
 30
0.0
 10
195.819094
 20
108.348257
 30
0.0
  0
SPLINE
  5
197
100
AcDbEntity
  8
0
 62
7
100
AcDbSpline
 70
8
 71
3
 72
8
 73
4
 74
0
 40
0
 40
0
 40
0
 40
0
 40
1
 40
1
 40
1
 40
1
 10
207.908037
 20
110.132290
 30
0.0
 10
207.908037
 20
110.846826
 30
0.0
 10
207.528728
 20
111.408093
 30
0.0
 10
206.770097
 20
111.816071
 30
0.0
  0
SPLINE
  5
198
100
AcDbEntity
  8
0
 62
7
100
AcDbSpline
 70
8
 71
3
 72
8
 73
4
 74
0
 40
0
 40
0
 40
0
 40
0
 40
1
 40
1
 40
1
 40
1
 10
206.770097
 20
111.816071
 30
0.0
 10
206.011465
 20
112.224049
 30
0.0
 10
204.949392
 20
112.428038
 30
0.0
 10
203.583864
 20
112.428038
 30
0.0
  0
LWPOLYLINE
  5
199
100
AcDbEntity
  8
0
 62
7
100
AcDbPolyline
 90
4
 70
1
 10
199.460503
 20
113.575909
 30
0.0
 10
209.474378
 20
113.575909
 30
0.0
 10
209.474378
 20
112.725378
 30
0.0
 10
209.474378
 20
112.725378
 30
0.0
  0
SPLINE
  5
19a
100
AcDbEntity
  8
0
 62
7
100
AcDbSpline
 70
8
 71
3
 72
8
 73
4
 74
0
 40
0
 40
0
 40
0
 40
0
 40
1
 40
1
 40
1
 40
1
 10
202.352211
 20
111.280167
 30
0.0
 10
202.414690
 20
110.367403
 30
0.0
 10
202.689135
 20
109.709334
 30
0.0
 10
203.175544
 20
109.305968
 30
0.0
  0
SPLINE
  5
19b
100
AcDbEntity
  8
0
 62
7
100
AcDbSpline
 70
8
 71
3
 72
8
 73
4
 74
0
 40
0
 40
0
 40
0
 40
0
 40
1
 40
1
 40
1
 40
1
 10
203.175544
 20
109.305968
 30
0.0
 10
203.661953
 20
108.902602
 30
0.0
 10
204.418349
 20
108.700916
 30
0.0
 10
205.444731
 20
108.700916
 30
0.0
  0
SPLINE
  5
19c
100
AcDbEntity
  8
0
 62
7
100
AcDbSpline
 70
8
 71
3
 72
8
 73
4
 74
0
 40
0
 40
0
 40
0
 40
0
 40
1
 40
1
 40
1
 40
1
 10
205.444731
 20
108.700916
 30
0.0
 10
206.247983
 20
108.700916
 30
0.0
 10
206.859351
 20
108.826539
 30
0.0
 10
207.278823
 20
109.077777
 30
0.0
  0
SPLINE
  5
19d
100
AcDbEntity
  8
0
 62
7
100
AcDbSpline
 70
8
 71
3
 72
8
 73
4
 74
0
 40
0
 40
0
 40
0
 40
0
 40
1
 40
1
 40
1
 40
1
 10
207.278823
 20
109.077777
 30
0.0
 10
207.698294
 20
109.329016
 30
0.0
 10
207.908037
 20
109.680520
 30
0.0
 10
207.908037
 20
110.132290
 30
0.0
  0
LWPOLYLINE
  5
19e
100
AcDbEntity
  8
0
 62
7
100
AcDbPolyline
 90
3
 70
1
 10
203.583864
 20
112.428038
 30
0.0
 10
202.258498
 20
112.428038
 30
0.0
 10
202.352211
 20
111.280167
 30
0.0
  0
SPLINE
  5
19f
100
AcDbEntity
  8
0
 62
7
100
AcDbSpline
 70
8
 71
3
 72
8
 73
4
 74
0
 40
0
 40
0
 40
0
 40
0
 40
1
 40
1
 40
1
 40
1
 10
194.533891
 20
118.250370
 30
0.0
 10
194.533891
 20
118.586896
 30
0.0
 10
194.587441
 20
118.888842
 30
0.0
 10
194.694542
 20
119.156219
 30
0.0
  0
LWPOLYLINE
  5
1a0
100
AcDbEntity
  8
0
 62
7
100
AcDbPolyline
 90
2
 70
1
 10
207.908037
 20
110.132290
 30
0.0
 10
207.908037
 20
110.132290
 30
0.0
  0
SPLINE
  5
1a1
100
AcDbEntity
  8
0
 62
7
100
AcDbSpline
 70
8
 71
3
 72
8
 73
4
 74
0
 40
0
 40
0
 40
0
 40
0
 40
1
 40
1
 40
1
 40
1
 10
196.756222
 20
118.997177
 30
0.0
 10
196.622346
 20
118.683705
 30
0.0
 10
196.555409
 20
118.407109
 30
0.0
 10
196.555409
 20
118.167391
 30
0.0
  0
SPLINE
  5
1a2
100
AcDbEntity
  8
0
 62
7
100
AcDbSpline
 70
8
 71
3
 72
8
 73
4
 74
0
 40
0
 40
0
 40
0
 40
0
 40
1
 40
1
 40
1
 40
1
 10
196.555409
 20
118.167391
 30
0.0
 10
196.555409
 20
117.554269
 30
0.0
 10
197.037360
 20
117.029893
 30
0.0
 10
198.001262
 20
116.594255
 30
0.0
  0
SPLINE
  5
1a3
100
AcDbEntity
  8
0
 62
7
100
AcDbSpline
 70
8
 71
3
 72
8
 73
4
 74
0
 40
0
 40
0
 40
0
 40
0
 40
1
 40
1
 40
1
 40
1
 10
198.001262
 20
116.594255
 30
0.0
 10
198.965165
 20
116.158617
 30
0.0
 10
200.165585
 20
115.940799
 30
0.0
 10
201.602509
 20
115.940799
 30
0.0
  0
LWPOLYLINE
  5
1a4
100
AcDbEntity
  8
0
 62
7
100
AcDbPolyline
 90
2
 70
1
 10
194.694542
 20
119.156219
 30
0.0
 10
196.756222
 20
118.997177
 30
0.0
  0
SPLINE
  5
1a5
100
AcDbEntity
  8
0
 62
7
100
AcDbSpline
 70
8
 71
3
 72
8
 73
4
 74
0
 40
0
 40
0
 40
0
 40
0
 40
1
 40
1
 40
1
 40
1
 10
197.519311
 20
115.926969
 30
0.0
 10
196.564338
 20
116.208176
 30
0.0
 10
195.828024
 20
116.547006
 30
0.0
 10
195.310368
 20
116.943457
 30
0.0
  0
SPLINE
  5
1a6
100
AcDbEntity
  8
0
 62
7
100
AcDbSpline
 70
8
 71
3
 72
8
 73
4
 74
0
 40
0
 40
0
 40
0
 40
0
 40
1
 40
1
 40
1
 40
1
 10
195.310368
 20
116.943457
 30
0.0
 10
194.792712
 20
117.339908
 30
0.0
 10
194.533891
 20
117.775545
 30
0.0
 10
194.533891
 20
118.250370
 30
0.0
  0
LWPOLYLINE
  5
1a7
100
AcDbEntity
  8
0
 62
7
100
AcDbPolyline
 90
7
 70
1
 10
201.602509
 20
115.940799
 30
0.0
 10
209.474378
 20
115.940799
 30
0.0
 10
209.474378
 20
114.792928
 30
0.0
 10
194.801642
 20
114.792928
 30
0.0
 10
194.801642
 20
115.740267
 30
0.0
 10
197.519311
 20
115.871650
 30
0.0
 10
197.519311
 20
115.926969
 30
0.0
  0
LWPOLYLINE
  5
1a8
100
AcDbEntity
  8
0
 62
7
100
AcDbPolyline
 90
2
 70
1
 10
194.533891
 20
118.250370
 30
0.0
 10
194.533891
 20
118.250370
 30
0.0
  0
SPLINE
  5
1a9
100
AcDbEntity
  8
0
 62
7
100
AcDbSpline
 70
8
 71
3
 72
8
 73
4
 74
0
 40
0
 40
0
 40
0
 40
0
 40
1
 40
1
 40
1
 40
1
 10
207.506411
 20
125.670046
 30
0.0
 10
208.996885
 20
125.139903
 30
0.0
 10
209.742129
 20
124.346994
 30
0.0
 10
209.742129
 20
123.291319
 30
0.0
  0
SPLINE
  5
1aa
100
AcDbEntity
  8
0
 62
7
100
AcDbSpline
 70
8
 71
3
 72
8
 73
4
 74
0
 40
0
 40
0
 40
0
 40
0
 40
1
 40
1
 40
1
 40
1
 10
209.742129
 20
123.291319
 30
0.0
 10
209.742129
 20
122.300188
 30
0.0
 10
209.086140
 20
121.529179
 30
0.0
 10
207.774162
 20
120.978291
 30
0.0
  0
SPLINE
  5
1ab
100
AcDbEntity
  8
0
 62
7
100
AcDbSpline
 70
8
 71
3
 72
8
 73
4
 74
0
 40
0
 40
0
 40
0
 40
0
 40
1
 40
1
 40
1
 40
1
 10
207.774162
 20
120.978291
 30
0.0
 10
206.462183
 20
120.427403
 30
0.0
 10
204.596858
 20
120.151962
 30
0.0
 10
202.178173
 20
120.151962
 30
0.0
  0
SPLINE
  5
1ac
100
AcDbEntity
  8
0
 62
7
100
AcDbSpline
 70
8
 71
3
 72
8
 73
4
 74
0
 40
0
 40
0
 40
0
 40
0
 40
1
 40
1
 40
1
 40
1
 10
202.178173
 20
120.151962
 30
0.0
 10
199.759487
 20
120.151962
 30
0.0
 10
197.880775
 20
120.428558
 30
0.0
 10
196.542021
 20
120.981748
 30
0.0
  0
SPLINE
  5
1ad
100
AcDbEntity
  8
0
 62
7
100
AcDbSpline
 70
8
 71
3
 72
8
 73
4
 74
0
 40
0
 40
0
 40
0
 40
0
 40
1
 40
1
 40
1
 40
1
 10
196.542021
 20
120.981748
 30
0.0
 10
195.203268
 20
121.534939
 30
0.0
 10
194.533891
 20
122.304794
 30
0.0
 10
194.533891
 20
123.291319
 30
0.0
  0
SPLINE
  5
1ae
100
AcDbEntity
  8
0
 62
7
100
AcDbSpline
 70
8
 71
3
 72
8
 73
4
 74
0
 40
0
 40
0
 40
0
 40
0
 40
1
 40
1
 40
1
 40
1
 10
194.533891
 20
123.291319
 30
0.0
 10
194.533891
 20
124.319334
 30
0.0
 10
195.256818
 20
125.107631
 30
0.0
 10
196.702672
 20
125.656209
 30
0.0
  0
LWPOLYLINE
  5
1af
100
AcDbEntity
  8
0
 62
7
100
AcDbPolyline
 90
2
 70
1
 10
207.506411
 20
125.732273
 30
0.0
 10
207.506411
 20
125.670046
 30
0.0
  0
SPLINE
  5
1b0
100
AcDbEntity
  8
0
 62
7
100
AcDbSpline
 70
8
 71
3
 72
8
 73
4
 74
0
 40
0
 40
0
 40
0
 40
0
 40
1
 40
1
 40
1
 40
1
 10
207.881262
 20
123.436539
 30
0.0
 10
207.881262
 20
124.220223
 30
0.0
 10
207.468471
 20
124.788405
 30
0.0
 10
206.642902
 20
125.141065
 30
0.0
  0
SPLINE
  5
1b1
100
AcDbEntity
  8
0
 62
7
100
AcDbSpline
 70
8
 71
3
 72
8
 73
4
 74
0
 40
0
 40
0
 40
0
 40
0
 40
1
 40
1
 40
1
 40
1
 10
206.642902
 20
125.141065
 30
0.0
 10
205.817333
 20
125.493724
 30
0.0
 10
204.485273
 20
125.670053
 30
0.0
 10
202.646723
 20
125.670053
 30
0.0
  0
LWPOLYLINE
  5
1b2
100
AcDbEntity
  8
0
 62
7
100
AcDbPolyline
 90
9
 70
1
 10
196.702672
 20
125.656209
 30
0.0
 10
196.702672
 20
125.746103
 30
0.0
 10
195.645056
 20
125.697699
 30
0.0
 10
194.614216
 20
125.670039
 30
0.0
 10
188.643377
 20
125.670039
 30
0.0
 10
188.643377
 20
126.817910
 30
0.0
 10
209.474378
 20
126.817910
 30
0.0
 10
209.474378
 20
125.884400
 30
0.0
 10
207.506411
 20
125.732273
 30
0.0
  0
SPLINE
  5
1b3
100
AcDbEntity
  8
0
 62
7
100
AcDbSpline
 70
8
 71
3
 72
8
 73
4
 74
0
 40
0
 40
0
 40
0
 40
0
 40
1
 40
1
 40
1
 40
1
 10
202.178159
 20
125.670053
 30
0.0
 10
200.098634
 20
125.670053
 30
0.0
 10
198.614853
 20
125.491421
 30
0.0
 10
197.726818
 20
125.134150
 30
0.0
  0
SPLINE
  5
1b4
100
AcDbEntity
  8
0
 62
7
100
AcDbSpline
 70
8
 71
3
 72
8
 73
4
 74
0
 40
0
 40
0
 40
0
 40
0
 40
1
 40
1
 40
1
 40
1
 10
197.726818
 20
125.134150
 30
0.0
 10
196.838783
 20
124.776878
 30
0.0
 10
196.394758
 20
124.206401
 30
0.0
 10
196.394758
 20
123.422716
 30
0.0
  0
SPLINE
  5
1b5
100
AcDbEntity
  8
0
 62
7
100
AcDbSpline
 70
8
 71
3
 72
8
 73
4
 74
0
 40
0
 40
0
 40
0
 40
0
 40
1
 40
1
 40
1
 40
1
 10
196.394758
 20
123.422716
 30
0.0
 10
196.394758
 20
122.749670
 30
0.0
 10
196.901249
 20
122.234511
 30
0.0
 10
197.914243
 20
121.877240
 30
0.0
  0
SPLINE
  5
1b6
100
AcDbEntity
  8
0
 62
7
100
AcDbSpline
 70
8
 71
3
 72
8
 73
4
 74
0
 40
0
 40
0
 40
0
 40
0
 40
1
 40
1
 40
1
 40
1
 10
197.914243
 20
121.877240
 30
0.0
 10
198.927238
 20
121.519968
 30
0.0
 10
200.357468
 20
121.341336
 30
0.0
 10
202.204948
 20
121.341336
 30
0.0
  0
SPLINE
  5
1b7
100
AcDbEntity
  8
0
 62
7
100
AcDbSpline
 70
8
 71
3
 72
8
 73
4
 74
0
 40
0
 40
0
 40
0
 40
0
 40
1
 40
1
 40
1
 40
1
 10
202.204948
 20
121.341336
 30
0.0
 10
204.079202
 20
121.341336
 30
0.0
 10
205.493823
 20
121.518821
 30
0.0
 10
206.448796
 20
121.873782
 30
0.0
  0
SPLINE
  5
1b8
100
AcDbEntity
  8
0
 62
7
100
AcDbSpline
 70
8
 71
3
 72
8
 73
4
 74
0
 40
0
 40
0
 40
0
 40
0
 40
1
 40
1
 40
1
 40
1
 10
206.448796
 20
121.873782
 30
0.0
 10
207.403769
 20
122.228744
 30
0.0
 10
207.881262
 20
122.749663
 30
0.0
 10
207.881262
 20
123.436539
 30
0.0
  0
LWPOLYLINE
  5
1b9
100
AcDbEntity
  8
0
 62
7
100
AcDbPolyline
 90
2
 70
1
 10
202.646723
 20
125.670053
 30
0.0
 10
202.178159
 20
125.670053
 30
0.0
  0
SPLINE
  5
1ba
100
AcDbEntity
  8
0
 62
7
100
AcDbSpline
 70
8
 71
3
 72
8
 73
4
 74
0
 40
0
 40
0
 40
0
 40
0
 40
1
 40
1
 40
1
 40
1
 10
208.055300
 20
129.085992
 30
0.0
 10
207.457319
 20
129.085992
 30
0.0
 10
207.004392
 20
129.156288
 30
0.0
 10
206.696479
 20
129.296889
 30
0.0
  0
SPLINE
  5
1bb
100
AcDbEntity
  8
0
 62
7
100
AcDbSpline
 70
8
 71
3
 72
8
 73
4
 74
0
 40
0
 40
0
 40
0
 40
0
 40
1
 40
1
 40
1
 40
1
 10
206.696479
 20
129.296889
 30
0.0
 10
206.388565
 20
129.437489
 30
0.0
 10
206.234609
 20
129.639175
 30
0.0
 10
206.234609
 20
129.901941
 30
0.0
  0
SPLINE
  5
1bc
100
AcDbEntity
  8
0
 62
7
100
AcDbSpline
 70
8
 71
3
 72
8
 73
4
 74
0
 40
0
 40
0
 40
0
 40
0
 40
1
 40
1
 40
1
 40
1
 10
206.234609
 20
129.901941
 30
0.0
 10
206.234609
 20
130.169319
 30
0.0
 10
206.388565
 20
130.377920
 30
0.0
 10
206.696479
 20
130.527745
 30
0.0
  0
SPLINE
  5
1bd
100
AcDbEntity
  8
0
 62
7
100
AcDbSpline
 70
8
 71
3
 72
8
 73
4
 74
0
 40
0
 40
0
 40
0
 40
0
 40
1
 40
1
 40
1
 40
1
 10
206.696479
 20
130.527745
 30
0.0
 10
207.004392
 20
130.677569
 30
0.0
 10
207.457332
 20
130.752478
 30
0.0
 10
208.055313
 20
130.752478
 30
0.0
  0
SPLINE
  5
1be
100
AcDbEntity
  8
0
 62
7
100
AcDbSpline
 70
8
 71
3
 72
8
 73
4
 74
0
 40
0
 40
0
 40
0
 40
0
 40
1
 40
1
 40
1
 40
1
 10
208.055313
 20
130.752478
 30
0.0
 10
208.635435
 20
130.752478
 30
0.0
 10
209.081682
 20
130.676415
 30
0.0
 10
209.394053
 20
130.524287
 30
0.0
  0
SPLINE
  5
1bf
100
AcDbEntity
  8
0
 62
7
100
AcDbSpline
 70
8
 71
3
 72
8
 73
4
 74
0
 40
0
 40
0
 40
0
 40
0
 40
1
 40
1
 40
1
 40
1
 10
209.394053
 20
130.524287
 30
0.0
 10
209.706424
 20
130.372160
 30
0.0
 10
209.862617
 20
130.164713
 30
0.0
 10
209.862617
 20
129.901948
 30
0.0
  0
SPLINE
  5
1c0
100
AcDbEntity
  8
0
 62
7
100
AcDbSpline
 70
8
 71
3
 72
8
 73
4
 74
0
 40
0
 40
0
 40
0
 40
0
 40
1
 40
1
 40
1
 40
1
 10
209.862617
 20
129.901948
 30
0.0
 10
209.862617
 20
129.666842
 30
0.0
 10
209.722048
 20
129.472070
 30
0.0
 10
209.440909
 20
129.317640
 30
0.0
  0
SPLINE
  5
1c1
100
AcDbEntity
  8
0
 62
7
100
AcDbSpline
 70
8
 71
3
 72
8
 73
4
 74
0
 40
0
 40
0
 40
0
 40
0
 40
1
 40
1
 40
1
 40
1
 10
209.440909
 20
129.317640
 30
0.0
 10
209.159771
 20
129.163210
 30
0.0
 10
208.697901
 20
129.085992
 30
0.0
 10
208.055300
 20
129.085992
 30
0.0
  0
LWPOLYLINE
  5
1c2
100
AcDbEntity
  8
0
 62
7
100
AcDbPolyline
 90
2
 70
1
 10
207.881262
 20
123.436539
 30
0.0
 10
207.881262
 20
123.436539
 30
0.0
  0
LWPOLYLINE
  5
1c3
100
AcDbEntity
  8
0
 62
7
100
AcDbPolyline
 90
2
 70
1
 10
208.055300
 20
129.085992
 30
0.0
 10
208.055300
 20
129.085992
 30
0.0
  0
SPLINE
  5
1c4
100
AcDbEntity
  8
0
 62
7
100
AcDbSpline
 70
8
 71
3
 72
8
 73
4
 74
0
 40
0
 40
0
 40
0
 40
0
 40
1
 40
1
 40
1
 40
1
 10
199.929067
 20
142.680652
 30
0.0
 10
198.759894
 20
142.680652
 30
0.0
 10
197.883010
 20
142.551572
 30
0.0
 10
197.298417
 20
142.293418
 30
0.0
  0
SPLINE
  5
1c5
100
AcDbEntity
  8
0
 62
7
100
AcDbSpline
 70
8
 71
3
 72
8
 73
4
 74
0
 40
0
 40
0
 40
0
 40
0
 40
1
 40
1
 40
1
 40
1
 10
197.298417
 20
142.293418
 30
0.0
 10
196.713823
 20
142.035265
 30
0.0
 10
196.421533
 20
141.634202
 30
0.0
 10
196.421533
 20
141.090229
 30
0.0
  0
SPLINE
  5
1c6
100
AcDbEntity
  8
0
 62
7
100
AcDbSpline
 70
8
 71
3
 72
8
 73
4
 74
0
 40
0
 40
0
 40
0
 40
0
 40
1
 40
1
 40
1
 40
1
 10
196.421533
 20
141.090229
 30
0.0
 10
196.421533
 20
140.375693
 30
0.0
 10
196.818701
 20
139.847859
 30
0.0
 10
197.613024
 20
139.506727
 30
0.0
  0
SPLINE
  5
1c7
100
AcDbEntity
  8
0
 62
7
100
AcDbSpline
 70
8
 71
3
 72
8
 73
4
 74
0
 40
0
 40
0
 40
0
 40
0
 40
1
 40
1
 40
1
 40
1
 10
197.613024
 20
139.506727
 30
0.0
 10
198.407346
 20
139.165595
 30
0.0
 10
199.630070
 20
138.995026
 30
0.0
 10
201.281195
 20
138.995026
 30
0.0
  0
LWPOLYLINE
  5
1c8
100
AcDbEntity
  8
0
 62
7
100
AcDbPolyline
 90
2
 70
1
 10
209.474378
 20
142.680652
 30
0.0
 10
199.929067
 20
142.680652
 30
0.0
  0
SPLINE
  5
1c9
100
AcDbEntity
  8
0
 62
7
100
AcDbSpline
 70
8
 71
3
 72
8
 73
4
 74
0
 40
0
 40
0
 40
0
 40
0
 40
1
 40
1
 40
1
 40
1
 10
199.929054
 20
137.847156
 30
0.0
 10
198.759880
 20
137.847156
 30
0.0
 10
197.882997
 20
137.718076
 30
0.0
 10
197.298403
 20
137.459922
 30
0.0
  0
SPLINE
  5
1ca
100
AcDbEntity
  8
0
 62
7
100
AcDbSpline
 70
8
 71
3
 72
8
 73
4
 74
0
 40
0
 40
0
 40
0
 40
0
 40
1
 40
1
 40
1
 40
1
 10
197.298403
 20
137.459922
 30
0.0
 10
196.713810
 20
137.201769
 30
0.0
 10
196.421520
 20
136.798403
 30
0.0
 10
196.421520
 20
136.249825
 30
0.0
  0
SPLINE
  5
1cb
100
AcDbEntity
  8
0
 62
7
100
AcDbSpline
 70
8
 71
3
 72
8
 73
4
 74
0
 40
0
 40
0
 40
0
 40
0
 40
1
 40
1
 40
1
 40
1
 10
196.421520
 20
136.249825
 30
0.0
 10
196.421520
 20
135.530677
 30
0.0
 10
196.838769
 20
135.003991
 30
0.0
 10
197.673254
 20
134.669774
 30
0.0
  0
SPLINE
  5
1cc
100
AcDbEntity
  8
0
 62
7
100
AcDbSpline
 70
8
 71
3
 72
8
 73
4
 74
0
 40
0
 40
0
 40
0
 40
0
 40
1
 40
1
 40
1
 40
1
 10
197.673254
 20
134.669774
 30
0.0
 10
198.507739
 20
134.335557
 30
0.0
 10
199.875504
 20
134.168445
 30
0.0
 10
201.776533
 20
134.168445
 30
0.0
  0
LWPOLYLINE
  5
1cd
100
AcDbEntity
  8
0
 62
7
100
AcDbPolyline
 90
4
 70
1
 10
201.281195
 20
138.995026
 30
0.0
 10
209.474365
 20
138.995026
 30
0.0
 10
209.474365
 20
137.847156
 30
0.0
 10
199.929054
 20
137.847156
 30
0.0
  0
SPLINE
  5
1ce
100
AcDbEntity
  8
0
 62
7
100
AcDbSpline
 70
8
 71
3
 72
8
 73
4
 74
0
 40
0
 40
0
 40
0
 40
0
 40
1
 40
1
 40
1
 40
1
 10
196.809758
 20
134.196104
 30
0.0
 10
196.095761
 20
134.412768
 30
0.0
 10
195.537943
 20
134.718178
 30
0.0
 10
195.136317
 20
135.112326
 30
0.0
  0
SPLINE
  5
1cf
100
AcDbEntity
  8
0
 62
7
100
AcDbSpline
 70
8
 71
3
 72
8
 73
4
 74
0
 40
0
 40
0
 40
0
 40
0
 40
1
 40
1
 40
1
 40
1
 10
195.136317
 20
135.112326
 30
0.0
 10
194.734691
 20
135.506475
 30
0.0
 10
194.533878
 20
135.947872
 30
0.0
 10
194.533878
 20
136.436526
 30
0.0
  0
SPLINE
  5
1d0
100
AcDbEntity
  8
0
 62
7
100
AcDbSpline
 70
8
 71
3
 72
8
 73
4
 74
0
 40
0
 40
0
 40
0
 40
0
 40
1
 40
1
 40
1
 40
1
 10
194.533878
 20
136.436526
 30
0.0
 10
194.533878
 20
137.621274
 30
0.0
 10
195.363905
 20
138.395741
 30
0.0
 10
197.023959
 20
138.759927
 30
0.0
  0
LWPOLYLINE
  5
1d1
100
AcDbEntity
  8
0
 62
7
100
AcDbPolyline
 90
7
 70
1
 10
201.776533
 20
134.168445
 30
0.0
 10
209.474365
 20
134.168445
 30
0.0
 10
209.474365
 20
133.020574
 30
0.0
 10
194.801628
 20
133.020574
 30
0.0
 10
194.801628
 20
133.954083
 30
0.0
 10
196.809758
 20
134.140785
 30
0.0
 10
196.809758
 20
134.196104
 30
0.0
  0
SPLINE
  5
1d2
100
AcDbEntity
  8
0
 62
7
100
AcDbSpline
 70
8
 71
3
 72
8
 73
4
 74
0
 40
0
 40
0
 40
0
 40
0
 40
1
 40
1
 40
1
 40
1
 10
197.023959
 20
138.815246
 30
0.0
 10
196.256412
 20
139.041134
 30
0.0
 10
195.649515
 20
139.368437
 30
0.0
 10
195.203268
 20
139.797159
 30
0.0
  0
SPLINE
  5
1d3
100
AcDbEntity
  8
0
 62
7
100
AcDbSpline
 70
8
 71
3
 72
8
 73
4
 74
0
 40
0
 40
0
 40
0
 40
0
 40
1
 40
1
 40
1
 40
1
 10
195.203268
 20
139.797159
 30
0.0
 10
194.757021
 20
140.225882
 30
0.0
 10
194.533891
 20
140.714536
 30
0.0
 10
194.533891
 20
141.263115
 30
0.0
  0
SPLINE
  5
1d4
100
AcDbEntity
  8
0
 62
7
100
AcDbSpline
 70
8
 71
3
 72
8
 73
4
 74
0
 40
0
 40
0
 40
0
 40
0
 40
1
 40
1
 40
1
 40
1
 10
194.533891
 20
141.263115
 30
0.0
 10
194.533891
 20
142.120560
 30
0.0
 10
194.960057
 20
142.762489
 30
0.0
 10
195.812401
 20
143.188910
 30
0.0
  0
SPLINE
  5
1d5
100
AcDbEntity
  8
0
 62
7
100
AcDbSpline
 70
8
 71
3
 72
8
 73
4
 74
0
 40
0
 40
0
 40
0
 40
0
 40
1
 40
1
 40
1
 40
1
 10
195.812401
 20
143.188910
 30
0.0
 10
196.664745
 20
143.615316
 30
0.0
 10
198.028037
 20
143.828522
 30
0.0
 10
199.902292
 20
143.828522
 30
0.0
  0
LWPOLYLINE
  5
1d6
100
AcDbEntity
  8
0
 62
7
100
AcDbPolyline
 90
2
 70
1
 10
197.023959
 20
138.759927
 30
0.0
 10
197.023959
 20
138.815246
 30
0.0
  0
SPLINE
  5
1d7
100
AcDbEntity
  8
0
 62
7
100
AcDbSpline
 70
8
 71
3
 72
8
 73
4
 74
0
 40
0
 40
0
 40
0
 40
0
 40
1
 40
1
 40
1
 40
1
 10
209.742129
 20
149.395003
 30
0.0
 10
209.742129
 20
148.274792
 30
0.0
 10
209.081668
 20
147.390842
 30
0.0
 10
207.760761
 20
146.743146
 30
0.0
  0
SPLINE
  5
1d8
100
AcDbEntity
  8
0
 62
7
100
AcDbSpline
 70
8
 71
3
 72
8
 73
4
 74
0
 40
0
 40
0
 40
0
 40
0
 40
1
 40
1
 40
1
 40
1
 10
207.760761
 20
146.743146
 30
0.0
 10
206.439853
 20
146.095449
 30
0.0
 10
204.605761
 20
145.771605
 30
0.0
 10
202.258484
 20
145.771605
 30
0.0
  0
SPLINE
  5
1d9
100
AcDbEntity
  8
0
 62
7
100
AcDbSpline
 70
8
 71
3
 72
8
 73
4
 74
0
 40
0
 40
0
 40
0
 40
0
 40
1
 40
1
 40
1
 40
1
 10
202.258484
 20
145.771605
 30
0.0
 10
199.893349
 20
145.771605
 30
0.0
 10
198.014636
 20
146.072402
 30
0.0
 10
196.622333
 20
146.673997
 30
0.0
  0
SPLINE
  5
1da
100
AcDbEntity
  8
0
 62
7
100
AcDbSpline
 70
8
 71
3
 72
8
 73
4
 74
0
 40
0
 40
0
 40
0
 40
0
 40
1
 40
1
 40
1
 40
1
 10
196.622333
 20
146.673997
 30
0.0
 10
195.230030
 20
147.275592
 30
0.0
 10
194.533878
 20
148.083478
 30
0.0
 10
194.533878
 20
149.097663
 30
0.0
  0
SPLINE
  5
1db
100
AcDbEntity
  8
0
 62
7
100
AcDbSpline
 70
8
 71
3
 72
8
 73
4
 74
0
 40
0
 40
0
 40
0
 40
0
 40
1
 40
1
 40
1
 40
1
 10
194.533878
 20
149.097663
 30
0.0
 10
194.533878
 20
150.047305
 30
0.0
 10
195.138553
 20
150.798725
 30
0.0
 10
196.347889
 20
151.351915
 30
0.0
  0
SPLINE
  5
1dc
100
AcDbEntity
  8
0
 62
7
100
AcDbSpline
 70
8
 71
3
 72
8
 73
4
 74
0
 40
0
 40
0
 40
0
 40
0
 40
1
 40
1
 40
1
 40
1
 10
196.347889
 20
151.351915
 30
0.0
 10
197.557225
 20
151.905106
 30
0.0
 10
199.152577
 20
152.181701
 30
0.0
 10
201.133932
 20
152.181701
 30
0.0
  0
LWPOLYLINE
  5
1dd
100
AcDbEntity
  8
0
 62
7
100
AcDbPolyline
 90
4
 70
1
 10
199.902292
 20
143.828522
 30
0.0
 10
209.474378
 20
143.828522
 30
0.0
 10
209.474378
 20
142.680652
 30
0.0
 10
209.474378
 20
142.680652
 30
0.0
  0
SPLINE
  5
1de
100
AcDbEntity
  8
0
 62
7
100
AcDbSpline
 70
8
 71
3
 72
8
 73
4
 74
0
 40
0
 40
0
 40
0
 40
0
 40
1
 40
1
 40
1
 40
1
 10
202.539623
 20
146.960964
 30
0.0
 10
204.262156
 20
146.984012
 30
0.0
 10
205.569677
 20
147.208745
 30
0.0
 10
206.462183
 20
147.635166
 30
0.0
  0
SPLINE
  5
1df
100
AcDbEntity
  8
0
 62
7
100
AcDbSpline
 70
8
 71
3
 72
8
 73
4
 74
0
 40
0
 40
0
 40
0
 40
0
 40
1
 40
1
 40
1
 40
1
 10
206.462183
 20
147.635166
 30
0.0
 10
207.354690
 20
148.061586
 30
0.0
 10
207.800937
 20
148.662026
 30
0.0
 10
207.800937
 20
149.436493
 30
0.0
  0
SPLINE
  5
1e0
100
AcDbEntity
  8
0
 62
7
100
AcDbSpline
 70
8
 71
3
 72
8
 73
4
 74
0
 40
0
 40
0
 40
0
 40
0
 40
1
 40
1
 40
1
 40
1
 10
207.800937
 20
149.436493
 30
0.0
 10
207.800937
 20
150.252449
 30
0.0
 10
207.470706
 20
151.059187
 30
0.0
 10
206.810259
 20
151.856702
 30
0.0
  0
LWPOLYLINE
  5
1e1
100
AcDbEntity
  8
0
 62
7
100
AcDbPolyline
 90
3
 70
1
 10
201.133932
 20
152.181701
 30
0.0
 10
202.539623
 20
152.181701
 30
0.0
 10
202.539623
 20
146.960964
 30
0.0
  0
SPLINE
  5
1e2
100
AcDbEntity
  8
0
 62
7
100
AcDbSpline
 70
8
 71
3
 72
8
 73
4
 74
0
 40
0
 40
0
 40
0
 40
0
 40
1
 40
1
 40
1
 40
1
 10
208.791614
 20
151.856702
 30
0.0
 10
209.130760
 20
151.451026
 30
0.0
 10
209.373972
 20
151.067250
 30
0.0
 10
209.521235
 20
150.705374
 30
0.0
  0
SPLINE
  5
1e3
100
AcDbEntity
  8
0
 62
7
100
AcDbSpline
 70
8
 71
3
 72
8
 73
4
 74
0
 40
0
 40
0
 40
0
 40
0
 40
1
 40
1
 40
1
 40
1
 10
209.521235
 20
150.705374
 30
0.0
 10
209.668498
 20
150.343497
 30
0.0
 10
209.742129
 20
149.906705
 30
0.0
 10
209.742129
 20
149.395003
 30
0.0
  0
LWPOLYLINE
  5
1e4
100
AcDbEntity
  8
0
 62
7
100
AcDbPolyline
 90
2
 70
1
 10
206.810259
 20
151.856702
 30
0.0
 10
208.791614
 20
151.856702
 30
0.0
  0
SPLINE
  5
1e5
100
AcDbEntity
  8
0
 62
7
100
AcDbSpline
 70
8
 71
3
 72
8
 73
4
 74
0
 40
0
 40
0
 40
0
 40
0
 40
1
 40
1
 40
1
 40
1
 10
196.394745
 20
149.083834
 30
0.0
 10
196.394745
 20
148.475324
 30
0.0
 10
196.778551
 20
147.990127
 30
0.0
 10
197.546100
 20
147.628251
 30
0.0
  0
SPLINE
  5
1e6
100
AcDbEntity
  8
0
 62
7
100
AcDbSpline
 70
8
 71
3
 72
8
 73
4
 74
0
 40
0
 40
0
 40
0
 40
0
 40
1
 40
1
 40
1
 40
1
 10
197.546100
 20
147.628251
 30
0.0
 10
198.313648
 20
147.266374
 30
0.0
 10
199.375720
 20
147.053167
 30
0.0
 10
200.732319
 20
146.988631
 30
0.0
  0
LWPOLYLINE
  5
1e7
100
AcDbEntity
  8
0
 62
7
100
AcDbPolyline
 90
2
 70
1
 10
209.742129
 20
149.395003
 30
0.0
 10
209.742129
 20
149.395003
 30
0.0
  0
SPLINE
  5
1e8
100
AcDbEntity
  8
0
 62
7
100
AcDbSpline
 70
8
 71
3
 72
8
 73
4
 74
0
 40
0
 40
0
 40
0
 40
0
 40
1
 40
1
 40
1
 40
1
 10
200.732319
 20
150.950859
 30
0.0
 10
199.331086
 20
150.950859
 30
0.0
 10
198.257848
 20
150.789514
 30
0.0
 10
197.512604
 20
150.466817
 30
0.0
  0
SPLINE
  5
1e9
100
AcDbEntity
  8
0
 62
7
100
AcDbSpline
 70
8
 71
3
 72
8
 73
4
 74
0
 40
0
 40
0
 40
0
 40
0
 40
1
 40
1
 40
1
 40
1
 10
197.512604
 20
150.466817
 30
0.0
 10
196.767360
 20
150.144120
 30
0.0
 10
196.394745
 20
149.683126
 30
0.0
 10
196.394745
 20
149.083834
 30
0.0
  0
LWPOLYLINE
  5
1ea
100
AcDbEntity
  8
0
 62
7
100
AcDbPolyline
 90
2
 70
1
 10
200.732319
 20
146.988631
 30
0.0
 10
200.732319
 20
150.950859
 30
0.0
  0
SPLINE
  5
1eb
100
AcDbEntity
  8
0
 62
7
100
AcDbSpline
 70
8
 71
3
 72
8
 73
4
 74
0
 40
0
 40
0
 40
0
 40
0
 40
1
 40
1
 40
1
 40
1
 10
432.671098
 20
56.548867
 30
0.0
 10
432.671098
 20
57.544611
 30
0.0
 10
433.329323
 20
58.317923
 30
0.0
 10
434.645759
 20
58.868811
 30
0.0
  0
SPLINE
  5
1ec
100
AcDbEntity
  8
0
 62
7
100
AcDbSpline
 70
8
 71
3
 72
8
 73
4
 74
0
 40
0
 40
0
 40
0
 40
0
 40
1
 40
1
 40
1
 40
1
 10
434.645759
 20
58.868811
 30
0.0
 10
435.962196
 20
59.419699
 30
0.0
 10
437.825299
 20
59.695139
 30
0.0
 10
440.235055
 20
59.695139
 30
0.0
  0
SPLINE
  5
1ed
100
AcDbEntity
  8
0
 62
7
100
AcDbSpline
 70
8
 71
3
 72
8
 73
4
 74
0
 40
0
 40
0
 40
0
 40
0
 40
1
 40
1
 40
1
 40
1
 10
440.235055
 20
59.695139
 30
0.0
 10
442.644811
 20
59.695139
 30
0.0
 10
444.516829
 20
59.417389
 30
0.0
 10
445.851125
 20
58.861896
 30
0.0
  0
SPLINE
  5
1ee
100
AcDbEntity
  8
0
 62
7
100
AcDbSpline
 70
8
 71
3
 72
8
 73
4
 74
0
 40
0
 40
0
 40
0
 40
0
 40
1
 40
1
 40
1
 40
1
 10
445.851125
 20
58.861896
 30
0.0
 10
447.185420
 20
58.306402
 30
0.0
 10
447.852561
 20
57.535393
 30
0.0
 10
447.852561
 20
56.548867
 30
0.0
  0
SPLINE
  5
1ef
100
AcDbEntity
  8
0
 62
7
100
AcDbSpline
 70
8
 71
3
 72
8
 73
4
 74
0
 40
0
 40
0
 40
0
 40
0
 40
1
 40
1
 40
1
 40
1
 10
447.852561
 20
56.548867
 30
0.0
 10
447.852561
 20
56.055608
 30
0.0
 10
447.676287
 20
55.604986
 30
0.0
 10
447.323753
 20
55.197008
 30
0.0
  0
SPLINE
  5
1f0
100
AcDbEntity
  8
0
 62
7
100
AcDbSpline
 70
8
 71
3
 72
8
 73
4
 74
0
 40
0
 40
0
 40
0
 40
0
 40
1
 40
1
 40
1
 40
1
 10
447.323753
 20
55.197008
 30
0.0
 10
446.971219
 20
54.789030
 30
0.0
 10
446.429024
 20
54.446743
 30
0.0
 10
445.697168
 20
54.170148
 30
0.0
  0
LWPOLYLINE
  5
1f1
100
AcDbEntity
  8
0
 62
7
100
AcDbPolyline
 90
2
 70
1
 10
196.394745
 20
149.083834
 30
0.0
 10
196.394745
 20
149.083834
 30
0.0
  0
SPLINE
  5
1f2
100
AcDbEntity
  8
0
 62
7
100
AcDbSpline
 70
8
 71
3
 72
8
 73
4
 74
0
 40
0
 40
0
 40
0
 40
0
 40
1
 40
1
 40
1
 40
1
 10
431.814296
 20
54.170148
 30
0.0
 10
432.947778
 20
54.170148
 30
0.0
 10
433.965231
 20
54.151706
 30
0.0
 10
434.866654
 20
54.114829
 30
0.0
  0
LWPOLYLINE
  5
1f3
100
AcDbEntity
  8
0
 62
7
100
AcDbPolyline
 90
7
 70
1
 10
445.697168
 20
54.170148
 30
0.0
 10
445.697168
 20
54.087169
 30
0.0
 10
447.584810
 20
53.845148
 30
0.0
 10
447.584810
 20
53.022277
 30
0.0
 10
426.753809
 20
53.022277
 30
0.0
 10
426.753809
 20
54.170148
 30
0.0
 10
431.814296
 20
54.170148
 30
0.0
  0
SPLINE
  5
1f4
100
AcDbEntity
  8
0
 62
7
100
AcDbSpline
 70
8
 71
3
 72
8
 73
4
 74
0
 40
0
 40
0
 40
0
 40
0
 40
1
 40
1
 40
1
 40
1
 10
434.866654
 20
54.170148
 30
0.0
 10
433.402955
 20
54.704896
 30
0.0
 10
432.671098
 20
55.497805
 30
0.0
 10
432.671098
 20
56.548867
 30
0.0
  0
LWPOLYLINE
  5
1f5
100
AcDbEntity
  8
0
 62
7
100
AcDbPolyline
 90
2
 70
1
 10
434.866654
 20
54.114829
 30
0.0
 10
434.866654
 20
54.170148
 30
0.0
  0
SPLINE
  5
1f6
100
AcDbEntity
  8
0
 62
7
100
AcDbSpline
 70
8
 71
3
 72
8
 73
4
 74
0
 40
0
 40
0
 40
0
 40
0
 40
1
 40
1
 40
1
 40
1
 10
434.531965
 20
56.382910
 30
0.0
 10
434.531965
 20
55.599226
 30
0.0
 10
434.967047
 20
55.034515
 30
0.0
 10
435.837236
 20
54.688771
 30
0.0
  0
SPLINE
  5
1f7
100
AcDbEntity
  8
0
 62
7
100
AcDbSpline
 70
8
 71
3
 72
8
 73
4
 74
0
 40
0
 40
0
 40
0
 40
0
 40
1
 40
1
 40
1
 40
1
 10
435.837236
 20
54.688771
 30
0.0
 10
436.707426
 20
54.343027
 30
0.0
 10
438.173361
 20
54.170154
 30
0.0
 10
440.235041
 20
54.170154
 30
0.0
  0
SPLINE
  5
1f8
100
AcDbEntity
  8
0
 62
7
100
AcDbSpline
 70
8
 71
3
 72
8
 73
4
 74
0
 40
0
 40
0
 40
0
 40
0
 40
1
 40
1
 40
1
 40
1
 10
440.235041
 20
54.170154
 30
0.0
 10
442.296721
 20
54.170154
 30
0.0
 10
443.771586
 20
54.347639
 30
0.0
 10
444.659621
 20
54.702600
 30
0.0
  0
SPLINE
  5
1f9
100
AcDbEntity
  8
0
 62
7
100
AcDbSpline
 70
8
 71
3
 72
8
 73
4
 74
0
 40
0
 40
0
 40
0
 40
0
 40
1
 40
1
 40
1
 40
1
 10
444.659621
 20
54.702600
 30
0.0
 10
445.547656
 20
55.057562
 30
0.0
 10
445.991680
 20
55.626885
 30
0.0
 10
445.991680
 20
56.410570
 30
0.0
  0
SPLINE
  5
1fa
100
AcDbEntity
  8
0
 62
7
100
AcDbSpline
 70
8
 71
3
 72
8
 73
4
 74
0
 40
0
 40
0
 40
0
 40
0
 40
1
 40
1
 40
1
 40
1
 10
445.991680
 20
56.410570
 30
0.0
 10
445.991680
 20
57.115888
 30
0.0
 10
445.494106
 20
57.641419
 30
0.0
 10
444.498970
 20
57.987163
 30
0.0
  0
SPLINE
  5
1fb
100
AcDbEntity
  8
0
 62
7
100
AcDbSpline
 70
8
 71
3
 72
8
 73
4
 74
0
 40
0
 40
0
 40
0
 40
0
 40
1
 40
1
 40
1
 40
1
 10
444.498970
 20
57.987163
 30
0.0
 10
443.503835
 20
58.332907
 30
0.0
 10
442.073605
 20
58.505779
 30
0.0
 10
440.208279
 20
58.505779
 30
0.0
  0
SPLINE
  5
1fc
100
AcDbEntity
  8
0
 62
7
100
AcDbSpline
 70
8
 71
3
 72
8
 73
4
 74
0
 40
0
 40
0
 40
0
 40
0
 40
1
 40
1
 40
1
 40
1
 10
440.208279
 20
58.505779
 30
0.0
 10
438.298320
 20
58.505779
 30
0.0
 10
436.874784
 20
58.332907
 30
0.0
 10
435.937656
 20
57.987163
 30
0.0
  0
SPLINE
  5
1fd
100
AcDbEntity
  8
0
 62
7
100
AcDbSpline
 70
8
 71
3
 72
8
 73
4
 74
0
 40
0
 40
0
 40
0
 40
0
 40
1
 40
1
 40
1
 40
1
 10
435.937656
 20
57.987163
 30
0.0
 10
435.000529
 20
57.641419
 30
0.0
 10
434.531965
 20
57.106670
 30
0.0
 10
434.531965
 20
56.382910
 30
0.0
  0
LWPOLYLINE
  5
1fe
100
AcDbEntity
  8
0
 62
7
100
AcDbPolyline
 90
2
 70
1
 10
432.671098
 20
56.548867
 30
0.0
 10
432.671098
 20
56.548867
 30
0.0
  0
SPLINE
  5
1ff
100
AcDbEntity
  8
0
 62
7
100
AcDbSpline
 70
8
 71
3
 72
8
 73
4
 74
0
 40
0
 40
0
 40
0
 40
0
 40
1
 40
1
 40
1
 40
1
 10
432.644323
 20
65.157897
 30
0.0
 10
432.644323
 20
65.494424
 30
0.0
 10
432.697873
 20
65.796369
 30
0.0
 10
432.804974
 20
66.063747
 30
0.0
  0
LWPOLYLINE
  5
200
100
AcDbEntity
  8
0
 62
7
100
AcDbPolyline
 90
2
 70
1
 10
434.531965
 20
56.382910
 30
0.0
 10
434.531965
 20
56.382910
 30
0.0
  0
SPLINE
  5
201
100
AcDbEntity
  8
0
 62
7
100
AcDbSpline
 70
8
 71
3
 72
8
 73
4
 74
0
 40
0
 40
0
 40
0
 40
0
 40
1
 40
1
 40
1
 40
1
 10
434.866654
 20
65.904704
 30
0.0
 10
434.732778
 20
65.591232
 30
0.0
 10
434.665841
 20
65.314637
 30
0.0
 10
434.665841
 20
65.074918
 30
0.0
  0
SPLINE
  5
202
100
AcDbEntity
  8
0
 62
7
100
AcDbSpline
 70
8
 71
3
 72
8
 73
4
 74
0
 40
0
 40
0
 40
0
 40
0
 40
1
 40
1
 40
1
 40
1
 10
434.665841
 20
65.074918
 30
0.0
 10
434.665841
 20
64.461796
 30
0.0
 10
435.147792
 20
63.937420
 30
0.0
 10
436.111694
 20
63.501782
 30
0.0
  0
SPLINE
  5
203
100
AcDbEntity
  8
0
 62
7
100
AcDbSpline
 70
8
 71
3
 72
8
 73
4
 74
0
 40
0
 40
0
 40
0
 40
0
 40
1
 40
1
 40
1
 40
1
 10
436.111694
 20
63.501782
 30
0.0
 10
437.075597
 20
63.066145
 30
0.0
 10
438.276017
 20
62.848326
 30
0.0
 10
439.712941
 20
62.848326
 30
0.0
  0
LWPOLYLINE
  5
204
100
AcDbEntity
  8
0
 62
7
100
AcDbPolyline
 90
2
 70
1
 10
432.804974
 20
66.063747
 30
0.0
 10
434.866654
 20
65.904704
 30
0.0
  0
SPLINE
  5
205
100
AcDbEntity
  8
0
 62
7
100
AcDbSpline
 70
8
 71
3
 72
8
 73
4
 74
0
 40
0
 40
0
 40
0
 40
0
 40
1
 40
1
 40
1
 40
1
 10
435.629743
 20
62.834496
 30
0.0
 10
434.674770
 20
63.115704
 30
0.0
 10
433.938456
 20
63.454533
 30
0.0
 10
433.420800
 20
63.850984
 30
0.0
  0
SPLINE
  5
206
100
AcDbEntity
  8
0
 62
7
100
AcDbSpline
 70
8
 71
3
 72
8
 73
4
 74
0
 40
0
 40
0
 40
0
 40
0
 40
1
 40
1
 40
1
 40
1
 10
433.420800
 20
63.850984
 30
0.0
 10
432.903144
 20
64.247435
 30
0.0
 10
432.644323
 20
64.683073
 30
0.0
 10
432.644323
 20
65.157897
 30
0.0
  0
LWPOLYLINE
  5
207
100
AcDbEntity
  8
0
 62
7
100
AcDbPolyline
 90
7
 70
1
 10
439.712941
 20
62.848326
 30
0.0
 10
447.584810
 20
62.848326
 30
0.0
 10
447.584810
 20
61.700455
 30
0.0
 10
432.912074
 20
61.700455
 30
0.0
 10
432.912074
 20
62.647794
 30
0.0
 10
435.629743
 20
62.779177
 30
0.0
 10
435.629743
 20
62.834496
 30
0.0
  0
SPLINE
  5
208
100
AcDbEntity
  8
0
 62
7
100
AcDbSpline
 70
8
 71
3
 72
8
 73
4
 74
0
 40
0
 40
0
 40
0
 40
0
 40
1
 40
1
 40
1
 40
1
 10
447.852561
 20
70.682889
 30
0.0
 10
447.852561
 20
69.562677
 30
0.0
 10
447.192100
 20
68.678727
 30
0.0
 10
445.871193
 20
68.031031
 30
0.0
  0
SPLINE
  5
209
100
AcDbEntity
  8
0
 62
7
100
AcDbSpline
 70
8
 71
3
 72
8
 73
4
 74
0
 40
0
 40
0
 40
0
 40
0
 40
1
 40
1
 40
1
 40
1
 10
445.871193
 20
68.031031
 30
0.0
 10
444.550285
 20
67.383334
 30
0.0
 10
442.716193
 20
67.059490
 30
0.0
 10
440.368916
 20
67.059490
 30
0.0
  0
SPLINE
  5
20a
100
AcDbEntity
  8
0
 62
7
100
AcDbSpline
 70
8
 71
3
 72
8
 73
4
 74
0
 40
0
 40
0
 40
0
 40
0
 40
1
 40
1
 40
1
 40
1
 10
440.368916
 20
67.059490
 30
0.0
 10
438.003781
 20
67.059490
 30
0.0
 10
436.125068
 20
67.360287
 30
0.0
 10
434.732765
 20
67.961882
 30
0.0
  0
SPLINE
  5
20b
100
AcDbEntity
  8
0
 62
7
100
AcDbSpline
 70
8
 71
3
 72
8
 73
4
 74
0
 40
0
 40
0
 40
0
 40
0
 40
1
 40
1
 40
1
 40
1
 10
434.732765
 20
67.961882
 30
0.0
 10
433.340462
 20
68.563477
 30
0.0
 10
432.644310
 20
69.371363
 30
0.0
 10
432.644310
 20
70.385549
 30
0.0
  0
SPLINE
  5
20c
100
AcDbEntity
  8
0
 62
7
100
AcDbSpline
 70
8
 71
3
 72
8
 73
4
 74
0
 40
0
 40
0
 40
0
 40
0
 40
1
 40
1
 40
1
 40
1
 10
432.644310
 20
70.385549
 30
0.0
 10
432.644310
 20
71.335190
 30
0.0
 10
433.248985
 20
72.086610
 30
0.0
 10
434.458321
 20
72.639800
 30
0.0
  0
SPLINE
  5
20d
100
AcDbEntity
  8
0
 62
7
100
AcDbSpline
 70
8
 71
3
 72
8
 73
4
 74
0
 40
0
 40
0
 40
0
 40
0
 40
1
 40
1
 40
1
 40
1
 10
434.458321
 20
72.639800
 30
0.0
 10
435.667657
 20
73.192991
 30
0.0
 10
437.263009
 20
73.469586
 30
0.0
 10
439.244364
 20
73.469586
 30
0.0
  0
LWPOLYLINE
  5
20e
100
AcDbEntity
  8
0
 62
7
100
AcDbPolyline
 90
2
 70
1
 10
432.644323
 20
65.157897
 30
0.0
 10
432.644323
 20
65.157897
 30
0.0
  0
SPLINE
  5
20f
100
AcDbEntity
  8
0
 62
7
100
AcDbSpline
 70
8
 71
3
 72
8
 73
4
 74
0
 40
0
 40
0
 40
0
 40
0
 40
1
 40
1
 40
1
 40
1
 10
440.650055
 20
68.248850
 30
0.0
 10
442.372588
 20
68.271897
 30
0.0
 10
443.680109
 20
68.496631
 30
0.0
 10
444.572615
 20
68.923051
 30
0.0
  0
SPLINE
  5
210
100
AcDbEntity
  8
0
 62
7
100
AcDbSpline
 70
8
 71
3
 72
8
 73
4
 74
0
 40
0
 40
0
 40
0
 40
0
 40
1
 40
1
 40
1
 40
1
 10
444.572615
 20
68.923051
 30
0.0
 10
445.465122
 20
69.349471
 30
0.0
 10
445.911369
 20
69.949911
 30
0.0
 10
445.911369
 20
70.724378
 30
0.0
  0
SPLINE
  5
211
100
AcDbEntity
  8
0
 62
7
100
AcDbSpline
 70
8
 71
3
 72
8
 73
4
 74
0
 40
0
 40
0
 40
0
 40
0
 40
1
 40
1
 40
1
 40
1
 10
445.911369
 20
70.724378
 30
0.0
 10
445.911369
 20
71.540334
 30
0.0
 10
445.581138
 20
72.347073
 30
0.0
 10
444.920691
 20
73.144587
 30
0.0
  0
LWPOLYLINE
  5
212
100
AcDbEntity
  8
0
 62
7
100
AcDbPolyline
 90
3
 70
1
 10
439.244364
 20
73.469586
 30
0.0
 10
440.650055
 20
73.469586
 30
0.0
 10
440.650055
 20
68.248850
 30
0.0
  0
SPLINE
  5
213
100
AcDbEntity
  8
0
 62
7
100
AcDbSpline
 70
8
 71
3
 72
8
 73
4
 74
0
 40
0
 40
0
 40
0
 40
0
 40
1
 40
1
 40
1
 40
1
 10
446.902046
 20
73.144587
 30
0.0
 10
447.241192
 20
72.738911
 30
0.0
 10
447.484404
 20
72.355135
 30
0.0
 10
447.631667
 20
71.993259
 30
0.0
  0
SPLINE
  5
214
100
AcDbEntity
  8
0
 62
7
100
AcDbSpline
 70
8
 71
3
 72
8
 73
4
 74
0
 40
0
 40
0
 40
0
 40
0
 40
1
 40
1
 40
1
 40
1
 10
447.631667
 20
71.993259
 30
0.0
 10
447.778930
 20
71.631382
 30
0.0
 10
447.852561
 20
71.194590
 30
0.0
 10
447.852561
 20
70.682889
 30
0.0
  0
LWPOLYLINE
  5
215
100
AcDbEntity
  8
0
 62
7
100
AcDbPolyline
 90
2
 70
1
 10
444.920691
 20
73.144587
 30
0.0
 10
446.902046
 20
73.144587
 30
0.0
  0
SPLINE
  5
216
100
AcDbEntity
  8
0
 62
7
100
AcDbSpline
 70
8
 71
3
 72
8
 73
4
 74
0
 40
0
 40
0
 40
0
 40
0
 40
1
 40
1
 40
1
 40
1
 10
434.505177
 20
70.371719
 30
0.0
 10
434.505177
 20
69.763209
 30
0.0
 10
434.888983
 20
69.278012
 30
0.0
 10
435.656532
 20
68.916136
 30
0.0
  0
SPLINE
  5
217
100
AcDbEntity
  8
0
 62
7
100
AcDbSpline
 70
8
 71
3
 72
8
 73
4
 74
0
 40
0
 40
0
 40
0
 40
0
 40
1
 40
1
 40
1
 40
1
 10
435.656532
 20
68.916136
 30
0.0
 10
436.424080
 20
68.554259
 30
0.0
 10
437.486152
 20
68.341053
 30
0.0
 10
438.842751
 20
68.276516
 30
0.0
  0
LWPOLYLINE
  5
218
100
AcDbEntity
  8
0
 62
7
100
AcDbPolyline
 90
2
 70
1
 10
447.852561
 20
70.682889
 30
0.0
 10
447.852561
 20
70.682889
 30
0.0
  0
SPLINE
  5
219
100
AcDbEntity
  8
0
 62
7
100
AcDbSpline
 70
8
 71
3
 72
8
 73
4
 74
0
 40
0
 40
0
 40
0
 40
0
 40
1
 40
1
 40
1
 40
1
 10
438.842751
 20
72.238744
 30
0.0
 10
437.441518
 20
72.238744
 30
0.0
 10
436.368280
 20
72.077399
 30
0.0
 10
435.623036
 20
71.754702
 30
0.0
  0
SPLINE
  5
21a
100
AcDbEntity
  8
0
 62
7
100
AcDbSpline
 70
8
 71
3
 72
8
 73
4
 74
0
 40
0
 40
0
 40
0
 40
0
 40
1
 40
1
 40
1
 40
1
 10
435.623036
 20
71.754702
 30
0.0
 10
434.877792
 20
71.432005
 30
0.0
 10
434.505177
 20
70.971011
 30
0.0
 10
434.505177
 20
70.371719
 30
0.0
  0
LWPOLYLINE
  5
21b
100
AcDbEntity
  8
0
 62
7
100
AcDbPolyline
 90
2
 70
1
 10
438.842751
 20
68.276516
 30
0.0
 10
438.842751
 20
72.238744
 30
0.0
  0
LWPOLYLINE
  5
21c
100
AcDbEntity
  8
0
 62
7
100
AcDbPolyline
 90
2
 70
1
 10
434.505177
 20
70.371719
 30
0.0
 10
434.505177
 20
70.371719
 30
0.0
  0
SPLINE
  5
21d
100
AcDbEntity
  8
0
 62
7
100
AcDbSpline
 70
8
 71
3
 72
8
 73
4
 74
0
 40
0
 40
0
 40
0
 40
0
 40
1
 40
1
 40
1
 40
1
 10
445.496355
 20
79.803612
 30
0.0
 10
446.415637
 20
79.425597
 30
0.0
 10
447.038157
 20
79.048735
 30
0.0
 10
447.363916
 20
78.673029
 30
0.0
  0
SPLINE
  5
21e
100
AcDbEntity
  8
0
 62
7
100
AcDbSpline
 70
8
 71
3
 72
8
 73
4
 74
0
 40
0
 40
0
 40
0
 40
0
 40
1
 40
1
 40
1
 40
1
 10
447.363916
 20
78.673029
 30
0.0
 10
447.689675
 20
78.297323
 30
0.0
 10
447.852561
 20
77.828265
 30
0.0
 10
447.852561
 20
77.265857
 30
0.0
  0
SPLINE
  5
21f
100
AcDbEntity
  8
0
 62
7
100
AcDbSpline
 70
8
 71
3
 72
8
 73
4
 74
0
 40
0
 40
0
 40
0
 40
0
 40
1
 40
1
 40
1
 40
1
 10
447.852561
 20
77.265857
 30
0.0
 10
447.852561
 20
76.514438
 30
0.0
 10
447.477710
 20
75.925518
 30
0.0
 10
446.728008
 20
75.499098
 30
0.0
  0
SPLINE
  5
220
100
AcDbEntity
  8
0
 62
7
100
AcDbSpline
 70
8
 71
3
 72
8
 73
4
 74
0
 40
0
 40
0
 40
0
 40
0
 40
1
 40
1
 40
1
 40
1
 10
446.728008
 20
75.499098
 30
0.0
 10
445.978306
 20
75.072678
 30
0.0
 10
444.911762
 20
74.859471
 30
0.0
 10
443.528388
 20
74.859471
 30
0.0
  0
SPLINE
  5
221
100
AcDbEntity
  8
0
 62
7
100
AcDbSpline
 70
8
 71
3
 72
8
 73
4
 74
0
 40
0
 40
0
 40
0
 40
0
 40
1
 40
1
 40
1
 40
1
 10
443.528388
 20
74.859471
 30
0.0
 10
440.565285
 20
74.859471
 30
0.0
 10
439.012331
 20
76.083405
 30
0.0
 10
438.869526
 20
78.531274
 30
0.0
  0
LWPOLYLINE
  5
222
100
AcDbEntity
  8
0
 62
7
100
AcDbPolyline
 90
3
 70
1
 10
447.584810
 20
80.087130
 30
0.0
 10
445.496355
 20
79.858932
 30
0.0
 10
445.496355
 20
79.803612
 30
0.0
  0
SPLINE
  5
223
100
AcDbEntity
  8
0
 62
7
100
AcDbSpline
 70
8
 71
3
 72
8
 73
4
 74
0
 40
0
 40
0
 40
0
 40
0
 40
1
 40
1
 40
1
 40
1
 10
437.878849
 20
79.817442
 30
0.0
 10
436.727521
 20
79.817442
 30
0.0
 10
435.877412
 20
79.689517
 30
0.0
 10
435.328524
 20
79.433666
 30
0.0
  0
SPLINE
  5
224
100
AcDbEntity
  8
0
 62
7
100
AcDbSpline
 70
8
 71
3
 72
8
 73
4
 74
0
 40
0
 40
0
 40
0
 40
0
 40
1
 40
1
 40
1
 40
1
 10
435.328524
 20
79.433666
 30
0.0
 10
434.779635
 20
79.177816
 30
0.0
 10
434.505190
 20
78.768683
 30
0.0
 10
434.505190
 20
78.206274
 30
0.0
  0
SPLINE
  5
225
100
AcDbEntity
  8
0
 62
7
100
AcDbSpline
 70
8
 71
3
 72
8
 73
4
 74
0
 40
0
 40
0
 40
0
 40
0
 40
1
 40
1
 40
1
 40
1
 10
434.505190
 20
78.206274
 30
0.0
 10
434.505190
 20
77.574717
 30
0.0
 10
434.880041
 20
76.860182
 30
0.0
 10
435.629743
 20
76.062668
 30
0.0
  0
LWPOLYLINE
  5
226
100
AcDbEntity
  8
0
 62
7
100
AcDbPolyline
 90
3
 70
1
 10
438.869526
 20
78.531274
 30
0.0
 10
438.789201
 20
79.817442
 30
0.0
 10
437.878849
 20
79.817442
 30
0.0
  0
SPLINE
  5
227
100
AcDbEntity
  8
0
 62
7
100
AcDbSpline
 70
8
 71
3
 72
8
 73
4
 74
0
 40
0
 40
0
 40
0
 40
0
 40
1
 40
1
 40
1
 40
1
 10
433.929526
 20
75.710009
 30
0.0
 10
433.536830
 20
76.083412
 30
0.0
 10
433.228917
 20
76.492545
 30
0.0
 10
433.005787
 20
76.937400
 30
0.0
  0
SPLINE
  5
228
100
AcDbEntity
  8
0
 62
7
100
AcDbSpline
 70
8
 71
3
 72
8
 73
4
 74
0
 40
0
 40
0
 40
0
 40
0
 40
1
 40
1
 40
1
 40
1
 10
433.005787
 20
76.937400
 30
0.0
 10
432.782657
 20
77.382255
 30
0.0
 10
432.671098
 20
77.828265
 30
0.0
 10
432.671098
 20
78.275430
 30
0.0
  0
SPLINE
  5
229
100
AcDbEntity
  8
0
 62
7
100
AcDbSpline
 70
8
 71
3
 72
8
 73
4
 74
0
 40
0
 40
0
 40
0
 40
0
 40
1
 40
1
 40
1
 40
1
 10
432.671098
 20
78.275430
 30
0.0
 10
432.671098
 20
79.178977
 30
0.0
 10
433.059337
 20
79.848566
 30
0.0
 10
433.835814
 20
80.284204
 30
0.0
  0
SPLINE
  5
22a
100
AcDbEntity
  8
0
 62
7
100
AcDbSpline
 70
8
 71
3
 72
8
 73
4
 74
0
 40
0
 40
0
 40
0
 40
0
 40
1
 40
1
 40
1
 40
1
 10
433.835814
 20
80.284204
 30
0.0
 10
434.612291
 20
80.719841
 30
0.0
 10
435.857331
 20
80.937660
 30
0.0
 10
437.570935
 20
80.937660
 30
0.0
  0
LWPOLYLINE
  5
22b
100
AcDbEntity
  8
0
 62
7
100
AcDbPolyline
 90
2
 70
1
 10
435.629743
 20
76.062668
 30
0.0
 10
433.929526
 20
75.710009
 30
0.0
  0
SPLINE
  5
22c
100
AcDbEntity
  8
0
 62
7
100
AcDbSpline
 70
8
 71
3
 72
8
 73
4
 74
0
 40
0
 40
0
 40
0
 40
0
 40
1
 40
1
 40
1
 40
1
 10
446.018469
 20
77.494041
 30
0.0
 10
446.018469
 20
78.208577
 30
0.0
 10
445.639160
 20
78.769844
 30
0.0
 10
444.880529
 20
79.177822
 30
0.0
  0
SPLINE
  5
22d
100
AcDbEntity
  8
0
 62
7
100
AcDbSpline
 70
8
 71
3
 72
8
 73
4
 74
0
 40
0
 40
0
 40
0
 40
0
 40
1
 40
1
 40
1
 40
1
 10
444.880529
 20
79.177822
 30
0.0
 10
444.121897
 20
79.585801
 30
0.0
 10
443.059824
 20
79.789790
 30
0.0
 10
441.694296
 20
79.789790
 30
0.0
  0
LWPOLYLINE
  5
22e
100
AcDbEntity
  8
0
 62
7
100
AcDbPolyline
 90
4
 70
1
 10
437.570935
 20
80.937660
 30
0.0
 10
447.584810
 20
80.937660
 30
0.0
 10
447.584810
 20
80.087130
 30
0.0
 10
447.584810
 20
80.087130
 30
0.0
  0
SPLINE
  5
22f
100
AcDbEntity
  8
0
 62
7
100
AcDbSpline
 70
8
 71
3
 72
8
 73
4
 74
0
 40
0
 40
0
 40
0
 40
0
 40
1
 40
1
 40
1
 40
1
 10
440.462643
 20
78.641919
 30
0.0
 10
440.525122
 20
77.729154
 30
0.0
 10
440.799567
 20
77.071086
 30
0.0
 10
441.285976
 20
76.667720
 30
0.0
  0
SPLINE
  5
230
100
AcDbEntity
  8
0
 62
7
100
AcDbSpline
 70
8
 71
3
 72
8
 73
4
 74
0
 40
0
 40
0
 40
0
 40
0
 40
1
 40
1
 40
1
 40
1
 10
441.285976
 20
76.667720
 30
0.0
 10
441.772385
 20
76.264354
 30
0.0
 10
442.528781
 20
76.062668
 30
0.0
 10
443.555163
 20
76.062668
 30
0.0
  0
SPLINE
  5
231
100
AcDbEntity
  8
0
 62
7
100
AcDbSpline
 70
8
 71
3
 72
8
 73
4
 74
0
 40
0
 40
0
 40
0
 40
0
 40
1
 40
1
 40
1
 40
1
 10
443.555163
 20
76.062668
 30
0.0
 10
444.358415
 20
76.062668
 30
0.0
 10
444.969783
 20
76.188290
 30
0.0
 10
445.389255
 20
76.439529
 30
0.0
  0
SPLINE
  5
232
100
AcDbEntity
  8
0
 62
7
100
AcDbSpline
 70
8
 71
3
 72
8
 73
4
 74
0
 40
0
 40
0
 40
0
 40
0
 40
1
 40
1
 40
1
 40
1
 10
445.389255
 20
76.439529
 30
0.0
 10
445.808726
 20
76.690767
 30
0.0
 10
446.018469
 20
77.042271
 30
0.0
 10
446.018469
 20
77.494041
 30
0.0
  0
LWPOLYLINE
  5
233
100
AcDbEntity
  8
0
 62
7
100
AcDbPolyline
 90
3
 70
1
 10
441.694296
 20
79.789790
 30
0.0
 10
440.368930
 20
79.789790
 30
0.0
 10
440.462643
 20
78.641919
 30
0.0
  0
LWPOLYLINE
  5
234
100
AcDbEntity
  8
0
 62
7
100
AcDbPolyline
 90
2
 70
1
 10
446.018469
 20
77.494041
 30
0.0
 10
446.018469
 20
77.494041
 30
0.0
  0
SPLINE
  5
235
100
AcDbEntity
  8
0
 62
7
100
AcDbSpline
 70
8
 71
3
 72
8
 73
4
 74
0
 40
0
 40
0
 40
0
 40
0
 40
1
 40
1
 40
1
 40
1
 10
445.616843
 20
87.250955
 30
0.0
 10
447.107317
 20
86.720812
 30
0.0
 10
447.852561
 20
85.927903
 30
0.0
 10
447.852561
 20
84.872229
 30
0.0
  0
SPLINE
  5
236
100
AcDbEntity
  8
0
 62
7
100
AcDbSpline
 70
8
 71
3
 72
8
 73
4
 74
0
 40
0
 40
0
 40
0
 40
0
 40
1
 40
1
 40
1
 40
1
 10
447.852561
 20
84.872229
 30
0.0
 10
447.852561
 20
83.881098
 30
0.0
 10
447.196572
 20
83.110088
 30
0.0
 10
445.884594
 20
82.559200
 30
0.0
  0
SPLINE
  5
237
100
AcDbEntity
  8
0
 62
7
100
AcDbSpline
 70
8
 71
3
 72
8
 73
4
 74
0
 40
0
 40
0
 40
0
 40
0
 40
1
 40
1
 40
1
 40
1
 10
445.884594
 20
82.559200
 30
0.0
 10
444.572615
 20
82.008312
 30
0.0
 10
442.707290
 20
81.732872
 30
0.0
 10
440.288605
 20
81.732872
 30
0.0
  0
SPLINE
  5
238
100
AcDbEntity
  8
0
 62
7
100
AcDbSpline
 70
8
 71
3
 72
8
 73
4
 74
0
 40
0
 40
0
 40
0
 40
0
 40
1
 40
1
 40
1
 40
1
 10
440.288605
 20
81.732872
 30
0.0
 10
437.869919
 20
81.732872
 30
0.0
 10
435.991207
 20
82.009467
 30
0.0
 10
434.652453
 20
82.562658
 30
0.0
  0
SPLINE
  5
239
100
AcDbEntity
  8
0
 62
7
100
AcDbSpline
 70
8
 71
3
 72
8
 73
4
 74
0
 40
0
 40
0
 40
0
 40
0
 40
1
 40
1
 40
1
 40
1
 10
434.652453
 20
82.562658
 30
0.0
 10
433.313700
 20
83.115848
 30
0.0
 10
432.644323
 20
83.885703
 30
0.0
 10
432.644323
 20
84.872229
 30
0.0
  0
SPLINE
  5
23a
100
AcDbEntity
  8
0
 62
7
100
AcDbSpline
 70
8
 71
3
 72
8
 73
4
 74
0
 40
0
 40
0
 40
0
 40
0
 40
1
 40
1
 40
1
 40
1
 10
432.644323
 20
84.872229
 30
0.0
 10
432.644323
 20
85.900244
 30
0.0
 10
433.367250
 20
86.688540
 30
0.0
 10
434.813104
 20
87.237119
 30
0.0
  0
LWPOLYLINE
  5
23b
100
AcDbEntity
  8
0
 62
7
100
AcDbPolyline
 90
2
 70
1
 10
445.616843
 20
87.313182
 30
0.0
 10
445.616843
 20
87.250955
 30
0.0
  0
SPLINE
  5
23c
100
AcDbEntity
  8
0
 62
7
100
AcDbSpline
 70
8
 71
3
 72
8
 73
4
 74
0
 40
0
 40
0
 40
0
 40
0
 40
1
 40
1
 40
1
 40
1
 10
445.991694
 20
85.017448
 30
0.0
 10
445.991694
 20
85.801133
 30
0.0
 10
445.578903
 20
86.369315
 30
0.0
 10
444.753334
 20
86.721974
 30
0.0
  0
SPLINE
  5
23d
100
AcDbEntity
  8
0
 62
7
100
AcDbSpline
 70
8
 71
3
 72
8
 73
4
 74
0
 40
0
 40
0
 40
0
 40
0
 40
1
 40
1
 40
1
 40
1
 10
444.753334
 20
86.721974
 30
0.0
 10
443.927765
 20
87.074633
 30
0.0
 10
442.595705
 20
87.250962
 30
0.0
 10
440.757155
 20
87.250962
 30
0.0
  0
LWPOLYLINE
  5
23e
100
AcDbEntity
  8
0
 62
7
100
AcDbPolyline
 90
9
 70
1
 10
434.813104
 20
87.237119
 30
0.0
 10
434.813104
 20
87.327012
 30
0.0
 10
433.755488
 20
87.278608
 30
0.0
 10
432.724648
 20
87.250948
 30
0.0
 10
426.753809
 20
87.250948
 30
0.0
 10
426.753809
 20
88.398819
 30
0.0
 10
447.584810
 20
88.398819
 30
0.0
 10
447.584810
 20
87.465310
 30
0.0
 10
445.616843
 20
87.313182
 30
0.0
  0
SPLINE
  5
23f
100
AcDbEntity
  8
0
 62
7
100
AcDbSpline
 70
8
 71
3
 72
8
 73
4
 74
0
 40
0
 40
0
 40
0
 40
0
 40
1
 40
1
 40
1
 40
1
 10
440.288591
 20
87.250962
 30
0.0
 10
438.209066
 20
87.250962
 30
0.0
 10
436.725285
 20
87.072330
 30
0.0
 10
435.837250
 20
86.715059
 30
0.0
  0
SPLINE
  5
240
100
AcDbEntity
  8
0
 62
7
100
AcDbSpline
 70
8
 71
3
 72
8
 73
4
 74
0
 40
0
 40
0
 40
0
 40
0
 40
1
 40
1
 40
1
 40
1
 10
435.837250
 20
86.715059
 30
0.0
 10
434.949215
 20
86.357788
 30
0.0
 10
434.505190
 20
85.787310
 30
0.0
 10
434.505190
 20
85.003625
 30
0.0
  0
SPLINE
  5
241
100
AcDbEntity
  8
0
 62
7
100
AcDbSpline
 70
8
 71
3
 72
8
 73
4
 74
0
 40
0
 40
0
 40
0
 40
0
 40
1
 40
1
 40
1
 40
1
 10
434.505190
 20
85.003625
 30
0.0
 10
434.505190
 20
84.330579
 30
0.0
 10
435.011681
 20
83.815420
 30
0.0
 10
436.024675
 20
83.458149
 30
0.0
  0
SPLINE
  5
242
100
AcDbEntity
  8
0
 62
7
100
AcDbSpline
 70
8
 71
3
 72
8
 73
4
 74
0
 40
0
 40
0
 40
0
 40
0
 40
1
 40
1
 40
1
 40
1
 10
436.024675
 20
83.458149
 30
0.0
 10
437.037670
 20
83.100878
 30
0.0
 10
438.467900
 20
82.922245
 30
0.0
 10
440.315380
 20
82.922245
 30
0.0
  0
SPLINE
  5
243
100
AcDbEntity
  8
0
 62
7
100
AcDbSpline
 70
8
 71
3
 72
8
 73
4
 74
0
 40
0
 40
0
 40
0
 40
0
 40
1
 40
1
 40
1
 40
1
 10
440.315380
 20
82.922245
 30
0.0
 10
442.189634
 20
82.922245
 30
0.0
 10
443.604255
 20
83.099730
 30
0.0
 10
444.559228
 20
83.454692
 30
0.0
  0
SPLINE
  5
244
100
AcDbEntity
  8
0
 62
7
100
AcDbSpline
 70
8
 71
3
 72
8
 73
4
 74
0
 40
0
 40
0
 40
0
 40
0
 40
1
 40
1
 40
1
 40
1
 10
444.559228
 20
83.454692
 30
0.0
 10
445.514201
 20
83.809653
 30
0.0
 10
445.991694
 20
84.330572
 30
0.0
 10
445.991694
 20
85.017448
 30
0.0
  0
LWPOLYLINE
  5
245
100
AcDbEntity
  8
0
 62
7
100
AcDbPolyline
 90
2
 70
1
 10
440.757155
 20
87.250962
 30
0.0
 10
440.288591
 20
87.250962
 30
0.0
  0
SPLINE
  5
246
100
AcDbEntity
  8
0
 62
7
100
AcDbSpline
 70
8
 71
3
 72
8
 73
4
 74
0
 40
0
 40
0
 40
0
 40
0
 40
1
 40
1
 40
1
 40
1
 10
432.671098
 20
94.359448
 30
0.0
 10
432.671098
 20
95.355192
 30
0.0
 10
433.329323
 20
96.128504
 30
0.0
 10
434.645759
 20
96.679392
 30
0.0
  0
SPLINE
  5
247
100
AcDbEntity
  8
0
 62
7
100
AcDbSpline
 70
8
 71
3
 72
8
 73
4
 74
0
 40
0
 40
0
 40
0
 40
0
 40
1
 40
1
 40
1
 40
1
 10
434.645759
 20
96.679392
 30
0.0
 10
435.962196
 20
97.230280
 30
0.0
 10
437.825299
 20
97.505720
 30
0.0
 10
440.235055
 20
97.505720
 30
0.0
  0
SPLINE
  5
248
100
AcDbEntity
  8
0
 62
7
100
AcDbSpline
 70
8
 71
3
 72
8
 73
4
 74
0
 40
0
 40
0
 40
0
 40
0
 40
1
 40
1
 40
1
 40
1
 10
440.235055
 20
97.505720
 30
0.0
 10
442.644811
 20
97.505720
 30
0.0
 10
444.516829
 20
97.227970
 30
0.0
 10
445.851125
 20
96.672477
 30
0.0
  0
SPLINE
  5
249
100
AcDbEntity
  8
0
 62
7
100
AcDbSpline
 70
8
 71
3
 72
8
 73
4
 74
0
 40
0
 40
0
 40
0
 40
0
 40
1
 40
1
 40
1
 40
1
 10
445.851125
 20
96.672477
 30
0.0
 10
447.185420
 20
96.116983
 30
0.0
 10
447.852561
 20
95.345974
 30
0.0
 10
447.852561
 20
94.359448
 30
0.0
  0
SPLINE
  5
24a
100
AcDbEntity
  8
0
 62
7
100
AcDbSpline
 70
8
 71
3
 72
8
 73
4
 74
0
 40
0
 40
0
 40
0
 40
0
 40
1
 40
1
 40
1
 40
1
 10
447.852561
 20
94.359448
 30
0.0
 10
447.852561
 20
93.866189
 30
0.0
 10
447.676287
 20
93.415567
 30
0.0
 10
447.323753
 20
93.007589
 30
0.0
  0
SPLINE
  5
24b
100
AcDbEntity
  8
0
 62
7
100
AcDbSpline
 70
8
 71
3
 72
8
 73
4
 74
0
 40
0
 40
0
 40
0
 40
0
 40
1
 40
1
 40
1
 40
1
 10
447.323753
 20
93.007589
 30
0.0
 10
446.971219
 20
92.599611
 30
0.0
 10
446.429024
 20
92.257324
 30
0.0
 10
445.697168
 20
91.980729
 30
0.0
  0
LWPOLYLINE
  5
24c
100
AcDbEntity
  8
0
 62
7
100
AcDbPolyline
 90
2
 70
1
 10
445.991694
 20
85.017448
 30
0.0
 10
445.991694
 20
85.017448
 30
0.0
  0
SPLINE
  5
24d
100
AcDbEntity
  8
0
 62
7
100
AcDbSpline
 70
8
 71
3
 72
8
 73
4
 74
0
 40
0
 40
0
 40
0
 40
0
 40
1
 40
1
 40
1
 40
1
 10
431.814296
 20
91.980729
 30
0.0
 10
432.947778
 20
91.980729
 30
0.0
 10
433.965231
 20
91.962287
 30
0.0
 10
434.866654
 20
91.925410
 30
0.0
  0
LWPOLYLINE
  5
24e
100
AcDbEntity
  8
0
 62
7
100
AcDbPolyline
 90
7
 70
1
 10
445.697168
 20
91.980729
 30
0.0
 10
445.697168
 20
91.897750
 30
0.0
 10
447.584810
 20
91.655729
 30
0.0
 10
447.584810
 20
90.832858
 30
0.0
 10
426.753809
 20
90.832858
 30
0.0
 10
426.753809
 20
91.980729
 30
0.0
 10
431.814296
 20
91.980729
 30
0.0
  0
SPLINE
  5
24f
100
AcDbEntity
  8
0
 62
7
100
AcDbSpline
 70
8
 71
3
 72
8
 73
4
 74
0
 40
0
 40
0
 40
0
 40
0
 40
1
 40
1
 40
1
 40
1
 10
434.866654
 20
91.980729
 30
0.0
 10
433.402955
 20
92.515477
 30
0.0
 10
432.671098
 20
93.308386
 30
0.0
 10
432.671098
 20
94.359448
 30
0.0
  0
LWPOLYLINE
  5
250
100
AcDbEntity
  8
0
 62
7
100
AcDbPolyline
 90
2
 70
1
 10
434.866654
 20
91.925410
 30
0.0
 10
434.866654
 20
91.980729
 30
0.0
  0
SPLINE
  5
251
100
AcDbEntity
  8
0
 62
7
100
AcDbSpline
 70
8
 71
3
 72
8
 73
4
 74
0
 40
0
 40
0
 40
0
 40
0
 40
1
 40
1
 40
1
 40
1
 10
434.531965
 20
94.193491
 30
0.0
 10
434.531965
 20
93.409807
 30
0.0
 10
434.967047
 20
92.845096
 30
0.0
 10
435.837236
 20
92.499352
 30
0.0
  0
SPLINE
  5
252
100
AcDbEntity
  8
0
 62
7
100
AcDbSpline
 70
8
 71
3
 72
8
 73
4
 74
0
 40
0
 40
0
 40
0
 40
0
 40
1
 40
1
 40
1
 40
1
 10
435.837236
 20
92.499352
 30
0.0
 10
436.707426
 20
92.153608
 30
0.0
 10
438.173361
 20
91.980735
 30
0.0
 10
440.235041
 20
91.980735
 30
0.0
  0
SPLINE
  5
253
100
AcDbEntity
  8
0
 62
7
100
AcDbSpline
 70
8
 71
3
 72
8
 73
4
 74
0
 40
0
 40
0
 40
0
 40
0
 40
1
 40
1
 40
1
 40
1
 10
440.235041
 20
91.980735
 30
0.0
 10
442.296721
 20
91.980735
 30
0.0
 10
443.771586
 20
92.158220
 30
0.0
 10
444.659621
 20
92.513182
 30
0.0
  0
SPLINE
  5
254
100
AcDbEntity
  8
0
 62
7
100
AcDbSpline
 70
8
 71
3
 72
8
 73
4
 74
0
 40
0
 40
0
 40
0
 40
0
 40
1
 40
1
 40
1
 40
1
 10
444.659621
 20
92.513182
 30
0.0
 10
445.547656
 20
92.868143
 30
0.0
 10
445.991680
 20
93.437466
 30
0.0
 10
445.991680
 20
94.221151
 30
0.0
  0
SPLINE
  5
255
100
AcDbEntity
  8
0
 62
7
100
AcDbSpline
 70
8
 71
3
 72
8
 73
4
 74
0
 40
0
 40
0
 40
0
 40
0
 40
1
 40
1
 40
1
 40
1
 10
445.991680
 20
94.221151
 30
0.0
 10
445.991680
 20
94.926469
 30
0.0
 10
445.494106
 20
95.452000
 30
0.0
 10
444.498970
 20
95.797744
 30
0.0
  0
SPLINE
  5
256
100
AcDbEntity
  8
0
 62
7
100
AcDbSpline
 70
8
 71
3
 72
8
 73
4
 74
0
 40
0
 40
0
 40
0
 40
0
 40
1
 40
1
 40
1
 40
1
 10
444.498970
 20
95.797744
 30
0.0
 10
443.503835
 20
96.143488
 30
0.0
 10
442.073605
 20
96.316360
 30
0.0
 10
440.208279
 20
96.316360
 30
0.0
  0
SPLINE
  5
257
100
AcDbEntity
  8
0
 62
7
100
AcDbSpline
 70
8
 71
3
 72
8
 73
4
 74
0
 40
0
 40
0
 40
0
 40
0
 40
1
 40
1
 40
1
 40
1
 10
440.208279
 20
96.316360
 30
0.0
 10
438.298320
 20
96.316360
 30
0.0
 10
436.874784
 20
96.143488
 30
0.0
 10
435.937656
 20
95.797744
 30
0.0
  0
SPLINE
  5
258
100
AcDbEntity
  8
0
 62
7
100
AcDbSpline
 70
8
 71
3
 72
8
 73
4
 74
0
 40
0
 40
0
 40
0
 40
0
 40
1
 40
1
 40
1
 40
1
 10
435.937656
 20
95.797744
 30
0.0
 10
435.000529
 20
95.452000
 30
0.0
 10
434.531965
 20
94.917251
 30
0.0
 10
434.531965
 20
94.193491
 30
0.0
  0
LWPOLYLINE
  5
259
100
AcDbEntity
  8
0
 62
7
100
AcDbPolyline
 90
2
 70
1
 10
432.671098
 20
94.359448
 30
0.0
 10
432.671098
 20
94.359448
 30
0.0
  0
SPLINE
  5
25a
100
AcDbEntity
  8
0
 62
7
100
AcDbSpline
 70
8
 71
3
 72
8
 73
4
 74
0
 40
0
 40
0
 40
0
 40
0
 40
1
 40
1
 40
1
 40
1
 10
440.235055
 20
106.052516
 30
0.0
 10
442.626965
 20
106.052516
 30
0.0
 10
444.494539
 20
105.741353
 30
0.0
 10
445.837751
 20
105.119013
 30
0.0
  0
SPLINE
  5
25b
100
AcDbEntity
  8
0
 62
7
100
AcDbSpline
 70
8
 71
3
 72
8
 73
4
 74
0
 40
0
 40
0
 40
0
 40
0
 40
1
 40
1
 40
1
 40
1
 10
445.837751
 20
105.119013
 30
0.0
 10
447.180962
 20
104.496674
 30
0.0
 10
447.852574
 20
103.636926
 30
0.0
 10
447.852574
 20
102.539762
 30
0.0
  0
SPLINE
  5
25c
100
AcDbEntity
  8
0
 62
7
100
AcDbSpline
 70
8
 71
3
 72
8
 73
4
 74
0
 40
0
 40
0
 40
0
 40
0
 40
1
 40
1
 40
1
 40
1
 10
447.852574
 20
102.539762
 30
0.0
 10
447.852574
 20
101.862104
 30
0.0
 10
447.544661
 20
101.260509
 30
0.0
 10
446.928835
 20
100.734978
 30
0.0
  0
SPLINE
  5
25d
100
AcDbEntity
  8
0
 62
7
100
AcDbSpline
 70
8
 71
3
 72
8
 73
4
 74
0
 40
0
 40
0
 40
0
 40
0
 40
1
 40
1
 40
1
 40
1
 10
446.928835
 20
100.734978
 30
0.0
 10
446.313008
 20
100.209446
 30
0.0
 10
445.429431
 20
99.803771
 30
0.0
 10
444.278103
 20
99.517958
 30
0.0
  0
SPLINE
  5
25e
100
AcDbEntity
  8
0
 62
7
100
AcDbSpline
 70
8
 71
3
 72
8
 73
4
 74
0
 40
0
 40
0
 40
0
 40
0
 40
1
 40
1
 40
1
 40
1
 10
444.278103
 20
99.517958
 30
0.0
 10
443.126775
 20
99.232145
 30
0.0
 10
441.779092
 20
99.089235
 30
0.0
 10
440.235068
 20
99.089235
 30
0.0
  0
SPLINE
  5
25f
100
AcDbEntity
  8
0
 62
7
100
AcDbSpline
 70
8
 71
3
 72
8
 73
4
 74
0
 40
0
 40
0
 40
0
 40
0
 40
1
 40
1
 40
1
 40
1
 10
440.235068
 20
99.089235
 30
0.0
 10
437.843158
 20
99.089235
 30
0.0
 10
435.980055
 20
99.398102
 30
0.0
 10
434.645759
 20
100.015830
 30
0.0
  0
SPLINE
  5
260
100
AcDbEntity
  8
0
 62
7
100
AcDbSpline
 70
8
 71
3
 72
8
 73
4
 74
0
 40
0
 40
0
 40
0
 40
0
 40
1
 40
1
 40
1
 40
1
 10
434.645759
 20
100.015830
 30
0.0
 10
433.311464
 20
100.633557
 30
0.0
 10
432.644323
 20
101.491002
 30
0.0
 10
432.644323
 20
102.588166
 30
0.0
  0
SPLINE
  5
261
100
AcDbEntity
  8
0
 62
7
100
AcDbSpline
 70
8
 71
3
 72
8
 73
4
 74
0
 40
0
 40
0
 40
0
 40
0
 40
1
 40
1
 40
1
 40
1
 10
432.644323
 20
102.588166
 30
0.0
 10
432.644323
 20
103.648446
 30
0.0
 10
433.327087
 20
104.490907
 30
0.0
 10
434.692616
 20
105.115549
 30
0.0
  0
SPLINE
  5
262
100
AcDbEntity
  8
0
 62
7
100
AcDbSpline
 70
8
 71
3
 72
8
 73
4
 74
0
 40
0
 40
0
 40
0
 40
0
 40
1
 40
1
 40
1
 40
1
 10
434.692616
 20
105.115549
 30
0.0
 10
436.058144
 20
105.740191
 30
0.0
 10
437.905624
 20
106.052516
 30
0.0
 10
440.235055
 20
106.052516
 30
0.0
  0
LWPOLYLINE
  5
263
100
AcDbEntity
  8
0
 62
7
100
AcDbPolyline
 90
2
 70
1
 10
434.531965
 20
94.193491
 30
0.0
 10
434.531965
 20
94.193491
 30
0.0
  0
SPLINE
  5
264
100
AcDbEntity
  8
0
 62
7
100
AcDbSpline
 70
8
 71
3
 72
8
 73
4
 74
0
 40
0
 40
0
 40
0
 40
0
 40
1
 40
1
 40
1
 40
1
 10
440.235068
 20
100.278595
 30
0.0
 10
442.109323
 20
100.278595
 30
0.0
 10
443.537331
 20
100.472212
 30
0.0
 10
444.519079
 20
100.859445
 30
0.0
  0
SPLINE
  5
265
100
AcDbEntity
  8
0
 62
7
100
AcDbSpline
 70
8
 71
3
 72
8
 73
4
 74
0
 40
0
 40
0
 40
0
 40
0
 40
1
 40
1
 40
1
 40
1
 10
444.519079
 20
100.859445
 30
0.0
 10
445.500827
 20
101.246679
 30
0.0
 10
445.991707
 20
101.816002
 30
0.0
 10
445.991707
 20
102.567422
 30
0.0
  0
SPLINE
  5
266
100
AcDbEntity
  8
0
 62
7
100
AcDbSpline
 70
8
 71
3
 72
8
 73
4
 74
0
 40
0
 40
0
 40
0
 40
0
 40
1
 40
1
 40
1
 40
1
 10
445.991707
 20
102.567422
 30
0.0
 10
445.991707
 20
103.318841
 30
0.0
 10
445.503062
 20
103.889319
 30
0.0
 10
444.525772
 20
104.278855
 30
0.0
  0
SPLINE
  5
267
100
AcDbEntity
  8
0
 62
7
100
AcDbSpline
 70
8
 71
3
 72
8
 73
4
 74
0
 40
0
 40
0
 40
0
 40
0
 40
1
 40
1
 40
1
 40
1
 10
444.525772
 20
104.278855
 30
0.0
 10
443.548482
 20
104.668391
 30
0.0
 10
442.118252
 20
104.863163
 30
0.0
 10
440.235068
 20
104.863163
 30
0.0
  0
SPLINE
  5
268
100
AcDbEntity
  8
0
 62
7
100
AcDbSpline
 70
8
 71
3
 72
8
 73
4
 74
0
 40
0
 40
0
 40
0
 40
0
 40
1
 40
1
 40
1
 40
1
 10
440.235068
 20
104.863163
 30
0.0
 10
438.369743
 20
104.863163
 30
0.0
 10
436.952900
 20
104.668391
 30
0.0
 10
435.984540
 20
104.278855
 30
0.0
  0
SPLINE
  5
269
100
AcDbEntity
  8
0
 62
7
100
AcDbSpline
 70
8
 71
3
 72
8
 73
4
 74
0
 40
0
 40
0
 40
0
 40
0
 40
1
 40
1
 40
1
 40
1
 10
435.984540
 20
104.278855
 30
0.0
 10
435.016179
 20
103.889319
 30
0.0
 10
434.531992
 20
103.314229
 30
0.0
 10
434.531992
 20
102.553592
 30
0.0
  0
SPLINE
  5
26a
100
AcDbEntity
  8
0
 62
7
100
AcDbSpline
 70
8
 71
3
 72
8
 73
4
 74
0
 40
0
 40
0
 40
0
 40
0
 40
1
 40
1
 40
1
 40
1
 10
434.531992
 20
102.553592
 30
0.0
 10
434.531992
 20
101.802172
 30
0.0
 10
435.009485
 20
101.235152
 30
0.0
 10
435.964458
 20
100.852531
 30
0.0
  0
SPLINE
  5
26b
100
AcDbEntity
  8
0
 62
7
100
AcDbSpline
 70
8
 71
3
 72
8
 73
4
 74
0
 40
0
 40
0
 40
0
 40
0
 40
1
 40
1
 40
1
 40
1
 10
435.964458
 20
100.852531
 30
0.0
 10
436.919431
 20
100.469909
 30
0.0
 10
438.342968
 20
100.278595
 30
0.0
 10
440.235068
 20
100.278595
 30
0.0
  0
LWPOLYLINE
  5
26c
100
AcDbEntity
  8
0
 62
7
100
AcDbPolyline
 90
2
 70
1
 10
440.235055
 20
106.052516
 30
0.0
 10
440.235055
 20
106.052516
 30
0.0
  0
LWPOLYLINE
  5
26d
100
AcDbEntity
  8
0
 62
7
100
AcDbPolyline
 90
2
 70
1
 10
440.235068
 20
100.278595
 30
0.0
 10
440.235068
 20
100.278595
 30
0.0
  0
SPLINE
  5
26e
100
AcDbEntity
  8
0
 62
7
100
AcDbSpline
 70
8
 71
3
 72
8
 73
4
 74
0
 40
0
 40
0
 40
0
 40
0
 40
1
 40
1
 40
1
 40
1
 10
445.496355
 20
112.441861
 30
0.0
 10
446.415637
 20
112.063845
 30
0.0
 10
447.038157
 20
111.686984
 30
0.0
 10
447.363916
 20
111.311277
 30
0.0
  0
SPLINE
  5
26f
100
AcDbEntity
  8
0
 62
7
100
AcDbSpline
 70
8
 71
3
 72
8
 73
4
 74
0
 40
0
 40
0
 40
0
 40
0
 40
1
 40
1
 40
1
 40
1
 10
447.363916
 20
111.311277
 30
0.0
 10
447.689675
 20
110.935571
 30
0.0
 10
447.852561
 20
110.466514
 30
0.0
 10
447.852561
 20
109.904106
 30
0.0
  0
SPLINE
  5
270
100
AcDbEntity
  8
0
 62
7
100
AcDbSpline
 70
8
 71
3
 72
8
 73
4
 74
0
 40
0
 40
0
 40
0
 40
0
 40
1
 40
1
 40
1
 40
1
 10
447.852561
 20
109.904106
 30
0.0
 10
447.852561
 20
109.152686
 30
0.0
 10
447.477710
 20
108.563766
 30
0.0
 10
446.728008
 20
108.137346
 30
0.0
  0
SPLINE
  5
271
100
AcDbEntity
  8
0
 62
7
100
AcDbSpline
 70
8
 71
3
 72
8
 73
4
 74
0
 40
0
 40
0
 40
0
 40
0
 40
1
 40
1
 40
1
 40
1
 10
446.728008
 20
108.137346
 30
0.0
 10
445.978306
 20
107.710926
 30
0.0
 10
444.911762
 20
107.497719
 30
0.0
 10
443.528388
 20
107.497719
 30
0.0
  0
SPLINE
  5
272
100
AcDbEntity
  8
0
 62
7
100
AcDbSpline
 70
8
 71
3
 72
8
 73
4
 74
0
 40
0
 40
0
 40
0
 40
0
 40
1
 40
1
 40
1
 40
1
 10
443.528388
 20
107.497719
 30
0.0
 10
440.565285
 20
107.497719
 30
0.0
 10
439.012331
 20
108.721654
 30
0.0
 10
438.869526
 20
111.169522
 30
0.0
  0
LWPOLYLINE
  5
273
100
AcDbEntity
  8
0
 62
7
100
AcDbPolyline
 90
3
 70
1
 10
447.584810
 20
112.725378
 30
0.0
 10
445.496355
 20
112.497180
 30
0.0
 10
445.496355
 20
112.441861
 30
0.0
  0
SPLINE
  5
274
100
AcDbEntity
  8
0
 62
7
100
AcDbSpline
 70
8
 71
3
 72
8
 73
4
 74
0
 40
0
 40
0
 40
0
 40
0
 40
1
 40
1
 40
1
 40
1
 10
437.878849
 20
112.455691
 30
0.0
 10
436.727521
 20
112.455691
 30
0.0
 10
435.877412
 20
112.327765
 30
0.0
 10
435.328524
 20
112.071915
 30
0.0
  0
SPLINE
  5
275
100
AcDbEntity
  8
0
 62
7
100
AcDbSpline
 70
8
 71
3
 72
8
 73
4
 74
0
 40
0
 40
0
 40
0
 40
0
 40
1
 40
1
 40
1
 40
1
 10
435.328524
 20
112.071915
 30
0.0
 10
434.779635
 20
111.816064
 30
0.0
 10
434.505190
 20
111.406931
 30
0.0
 10
434.505190
 20
110.844523
 30
0.0
  0
SPLINE
  5
276
100
AcDbEntity
  8
0
 62
7
100
AcDbSpline
 70
8
 71
3
 72
8
 73
4
 74
0
 40
0
 40
0
 40
0
 40
0
 40
1
 40
1
 40
1
 40
1
 10
434.505190
 20
110.844523
 30
0.0
 10
434.505190
 20
110.212966
 30
0.0
 10
434.880041
 20
109.498430
 30
0.0
 10
435.629743
 20
108.700916
 30
0.0
  0
LWPOLYLINE
  5
277
100
AcDbEntity
  8
0
 62
7
100
AcDbPolyline
 90
3
 70
1
 10
438.869526
 20
111.169522
 30
0.0
 10
438.789201
 20
112.455691
 30
0.0
 10
437.878849
 20
112.455691
 30
0.0
  0
SPLINE
  5
278
100
AcDbEntity
  8
0
 62
7
100
AcDbSpline
 70
8
 71
3
 72
8
 73
4
 74
0
 40
0
 40
0
 40
0
 40
0
 40
1
 40
1
 40
1
 40
1
 10
433.929526
 20
108.348257
 30
0.0
 10
433.536830
 20
108.721661
 30
0.0
 10
433.228917
 20
109.130794
 30
0.0
 10
433.005787
 20
109.575649
 30
0.0
  0
SPLINE
  5
279
100
AcDbEntity
  8
0
 62
7
100
AcDbSpline
 70
8
 71
3
 72
8
 73
4
 74
0
 40
0
 40
0
 40
0
 40
0
 40
1
 40
1
 40
1
 40
1
 10
433.005787
 20
109.575649
 30
0.0
 10
432.782657
 20
110.020504
 30
0.0
 10
432.671098
 20
110.466514
 30
0.0
 10
432.671098
 20
110.913679
 30
0.0
  0
SPLINE
  5
27a
100
AcDbEntity
  8
0
 62
7
100
AcDbSpline
 70
8
 71
3
 72
8
 73
4
 74
0
 40
0
 40
0
 40
0
 40
0
 40
1
 40
1
 40
1
 40
1
 10
432.671098
 20
110.913679
 30
0.0
 10
432.671098
 20
111.817226
 30
0.0
 10
433.059337
 20
112.486815
 30
0.0
 10
433.835814
 20
112.922452
 30
0.0
  0
SPLINE
  5
27b
100
AcDbEntity
  8
0
 62
7
100
AcDbSpline
 70
8
 71
3
 72
8
 73
4
 74
0
 40
0
 40
0
 40
0
 40
0
 40
1
 40
1
 40
1
 40
1
 10
433.835814
 20
112.922452
 30
0.0
 10
434.612291
 20
113.358090
 30
0.0
 10
435.857331
 20
113.575909
 30
0.0
 10
437.570935
 20
113.575909
 30
0.0
  0
LWPOLYLINE
  5
27c
100
AcDbEntity
  8
0
 62
7
100
AcDbPolyline
 90
2
 70
1
 10
435.629743
 20
108.700916
 30
0.0
 10
433.929526
 20
108.348257
 30
0.0
  0
SPLINE
  5
27d
100
AcDbEntity
  8
0
 62
7
100
AcDbSpline
 70
8
 71
3
 72
8
 73
4
 74
0
 40
0
 40
0
 40
0
 40
0
 40
1
 40
1
 40
1
 40
1
 10
446.018469
 20
110.132290
 30
0.0
 10
446.018469
 20
110.846826
 30
0.0
 10
445.639160
 20
111.408093
 30
0.0
 10
444.880529
 20
111.816071
 30
0.0
  0
SPLINE
  5
27e
100
AcDbEntity
  8
0
 62
7
100
AcDbSpline
 70
8
 71
3
 72
8
 73
4
 74
0
 40
0
 40
0
 40
0
 40
0
 40
1
 40
1
 40
1
 40
1
 10
444.880529
 20
111.816071
 30
0.0
 10
444.121897
 20
112.224049
 30
0.0
 10
443.059824
 20
112.428038
 30
0.0
 10
441.694296
 20
112.428038
 30
0.0
  0
LWPOLYLINE
  5
27f
100
AcDbEntity
  8
0
 62
7
100
AcDbPolyline
 90
4
 70
1
 10
437.570935
 20
113.575909
 30
0.0
 10
447.584810
 20
113.575909
 30
0.0
 10
447.584810
 20
112.725378
 30
0.0
 10
447.584810
 20
112.725378
 30
0.0
  0
SPLINE
  5
280
100
AcDbEntity
  8
0
 62
7
100
AcDbSpline
 70
8
 71
3
 72
8
 73
4
 74
0
 40
0
 40
0
 40
0
 40
0
 40
1
 40
1
 40
1
 40
1
 10
440.462643
 20
111.280167
 30
0.0
 10
440.525122
 20
110.367403
 30
0.0
 10
440.799567
 20
109.709334
 30
0.0
 10
441.285976
 20
109.305968
 30
0.0
  0
SPLINE
  5
281
100
AcDbEntity
  8
0
 62
7
100
AcDbSpline
 70
8
 71
3
 72
8
 73
4
 74
0
 40
0
 40
0
 40
0
 40
0
 40
1
 40
1
 40
1
 40
1
 10
441.285976
 20
109.305968
 30
0.0
 10
441.772385
 20
108.902602
 30
0.0
 10
442.528781
 20
108.700916
 30
0.0
 10
443.555163
 20
108.700916
 30
0.0
  0
SPLINE
  5
282
100
AcDbEntity
  8
0
 62
7
100
AcDbSpline
 70
8
 71
3
 72
8
 73
4
 74
0
 40
0
 40
0
 40
0
 40
0
 40
1
 40
1
 40
1
 40
1
 10
443.555163
 20
108.700916
 30
0.0
 10
444.358415
 20
108.700916
 30
0.0
 10
444.969783
 20
108.826539
 30
0.0
 10
445.389255
 20
109.077777
 30
0.0
  0
SPLINE
  5
283
100
AcDbEntity
  8
0
 62
7
100
AcDbSpline
 70
8
 71
3
 72
8
 73
4
 74
0
 40
0
 40
0
 40
0
 40
0
 40
1
 40
1
 40
1
 40
1
 10
445.389255
 20
109.077777
 30
0.0
 10
445.808726
 20
109.329016
 30
0.0
 10
446.018469
 20
109.680520
 30
0.0
 10
446.018469
 20
110.132290
 30
0.0
  0
LWPOLYLINE
  5
284
100
AcDbEntity
  8
0
 62
7
100
AcDbPolyline
 90
3
 70
1
 10
441.694296
 20
112.428038
 30
0.0
 10
440.368930
 20
112.428038
 30
0.0
 10
440.462643
 20
111.280167
 30
0.0
  0
SPLINE
  5
285
100
AcDbEntity
  8
0
 62
7
100
AcDbSpline
 70
8
 71
3
 72
8
 73
4
 74
0
 40
0
 40
0
 40
0
 40
0
 40
1
 40
1
 40
1
 40
1
 10
432.644323
 20
118.250370
 30
0.0
 10
432.644323
 20
118.586896
 30
0.0
 10
432.697873
 20
118.888842
 30
0.0
 10
432.804974
 20
119.156219
 30
0.0
  0
LWPOLYLINE
  5
286
100
AcDbEntity
  8
0
 62
7
100
AcDbPolyline
 90
2
 70
1
 10
446.018469
 20
110.132290
 30
0.0
 10
446.018469
 20
110.132290
 30
0.0
  0
SPLINE
  5
287
100
AcDbEntity
  8
0
 62
7
100
AcDbSpline
 70
8
 71
3
 72
8
 73
4
 74
0
 40
0
 40
0
 40
0
 40
0
 40
1
 40
1
 40
1
 40
1
 10
434.866654
 20
118.997177
 30
0.0
 10
434.732778
 20
118.683705
 30
0.0
 10
434.665841
 20
118.407109
 30
0.0
 10
434.665841
 20
118.167391
 30
0.0
  0
SPLINE
  5
288
100
AcDbEntity
  8
0
 62
7
100
AcDbSpline
 70
8
 71
3
 72
8
 73
4
 74
0
 40
0
 40
0
 40
0
 40
0
 40
1
 40
1
 40
1
 40
1
 10
434.665841
 20
118.167391
 30
0.0
 10
434.665841
 20
117.554269
 30
0.0
 10
435.147792
 20
117.029893
 30
0.0
 10
436.111694
 20
116.594255
 30
0.0
  0
SPLINE
  5
289
100
AcDbEntity
  8
0
 62
7
100
AcDbSpline
 70
8
 71
3
 72
8
 73
4
 74
0
 40
0
 40
0
 40
0
 40
0
 40
1
 40
1
 40
1
 40
1
 10
436.111694
 20
116.594255
 30
0.0
 10
437.075597
 20
116.158617
 30
0.0
 10
438.276017
 20
115.940799
 30
0.0
 10
439.712941
 20
115.940799
 30
0.0
  0
LWPOLYLINE
  5
28a
100
AcDbEntity
  8
0
 62
7
100
AcDbPolyline
 90
2
 70
1
 10
432.804974
 20
119.156219
 30
0.0
 10
434.866654
 20
118.997177
 30
0.0
  0
SPLINE
  5
28b
100
AcDbEntity
  8
0
 62
7
100
AcDbSpline
 70
8
 71
3
 72
8
 73
4
 74
0
 40
0
 40
0
 40
0
 40
0
 40
1
 40
1
 40
1
 40
1
 10
435.629743
 20
115.926969
 30
0.0
 10
434.674770
 20
116.208176
 30
0.0
 10
433.938456
 20
116.547006
 30
0.0
 10
433.420800
 20
116.943457
 30
0.0
  0
SPLINE
  5
28c
100
AcDbEntity
  8
0
 62
7
100
AcDbSpline
 70
8
 71
3
 72
8
 73
4
 74
0
 40
0
 40
0
 40
0
 40
0
 40
1
 40
1
 40
1
 40
1
 10
433.420800
 20
116.943457
 30
0.0
 10
432.903144
 20
117.339908
 30
0.0
 10
432.644323
 20
117.775545
 30
0.0
 10
432.644323
 20
118.250370
 30
0.0
  0
LWPOLYLINE
  5
28d
100
AcDbEntity
  8
0
 62
7
100
AcDbPolyline
 90
7
 70
1
 10
439.712941
 20
115.940799
 30
0.0
 10
447.584810
 20
115.940799
 30
0.0
 10
447.584810
 20
114.792928
 30
0.0
 10
432.912074
 20
114.792928
 30
0.0
 10
432.912074
 20
115.740267
 30
0.0
 10
435.629743
 20
115.871650
 30
0.0
 10
435.629743
 20
115.926969
 30
0.0
  0
LWPOLYLINE
  5
28e
100
AcDbEntity
  8
0
 62
7
100
AcDbPolyline
 90
2
 70
1
 10
432.644323
 20
118.250370
 30
0.0
 10
432.644323
 20
118.250370
 30
0.0
  0
SPLINE
  5
28f
100
AcDbEntity
  8
0
 62
7
100
AcDbSpline
 70
8
 71
3
 72
8
 73
4
 74
0
 40
0
 40
0
 40
0
 40
0
 40
1
 40
1
 40
1
 40
1
 10
445.616843
 20
125.670046
 30
0.0
 10
447.107317
 20
125.139903
 30
0.0
 10
447.852561
 20
124.346994
 30
0.0
 10
447.852561
 20
123.291319
 30
0.0
  0
SPLINE
  5
290
100
AcDbEntity
  8
0
 62
7
100
AcDbSpline
 70
8
 71
3
 72
8
 73
4
 74
0
 40
0
 40
0
 40
0
 40
0
 40
1
 40
1
 40
1
 40
1
 10
447.852561
 20
123.291319
 30
0.0
 10
447.852561
 20
122.300188
 30
0.0
 10
447.196572
 20
121.529179
 30
0.0
 10
445.884594
 20
120.978291
 30
0.0
  0
SPLINE
  5
291
100
AcDbEntity
  8
0
 62
7
100
AcDbSpline
 70
8
 71
3
 72
8
 73
4
 74
0
 40
0
 40
0
 40
0
 40
0
 40
1
 40
1
 40
1
 40
1
 10
445.884594
 20
120.978291
 30
0.0
 10
444.572615
 20
120.427403
 30
0.0
 10
442.707290
 20
120.151962
 30
0.0
 10
440.288605
 20
120.151962
 30
0.0
  0
SPLINE
  5
292
100
AcDbEntity
  8
0
 62
7
100
AcDbSpline
 70
8
 71
3
 72
8
 73
4
 74
0
 40
0
 40
0
 40
0
 40
0
 40
1
 40
1
 40
1
 40
1
 10
440.288605
 20
120.151962
 30
0.0
 10
437.869919
 20
120.151962
 30
0.0
 10
435.991207
 20
120.428558
 30
0.0
 10
434.652453
 20
120.981748
 30
0.0
  0
SPLINE
  5
293
100
AcDbEntity
  8
0
 62
7
100
AcDbSpline
 70
8
 71
3
 72
8
 73
4
 74
0
 40
0
 40
0
 40
0
 40
0
 40
1
 40
1
 40
1
 40
1
 10
434.652453
 20
120.981748
 30
0.0
 10
433.313700
 20
121.534939
 30
0.0
 10
432.644323
 20
122.304794
 30
0.0
 10
432.644323
 20
123.291319
 30
0.0
  0
SPLINE
  5
294
100
AcDbEntity
  8
0
 62
7
100
AcDbSpline
 70
8
 71
3
 72
8
 73
4
 74
0
 40
0
 40
0
 40
0
 40
0
 40
1
 40
1
 40
1
 40
1
 10
432.644323
 20
123.291319
 30
0.0
 10
432.644323
 20
124.319334
 30
0.0
 10
433.367250
 20
125.107631
 30
0.0
 10
434.813104
 20
125.656209
 30
0.0
  0
LWPOLYLINE
  5
295
100
AcDbEntity
  8
0
 62
7
100
AcDbPolyline
 90
2
 70
1
 10
445.616843
 20
125.732273
 30
0.0
 10
445.616843
 20
125.670046
 30
0.0
  0
SPLINE
  5
296
100
AcDbEntity
  8
0
 62
7
100
AcDbSpline
 70
8
 71
3
 72
8
 73
4
 74
0
 40
0
 40
0
 40
0
 40
0
 40
1
 40
1
 40
1
 40
1
 10
445.991694
 20
123.436539
 30
0.0
 10
445.991694
 20
124.220223
 30
0.0
 10
445.578903
 20
124.788405
 30
0.0
 10
444.753334
 20
125.141065
 30
0.0
  0
SPLINE
  5
297
100
AcDbEntity
  8
0
 62
7
100
AcDbSpline
 70
8
 71
3
 72
8
 73
4
 74
0
 40
0
 40
0
 40
0
 40
0
 40
1
 40
1
 40
1
 40
1
 10
444.753334
 20
125.141065
 30
0.0
 10
443.927765
 20
125.493724
 30
0.0
 10
442.595705
 20
125.670053
 30
0.0
 10
440.757155
 20
125.670053
 30
0.0
  0
LWPOLYLINE
  5
298
100
AcDbEntity
  8
0
 62
7
100
AcDbPolyline
 90
9
 70
1
 10
434.813104
 20
125.656209
 30
0.0
 10
434.813104
 20
125.746103
 30
0.0
 10
433.755488
 20
125.697699
 30
0.0
 10
432.724648
 20
125.670039
 30
0.0
 10
426.753809
 20
125.670039
 30
0.0
 10
426.753809
 20
126.817910
 30
0.0
 10
447.584810
 20
126.817910
 30
0.0
 10
447.584810
 20
125.884400
 30
0.0
 10
445.616843
 20
125.732273
 30
0.0
  0
SPLINE
  5
299
100
AcDbEntity
  8
0
 62
7
100
AcDbSpline
 70
8
 71
3
 72
8
 73
4
 74
0
 40
0
 40
0
 40
0
 40
0
 40
1
 40
1
 40
1
 40
1
 10
440.288591
 20
125.670053
 30
0.0
 10
438.209066
 20
125.670053
 30
0.0
 10
436.725285
 20
125.491421
 30
0.0
 10
435.837250
 20
125.134150
 30
0.0
  0
SPLINE
  5
29a
100
AcDbEntity
  8
0
 62
7
100
AcDbSpline
 70
8
 71
3
 72
8
 73
4
 74
0
 40
0
 40
0
 40
0
 40
0
 40
1
 40
1
 40
1
 40
1
 10
435.837250
 20
125.134150
 30
0.0
 10
434.949215
 20
124.776878
 30
0.0
 10
434.505190
 20
124.206401
 30
0.0
 10
434.505190
 20
123.422716
 30
0.0
  0
SPLINE
  5
29b
100
AcDbEntity
  8
0
 62
7
100
AcDbSpline
 70
8
 71
3
 72
8
 73
4
 74
0
 40
0
 40
0
 40
0
 40
0
 40
1
 40
1
 40
1
 40
1
 10
434.505190
 20
123.422716
 30
0.0
 10
434.505190
 20
122.749670
 30
0.0
 10
435.011681
 20
122.234511
 30
0.0
 10
436.024675
 20
121.877240
 30
0.0
  0
SPLINE
  5
29c
100
AcDbEntity
  8
0
 62
7
100
AcDbSpline
 70
8
 71
3
 72
8
 73
4
 74
0
 40
0
 40
0
 40
0
 40
0
 40
1
 40
1
 40
1
 40
1
 10
436.024675
 20
121.877240
 30
0.0
 10
437.037670
 20
121.519968
 30
0.0
 10
438.467900
 20
121.341336
 30
0.0
 10
440.315380
 20
121.341336
 30
0.0
  0
SPLINE
  5
29d
100
AcDbEntity
  8
0
 62
7
100
AcDbSpline
 70
8
 71
3
 72
8
 73
4
 74
0
 40
0
 40
0
 40
0
 40
0
 40
1
 40
1
 40
1
 40
1
 10
440.315380
 20
121.341336
 30
0.0
 10
442.189634
 20
121.341336
 30
0.0
 10
443.604255
 20
121.518821
 30
0.0
 10
444.559228
 20
121.873782
 30
0.0
  0
SPLINE
  5
29e
100
AcDbEntity
  8
0
 62
7
100
AcDbSpline
 70
8
 71
3
 72
8
 73
4
 74
0
 40
0
 40
0
 40
0
 40
0
 40
1
 40
1
 40
1
 40
1
 10
444.559228
 20
121.873782
 30
0.0
 10
445.514201
 20
122.228744
 30
0.0
 10
445.991694
 20
122.749663
 30
0.0
 10
445.991694
 20
123.436539
 30
0.0
  0
LWPOLYLINE
  5
29f
100
AcDbEntity
  8
0
 62
7
100
AcDbPolyline
 90
2
 70
1
 10
440.757155
 20
125.670053
 30
0.0
 10
440.288591
 20
125.670053
 30
0.0
  0
SPLINE
  5
2a0
100
AcDbEntity
  8
0
 62
7
100
AcDbSpline
 70
8
 71
3
 72
8
 73
4
 74
0
 40
0
 40
0
 40
0
 40
0
 40
1
 40
1
 40
1
 40
1
 10
446.165732
 20
129.085992
 30
0.0
 10
445.567751
 20
129.085992
 30
0.0
 10
445.114824
 20
129.156288
 30
0.0
 10
444.806911
 20
129.296889
 30
0.0
  0
SPLINE
  5
2a1
100
AcDbEntity
  8
0
 62
7
100
AcDbSpline
 70
8
 71
3
 72
8
 73
4
 74
0
 40
0
 40
0
 40
0
 40
0
 40
1
 40
1
 40
1
 40
1
 10
444.806911
 20
129.296889
 30
0.0
 10
444.498997
 20
129.437489
 30
0.0
 10
444.345041
 20
129.639175
 30
0.0
 10
444.345041
 20
129.901941
 30
0.0
  0
SPLINE
  5
2a2
100
AcDbEntity
  8
0
 62
7
100
AcDbSpline
 70
8
 71
3
 72
8
 73
4
 74
0
 40
0
 40
0
 40
0
 40
0
 40
1
 40
1
 40
1
 40
1
 10
444.345041
 20
129.901941
 30
0.0
 10
444.345041
 20
130.169319
 30
0.0
 10
444.498997
 20
130.377920
 30
0.0
 10
444.806911
 20
130.527745
 30
0.0
  0
SPLINE
  5
2a3
100
AcDbEntity
  8
0
 62
7
100
AcDbSpline
 70
8
 71
3
 72
8
 73
4
 74
0
 40
0
 40
0
 40
0
 40
0
 40
1
 40
1
 40
1
 40
1
 10
444.806911
 20
130.527745
 30
0.0
 10
445.114824
 20
130.677569
 30
0.0
 10
445.567764
 20
130.752478
 30
0.0
 10
446.165745
 20
130.752478
 30
0.0
  0
SPLINE
  5
2a4
100
AcDbEntity
  8
0
 62
7
100
AcDbSpline
 70
8
 71
3
 72
8
 73
4
 74
0
 40
0
 40
0
 40
0
 40
0
 40
1
 40
1
 40
1
 40
1
 10
446.165745
 20
130.752478
 30
0.0
 10
446.745867
 20
130.752478
 30
0.0
 10
447.192114
 20
130.676415
 30
0.0
 10
447.504485
 20
130.524287
 30
0.0
  0
SPLINE
  5
2a5
100
AcDbEntity
  8
0
 62
7
100
AcDbSpline
 70
8
 71
3
 72
8
 73
4
 74
0
 40
0
 40
0
 40
0
 40
0
 40
1
 40
1
 40
1
 40
1
 10
447.504485
 20
130.524287
 30
0.0
 10
447.816856
 20
130.372160
 30
0.0
 10
447.973049
 20
130.164713
 30
0.0
 10
447.973049
 20
129.901948
 30
0.0
  0
SPLINE
  5
2a6
100
AcDbEntity
  8
0
 62
7
100
AcDbSpline
 70
8
 71
3
 72
8
 73
4
 74
0
 40
0
 40
0
 40
0
 40
0
 40
1
 40
1
 40
1
 40
1
 10
447.973049
 20
129.901948
 30
0.0
 10
447.973049
 20
129.666842
 30
0.0
 10
447.832480
 20
129.472070
 30
0.0
 10
447.551341
 20
129.317640
 30
0.0
  0
SPLINE
  5
2a7
100
AcDbEntity
  8
0
 62
7
100
AcDbSpline
 70
8
 71
3
 72
8
 73
4
 74
0
 40
0
 40
0
 40
0
 40
0
 40
1
 40
1
 40
1
 40
1
 10
447.551341
 20
129.317640
 30
0.0
 10
447.270203
 20
129.163210
 30
0.0
 10
446.808333
 20
129.085992
 30
0.0
 10
446.165732
 20
129.085992
 30
0.0
  0
LWPOLYLINE
  5
2a8
100
AcDbEntity
  8
0
 62
7
100
AcDbPolyline
 90
2
 70
1
 10
445.991694
 20
123.436539
 30
0.0
 10
445.991694
 20
123.436539
 30
0.0
  0
LWPOLYLINE
  5
2a9
100
AcDbEntity
  8
0
 62
7
100
AcDbPolyline
 90
2
 70
1
 10
446.165732
 20
129.085992
 30
0.0
 10
446.165732
 20
129.085992
 30
0.0
  0
SPLINE
  5
2aa
100
AcDbEntity
  8
0
 62
7
100
AcDbSpline
 70
8
 71
3
 72
8
 73
4
 74
0
 40
0
 40
0
 40
0
 40
0
 40
1
 40
1
 40
1
 40
1
 10
438.039499
 20
142.680652
 30
0.0
 10
436.870326
 20
142.680652
 30
0.0
 10
435.993442
 20
142.551572
 30
0.0
 10
435.408849
 20
142.293418
 30
0.0
  0
SPLINE
  5
2ab
100
AcDbEntity
  8
0
 62
7
100
AcDbSpline
 70
8
 71
3
 72
8
 73
4
 74
0
 40
0
 40
0
 40
0
 40
0
 40
1
 40
1
 40
1
 40
1
 10
435.408849
 20
142.293418
 30
0.0
 10
434.824255
 20
142.035265
 30
0.0
 10
434.531965
 20
141.634202
 30
0.0
 10
434.531965
 20
141.090229
 30
0.0
  0
SPLINE
  5
2ac
100
AcDbEntity
  8
0
 62
7
100
AcDbSpline
 70
8
 71
3
 72
8
 73
4
 74
0
 40
0
 40
0
 40
0
 40
0
 40
1
 40
1
 40
1
 40
1
 10
434.531965
 20
141.090229
 30
0.0
 10
434.531965
 20
140.375693
 30
0.0
 10
434.929133
 20
139.847859
 30
0.0
 10
435.723456
 20
139.506727
 30
0.0
  0
SPLINE
  5
2ad
100
AcDbEntity
  8
0
 62
7
100
AcDbSpline
 70
8
 71
3
 72
8
 73
4
 74
0
 40
0
 40
0
 40
0
 40
0
 40
1
 40
1
 40
1
 40
1
 10
435.723456
 20
139.506727
 30
0.0
 10
436.517778
 20
139.165595
 30
0.0
 10
437.740502
 20
138.995026
 30
0.0
 10
439.391627
 20
138.995026
 30
0.0
  0
LWPOLYLINE
  5
2ae
100
AcDbEntity
  8
0
 62
7
100
AcDbPolyline
 90
2
 70
1
 10
447.584810
 20
142.680652
 30
0.0
 10
438.039499
 20
142.680652
 30
0.0
  0
SPLINE
  5
2af
100
AcDbEntity
  8
0
 62
7
100
AcDbSpline
 70
8
 71
3
 72
8
 73
4
 74
0
 40
0
 40
0
 40
0
 40
0
 40
1
 40
1
 40
1
 40
1
 10
438.039486
 20
137.847156
 30
0.0
 10
436.870312
 20
137.847156
 30
0.0
 10
435.993429
 20
137.718076
 30
0.0
 10
435.408835
 20
137.459922
 30
0.0
  0
SPLINE
  5
2b0
100
AcDbEntity
  8
0
 62
7
100
AcDbSpline
 70
8
 71
3
 72
8
 73
4
 74
0
 40
0
 40
0
 40
0
 40
0
 40
1
 40
1
 40
1
 40
1
 10
435.408835
 20
137.459922
 30
0.0
 10
434.824242
 20
137.201769
 30
0.0
 10
434.531952
 20
136.798403
 30
0.0
 10
434.531952
 20
136.249825
 30
0.0
  0
SPLINE
  5
2b1
100
AcDbEntity
  8
0
 62
7
100
AcDbSpline
 70
8
 71
3
 72
8
 73
4
 74
0
 40
0
 40
0
 40
0
 40
0
 40
1
 40
1
 40
1
 40
1
 10
434.531952
 20
136.249825
 30
0.0
 10
434.531952
 20
135.530677
 30
0.0
 10
434.949201
 20
135.003991
 30
0.0
 10
435.783686
 20
134.669774
 30
0.0
  0
SPLINE
  5
2b2
100
AcDbEntity
  8
0
 62
7
100
AcDbSpline
 70
8
 71
3
 72
8
 73
4
 74
0
 40
0
 40
0
 40
0
 40
0
 40
1
 40
1
 40
1
 40
1
 10
435.783686
 20
134.669774
 30
0.0
 10
436.618171
 20
134.335557
 30
0.0
 10
437.985936
 20
134.168445
 30
0.0
 10
439.886965
 20
134.168445
 30
0.0
  0
LWPOLYLINE
  5
2b3
100
AcDbEntity
  8
0
 62
7
100
AcDbPolyline
 90
4
 70
1
 10
439.391627
 20
138.995026
 30
0.0
 10
447.584797
 20
138.995026
 30
0.0
 10
447.584797
 20
137.847156
 30
0.0
 10
438.039486
 20
137.847156
 30
0.0
  0
SPLINE
  5
2b4
100
AcDbEntity
  8
0
 62
7
100
AcDbSpline
 70
8
 71
3
 72
8
 73
4
 74
0
 40
0
 40
0
 40
0
 40
0
 40
1
 40
1
 40
1
 40
1
 10
434.920190
 20
134.196104
 30
0.0
 10
434.206193
 20
134.412768
 30
0.0
 10
433.648375
 20
134.718178
 30
0.0
 10
433.246749
 20
135.112326
 30
0.0
  0
SPLINE
  5
2b5
100
AcDbEntity
  8
0
 62
7
100
AcDbSpline
 70
8
 71
3
 72
8
 73
4
 74
0
 40
0
 40
0
 40
0
 40
0
 40
1
 40
1
 40
1
 40
1
 10
433.246749
 20
135.112326
 30
0.0
 10
432.845123
 20
135.506475
 30
0.0
 10
432.644310
 20
135.947872
 30
0.0
 10
432.644310
 20
136.436526
 30
0.0
  0
SPLINE
  5
2b6
100
AcDbEntity
  8
0
 62
7
100
AcDbSpline
 70
8
 71
3
 72
8
 73
4
 74
0
 40
0
 40
0
 40
0
 40
0
 40
1
 40
1
 40
1
 40
1
 10
432.644310
 20
136.436526
 30
0.0
 10
432.644310
 20
137.621274
 30
0.0
 10
433.474337
 20
138.395741
 30
0.0
 10
435.134391
 20
138.759927
 30
0.0
  0
LWPOLYLINE
  5
2b7
100
AcDbEntity
  8
0
 62
7
100
AcDbPolyline
 90
7
 70
1
 10
439.886965
 20
134.168445
 30
0.0
 10
447.584797
 20
134.168445
 30
0.0
 10
447.584797
 20
133.020574
 30
0.0
 10
432.912060
 20
133.020574
 30
0.0
 10
432.912060
 20
133.954083
 30
0.0
 10
434.920190
 20
134.140785
 30
0.0
 10
434.920190
 20
134.196104
 30
0.0
  0
SPLINE
  5
2b8
100
AcDbEntity
  8
0
 62
7
100
AcDbSpline
 70
8
 71
3
 72
8
 73
4
 74
0
 40
0
 40
0
 40
0
 40
0
 40
1
 40
1
 40
1
 40
1
 10
435.134391
 20
138.815246
 30
0.0
 10
434.366844
 20
139.041134
 30
0.0
 10
433.759947
 20
139.368437
 30
0.0
 10
433.313700
 20
139.797159
 30
0.0
  0
SPLINE
  5
2b9
100
AcDbEntity
  8
0
 62
7
100
AcDbSpline
 70
8
 71
3
 72
8
 73
4
 74
0
 40
0
 40
0
 40
0
 40
0
 40
1
 40
1
 40
1
 40
1
 10
433.313700
 20
139.797159
 30
0.0
 10
432.867453
 20
140.225882
 30
0.0
 10
432.644323
 20
140.714536
 30
0.0
 10
432.644323
 20
141.263115
 30
0.0
  0
SPLINE
  5
2ba
100
AcDbEntity
  8
0
 62
7
100
AcDbSpline
 70
8
 71
3
 72
8
 73
4
 74
0
 40
0
 40
0
 40
0
 40
0
 40
1
 40
1
 40
1
 40
1
 10
432.644323
 20
141.263115
 30
0.0
 10
432.644323
 20
142.120560
 30
0.0
 10
433.070489
 20
142.762489
 30
0.0
 10
433.922833
 20
143.188910
 30
0.0
  0
SPLINE
  5
2bb
100
AcDbEntity
  8
0
 62
7
100
AcDbSpline
 70
8
 71
3
 72
8
 73
4
 74
0
 40
0
 40
0
 40
0
 40
0
 40
1
 40
1
 40
1
 40
1
 10
433.922833
 20
143.188910
 30
0.0
 10
434.775177
 20
143.615316
 30
0.0
 10
436.138469
 20
143.828522
 30
0.0
 10
438.012724
 20
143.828522
 30
0.0
  0
LWPOLYLINE
  5
2bc
100
AcDbEntity
  8
0
 62
7
100
AcDbPolyline
 90
2
 70
1
 10
435.134391
 20
138.759927
 30
0.0
 10
435.134391
 20
138.815246
 30
0.0
  0
SPLINE
  5
2bd
100
AcDbEntity
  8
0
 62
7
100
AcDbSpline
 70
8
 71
3
 72
8
 73
4
 74
0
 40
0
 40
0
 40
0
 40
0
 40
1
 40
1
 40
1
 40
1
 10
447.852561
 20
149.395003
 30
0.0
 10
447.852561
 20
148.274792
 30
0.0
 10
447.192100
 20
147.390842
 30
0.0
 10
445.871193
 20
146.743146
 30
0.0
  0
SPLINE
  5
2be
100
AcDbEntity
  8
0
 62
7
100
AcDbSpline
 70
8
 71
3
 72
8
 73
4
 74
0
 40
0
 40
0
 40
0
 40
0
 40
1
 40
1
 40
1
 40
1
 10
445.871193
 20
146.743146
 30
0.0
 10
444.550285
 20
146.095449
 30
0.0
 10
442.716193
 20
145.771605
 30
0.0
 10
440.368916
 20
145.771605
 30
0.0
  0
SPLINE
  5
2bf
100
AcDbEntity
  8
0
 62
7
100
AcDbSpline
 70
8
 71
3
 72
8
 73
4
 74
0
 40
0
 40
0
 40
0
 40
0
 40
1
 40
1
 40
1
 40
1
 10
440.368916
 20
145.771605
 30
0.0
 10
438.003781
 20
145.771605
 30
0.0
 10
436.125068
 20
146.072402
 30
0.0
 10
434.732765
 20
146.673997
 30
0.0
  0
SPLINE
  5
2c0
100
AcDbEntity
  8
0
 62
7
100
AcDbSpline
 70
8
 71
3
 72
8
 73
4
 74
0
 40
0
 40
0
 40
0
 40
0
 40
1
 40
1
 40
1
 40
1
 10
434.732765
 20
146.673997
 30
0.0
 10
433.340462
 20
147.275592
 30
0.0
 10
432.644310
 20
148.083478
 30
0.0
 10
432.644310
 20
149.097663
 30
0.0
  0
SPLINE
  5
2c1
100
AcDbEntity
  8
0
 62
7
100
AcDbSpline
 70
8
 71
3
 72
8
 73
4
 74
0
 40
0
 40
0
 40
0
 40
0
 40
1
 40
1
 40
1
 40
1
 10
432.644310
 20
149.097663
 30
0.0
 10
432.644310
 20
150.047305
 30
0.0
 10
433.248985
 20
150.798725
 30
0.0
 10
434.458321
 20
151.351915
 30
0.0
  0
SPLINE
  5
2c2
100
AcDbEntity
  8
0
 62
7
100
AcDbSpline
 70
8
 71
3
 72
8
 73
4
 74
0
 40
0
 40
0
 40
0
 40
0
 40
1
 40
1
 40
1
 40
1
 10
434.458321
 20
151.351915
 30
0.0
 10
435.667657
 20
151.905106
 30
0.0
 10
437.263009
 20
152.181701
 30
0.0
 10
439.244364
 20
152.181701
 30
0.0
  0
LWPOLYLINE
  5
2c3
100
AcDbEntity
  8
0
 62
7
100
AcDbPolyline
 90
4
 70
1
 10
438.012724
 20
143.828522
 30
0.0
 10
447.584810
 20
143.828522
 30
0.0
 10
447.584810
 20
142.680652
 30
0.0
 10
447.584810
 20
142.680652
 30
0.0
  0
SPLINE
  5
2c4
100
AcDbEntity
  8
0
 62
7
100
AcDbSpline
 70
8
 71
3
 72
8
 73
4
 74
0
 40
0
 40
0
 40
0
 40
0
 40
1
 40
1
 40
1
 40
1
 10
440.650055
 20
146.960964
 30
0.0
 10
442.372588
 20
146.984012
 30
0.0
 10
443.680109
 20
147.208745
 30
0.0
 10
444.572615
 20
147.635166
 30
0.0
  0
SPLINE
  5
2c5
100
AcDbEntity
  8
0
 62
7
100
AcDbSpline
 70
8
 71
3
 72
8
 73
4
 74
0
 40
0
 40
0
 40
0
 40
0
 40
1
 40
1
 40
1
 40
1
 10
444.572615
 20
147.635166
 30
0.0
 10
445.465122
 20
148.061586
 30
0.0
 10
445.911369
 20
148.662026
 30
0.0
 10
445.911369
 20
149.436493
 30
0.0
  0
SPLINE
  5
2c6
100
AcDbEntity
  8
0
 62
7
100
AcDbSpline
 70
8
 71
3
 72
8
 73
4
 74
0
 40
0
 40
0
 40
0
 40
0
 40
1
 40
1
 40
1
 40
1
 10
445.911369
 20
149.436493
 30
0.0
 10
445.911369
 20
150.252449
 30
0.0
 10
445.581138
 20
151.059187
 30
0.0
 10
444.920691
 20
151.856702
 30
0.0
  0
LWPOLYLINE
  5
2c7
100
AcDbEntity
  8
0
 62
7
100
AcDbPolyline
 90
3
 70
1
 10
439.244364
 20
152.181701
 30
0.0
 10
440.650055
 20
152.181701
 30
0.0
 10
440.650055
 20
146.960964
 30
0.0
  0
SPLINE
  5
2c8
100
AcDbEntity
  8
0
 62
7
100
AcDbSpline
 70
8
 71
3
 72
8
 73
4
 74
0
 40
0
 40
0
 40
0
 40
0
 40
1
 40
1
 40
1
 40
1
 10
446.902046
 20
151.856702
 30
0.0
 10
447.241192
 20
151.451026
 30
0.0
 10
447.484404
 20
151.067250
 30
0.0
 10
447.631667
 20
150.705374
 30
0.0
  0
SPLINE
  5
2c9
100
AcDbEntity
  8
0
 62
7
100
AcDbSpline
 70
8
 71
3
 72
8
 73
4
 74
0
 40
0
 40
0
 40
0
 40
0
 40
1
 40
1
 40
1
 40
1
 10
447.631667
 20
150.705374
 30
0.0
 10
447.778930
 20
150.343497
 30
0.0
 10
447.852561
 20
149.906705
 30
0.0
 10
447.852561
 20
149.395003
 30
0.0
  0
LWPOLYLINE
  5
2ca
100
AcDbEntity
  8
0
 62
7
100
AcDbPolyline
 90
2
 70
1
 10
444.920691
 20
151.856702
 30
0.0
 10
446.902046
 20
151.856702
 30
0.0
  0
SPLINE
  5
2cb
100
AcDbEntity
  8
0
 62
7
100
AcDbSpline
 70
8
 71
3
 72
8
 73
4
 74
0
 40
0
 40
0
 40
0
 40
0
 40
1
 40
1
 40
1
 40
1
 10
434.505177
 20
149.083834
 30
0.0
 10
434.505177
 20
148.475324
 30
0.0
 10
434.888983
 20
147.990127
 30
0.0
 10
435.656532
 20
147.628251
 30
0.0
  0
SPLINE
  5
2cc
100
AcDbEntity
  8
0
 62
7
100
AcDbSpline
 70
8
 71
3
 72
8
 73
4
 74
0
 40
0
 40
0
 40
0
 40
0
 40
1
 40
1
 40
1
 40
1
 10
435.656532
 20
147.628251
 30
0.0
 10
436.424080
 20
147.266374
 30
0.0
 10
437.486152
 20
147.053167
 30
0.0
 10
438.842751
 20
146.988631
 30
0.0
  0
LWPOLYLINE
  5
2cd
100
AcDbEntity
  8
0
 62
7
100
AcDbPolyline
 90
2
 70
1
 10
447.852561
 20
149.395003
 30
0.0
 10
447.852561
 20
149.395003
 30
0.0
  0
SPLINE
  5
2ce
100
AcDbEntity
  8
0
 62
7
100
AcDbSpline
 70
8
 71
3
 72
8
 73
4
 74
0
 40
0
 40
0
 40
0
 40
0
 40
1
 40
1
 40
1
 40
1
 10
438.842751
 20
150.950859
 30
0.0
 10
437.441518
 20
150.950859
 30
0.0
 10
436.368280
 20
150.789514
 30
0.0
 10
435.623036
 20
150.466817
 30
0.0
  0
SPLINE
  5
2cf
100
AcDbEntity
  8
0
 62
7
100
AcDbSpline
 70
8
 71
3
 72
8
 73
4
 74
0
 40
0
 40
0
 40
0
 40
0
 40
1
 40
1
 40
1
 40
1
 10
435.623036
 20
150.466817
 30
0.0
 10
434.877792
 20
150.144120
 30
0.0
 10
434.505177
 20
149.683126
 30
0.0
 10
434.505177
 20
149.083834
 30
0.0
  0
LWPOLYLINE
  5
2d0
100
AcDbEntity
  8
0
 62
7
100
AcDbPolyline
 90
2
 70
1
 10
438.842751
 20
146.988631
 30
0.0
 10
438.842751
 20
150.950859
 30
0.0
  0
LWPOLYLINE
  5
2d1
100
AcDbEntity
  8
0
 62
7
100
AcDbPolyline
 90
2
 70
1
 10
434.505177
 20
149.083834
 30
0.0
 10
434.505177
 20
149.083834
 30
0.0
  0
ENDSEC
  0
SECTION
  2
OBJECTS
  0
DICTIONARY
  5
C
330
0
100
AcDbDictionary
  3
ACAD_GROUP
350
D
  3
ACAD_MLINESTYLE
350
17
  0
DICTIONARY
  5
D
330
C
100
AcDbDictionary
  0
DICTIONARY
  5
1A
330
C
100
AcDbDictionary
  0
DICTIONARY
  5
17
330
C
100
AcDbDictionary
  3
STANDARD
350
18
  0
DICTIONARY
  5
19
330
C
100
AcDbDictionary
  0
ENDSEC
  0
EOF
